<svg id="Layer_1" data-name="Layer 1" xmlns="http://www.w3.org/2000/svg" viewBox="0 0 1783.35 1080.5"><defs><style>.cls-1,.cls-2{fill:#ed1c22;}.cls-2{stroke:#000;stroke-miterlimit:10;}.cls-3{fill:#fff;}</style></defs><path class="cls-1" d="M977,0c.5,48.5,4.5,46.94-14,101.22S943.2,197,970.35,261.73,1004.5,423.5,983.5,476.5s-62.22,83-67,149c-5,69,0,103,34,183S1007,965,995.76,1014.76s-17.26,49.74-17.26,65.74c27,0,936-1,941-1s1-1079,1-1079Z" transform="translate(-138.66)"/><path class="cls-2" d="M2077.5,399.5" transform="translate(-138.66)"/><ellipse class="cls-1" cx="2.51" cy="69.15" rx="2.51" ry="2.98"/><ellipse class="cls-1" cx="6.89" cy="64.21" rx="2.61" ry="3.26"/><ellipse class="cls-1" cx="12.1" cy="60.49" rx="2.98" ry="3.44"/><ellipse class="cls-1" cx="18.42" cy="57.98" rx="3.16" ry="3.91"/><ellipse class="cls-1" cx="26.24" cy="57.52" rx="3.72" ry="4.75"/><path class="cls-1" d="M160.06,63c-9.49,0-18.61,9.3-18.61,16.37,0,6.33,4.84,13.21,4.84,20.28,0,2-.52,3.91-.37,7.08.18,4.09,2.42,9.11,9.49,9.11,5.21,0,8.93-5,8.93-9.67,0-4.1-6.14-7.26-6-14.52s9.85-13.21,10-20.09C168.62,65.05,163.22,63,160.06,63Z" transform="translate(-138.66)"/><path class="cls-1" d="M147,115.76a8.14,8.14,0,0,0,8.3,6.89c4.86,0,7.52-5.48,7.52-5.48s-4.37,3-7.81,3C151.43,120.13,147,115.76,147,115.76Z" transform="translate(-138.66)"/><ellipse class="cls-1" cx="59.83" cy="90.73" rx="2.51" ry="2.98"/><ellipse class="cls-1" cx="55.45" cy="85.8" rx="2.61" ry="3.26"/><ellipse class="cls-1" cx="50.24" cy="82.08" rx="2.98" ry="3.44"/><ellipse class="cls-1" cx="43.92" cy="79.57" rx="3.16" ry="3.91"/><ellipse class="cls-1" cx="36.1" cy="79.1" rx="3.72" ry="4.75"/><path class="cls-1" d="M179.6,84.59c-3.16,0-8.56,2-8.37,8.56.19,6.89,9.86,12.84,10,20.1s-6,10.42-6,14.51c0,4.66,3.72,9.68,8.93,9.68,7.08,0,9.31-5,9.49-9.12.15-3.16-.37-5-.37-7.07,0-7.07,4.84-14,4.84-20.28C198.21,93.9,189.09,84.59,179.6,84.59Zm5.3,50.62c-6.85,0-7.72-6.7-7.72-6.7s4.09,4.25,7.44,4.25c3.2,0,7.26-2.88,7.26-2.88S189.41,135.21,184.9,135.21Z" transform="translate(-138.66)"/><ellipse class="cls-1" cx="917.8" cy="520.27" rx="1.73" ry="1.46" transform="translate(-273.06 443.43) rotate(-25.37)"/><ellipse class="cls-1" cx="914.13" cy="519.2" rx="1.89" ry="1.51" transform="translate(-272.96 441.75) rotate(-25.37)"/><ellipse class="cls-1" cx="910.88" cy="517.4" rx="2" ry="1.73" transform="translate(-272.5 440.19) rotate(-25.37)"/><ellipse class="cls-1" cx="907.99" cy="514.7" rx="2.27" ry="1.84" transform="translate(-271.63 438.69) rotate(-25.37)"/><ellipse class="cls-1" cx="905.8" cy="510.72" rx="2.75" ry="2.16" transform="translate(-270.13 437.37) rotate(-25.37)"/><path class="cls-1" d="M909.88,511.89c2.36,5,9.51,7.45,13.22,5.69,3.31-1.58,5.72-5.82,9.43-7.58,1.07-.51,2.17-.7,3.8-1.57,2.1-1.11,4.18-3.53,2.42-7.24-1.3-2.73-4.86-3.43-7.3-2.28-2.14,1-2.27,5-6.13,6.74s-9.37-1.88-13-.28A4.7,4.7,0,0,0,909.88,511.89Z" transform="translate(-138.66)"/><path class="cls-1" d="M940.78,505.61a4.73,4.73,0,0,0,1.55-6.07c-1.21-2.54-4.74-2.58-4.74-2.58s2.64,1.55,3.5,3.36S940.78,505.61,940.78,505.61Z" transform="translate(-138.66)"/><ellipse class="cls-1" cx="914.87" cy="484.85" rx="1.73" ry="1.46" transform="translate(-258.17 438.76) rotate(-25.37)"/><ellipse class="cls-1" cx="913.37" cy="488.37" rx="1.89" ry="1.51" transform="translate(-259.82 438.45) rotate(-25.37)"/><ellipse class="cls-1" cx="912.71" cy="492.03" rx="2" ry="1.73" transform="translate(-261.45 438.52) rotate(-25.37)"/><ellipse class="cls-1" cx="912.97" cy="495.97" rx="2.27" ry="1.84" transform="translate(-263.12 439.01) rotate(-25.37)"/><ellipse class="cls-1" cx="914.67" cy="500.18" rx="2.75" ry="2.16" transform="translate(-264.76 440.15) rotate(-25.37)"/><path class="cls-1" d="M916.34,496.28a4.69,4.69,0,0,0,6.57,2.26c3.56-1.81,4.28-8.36,8-10.26s6.95.53,9.09-.49c2.44-1.16,4.15-4.36,2.86-7.09-1.76-3.71-4.95-3.63-7.15-2.71-1.69.71-2.54,1.45-3.61,2-3.71,1.75-8.52.93-11.84,2.5C916.59,484.21,914,491.3,916.34,496.28Zm25.22-15.36a4.47,4.47,0,0,1-1.59,5.71s1.21-3.2.38-5-3.32-3.09-3.32-3.09S940.44,478.55,941.56,480.92Z" transform="translate(-138.66)"/><ellipse class="cls-1" cx="915.65" cy="454.1" rx="3.5" ry="2.95" transform="matrix(0.97, -0.25, 0.25, 0.97, -224.14, 248.28)"/><ellipse class="cls-1" cx="908.73" cy="450.6" rx="3.83" ry="3.06" transform="translate(-223.48 246.41) rotate(-14.76)"/><ellipse class="cls-1" cx="902.93" cy="445.79" rx="4.05" ry="3.5" transform="translate(-222.44 244.77) rotate(-14.76)"/><ellipse class="cls-1" cx="898.18" cy="439.35" rx="4.6" ry="3.72" transform="translate(-220.96 243.35) rotate(-14.76)"/><ellipse class="cls-1" cx="895.31" cy="430.6" rx="5.58" ry="4.38" transform="matrix(0.97, -0.25, 0.25, 0.97, -218.83, 242.33)"/><path class="cls-1" d="M903,434.46c2.85,10.79,16.16,18.37,24.2,16.26,7.2-1.9,13.57-9.46,21.62-11.58,2.32-.62,4.59-.59,8.15-1.7,4.6-1.44,9.64-5.48,7.52-13.52-1.56-5.93-8.39-8.66-13.68-7.26-4.65,1.23-6.41,9.16-14.72,11.12s-18-7.24-25.86-5.41C902.77,424.11,902.06,430.86,903,434.46Z" transform="translate(-138.66)"/><path class="cls-1" d="M966.89,433.47s7.56-3.14,5.35-11.5c-1.45-5.53-8.48-6.91-8.48-6.91s4.68,4.08,5.71,8C970.55,427.15,966.89,433.47,966.89,433.47Z" transform="translate(-138.66)"/><ellipse class="cls-1" cx="923.02" cy="382.46" rx="3.5" ry="2.95" transform="translate(-205.64 247.8) rotate(-14.76)"/><ellipse class="cls-1" cx="918.72" cy="388.91" rx="3.83" ry="3.06" transform="translate(-207.43 246.92) rotate(-14.76)"/><ellipse class="cls-1" cx="916.05" cy="395.95" rx="4.05" ry="3.5" transform="matrix(0.97, -0.25, 0.25, 0.97, -209.31, 246.47)"/><ellipse class="cls-1" cx="915.09" cy="403.89" rx="4.6" ry="3.72" transform="translate(-211.37 246.49) rotate(-14.76)"/><ellipse class="cls-1" cx="916.9" cy="412.92" rx="5.58" ry="4.38" transform="translate(-213.61 247.25) rotate(-14.76)"/><path class="cls-1" d="M921.69,405.77c.95,3.6,4.9,9.13,12.25,7,7.77-2.28,11.64-15.06,19.84-17.45s13.63,3.65,18.29,2.43c5.29-1.4,9.89-7.14,8.33-13.06-2.12-8-8.5-9.08-13.21-8.06-3.65.79-5.61,1.93-7.93,2.54-8,2.12-17.32-1.32-24.52.58C926.7,381.83,918.85,395,921.69,405.77Zm56-21.18c2.05,7.78-5.31,10.78-5.31,10.78s3.61-5.93,2.61-9.73c-1-3.65-5.46-7.4-5.46-7.4S976.31,379.46,977.67,384.59Z" transform="translate(-138.66)"/><ellipse class="cls-1" cx="896.16" cy="333.95" rx="2.14" ry="2.54" transform="matrix(0.3, -0.95, 0.95, 0.3, 169.61, 1088.28)"/><ellipse class="cls-1" cx="893.28" cy="329.14" rx="2.22" ry="2.77" transform="translate(172.19 1082.16) rotate(-72.51)"/><ellipse class="cls-1" cx="891.59" cy="323.95" rx="2.54" ry="2.93" transform="translate(175.95 1076.93) rotate(-72.51)"/><ellipse class="cls-1" cx="891.17" cy="318.17" rx="2.69" ry="3.33" transform="translate(181.17 1072.48) rotate(-72.51)"/><ellipse class="cls-1" cx="892.79" cy="311.7" rx="3.17" ry="4.04" transform="translate(188.47 1069.51) rotate(-72.51)"/><path class="cls-1" d="M896,317c-2.43,7.71,2.79,17.49,8.54,19.3,5.14,1.62,12-.55,17.71,1.26,1.66.53,3,1.42,5.64,2.12,3.37.89,8,.37,9.84-5.38,1.33-4.23-1.8-8.54-5.58-9.73-3.32-1.05-7.46,3.13-13.31,1.12s-8.2-11.38-13.74-13.3C899.86,310.61,896.82,314.47,896,317Z" transform="translate(-138.66)"/><path class="cls-1" d="M935.52,341.12a6.93,6.93,0,0,0,7.72-5c1.24-3.94-2.53-7.51-2.53-7.51s1.29,4.31.41,7.11S935.52,341.12,935.52,341.12Z" transform="translate(-138.66)"/><ellipse class="cls-1" cx="928.36" cy="292.93" rx="2.14" ry="2.54" transform="translate(231.25 1090.3) rotate(-72.51)"/><ellipse class="cls-1" cx="923.24" cy="295.22" rx="2.22" ry="2.77" transform="translate(225.49 1087.01) rotate(-72.51)"/><ellipse class="cls-1" cx="918.88" cy="298.5" rx="2.54" ry="2.93" transform="translate(219.31 1085.15) rotate(-72.51)"/><ellipse class="cls-1" cx="915.22" cy="302.99" rx="2.69" ry="3.33" transform="translate(212.47 1084.81) rotate(-72.51)"/><ellipse class="cls-1" cx="912.84" cy="309.22" rx="3.17" ry="4.04" transform="translate(204.86 1086.89) rotate(-72.51)"/><path class="cls-1" d="M918.54,306.7c-.81,2.57-.53,7.47,4.81,9,5.64,1.6,12.95-4.73,18.89-3s6.94,7.5,10.26,8.55c3.78,1.19,8.81-.54,10.15-4.77,1.81-5.75-1.7-8.85-5-10.05-2.53-.92-4.17-1-5.84-1.5-5.74-1.81-10.09-7.5-15.23-9.12C930.86,294,921,299,918.54,306.7ZM961,315.35c-1.75,5.56-7.42,4.55-7.42,4.55s4.5-2.23,5.36-4.95-.48-6.64-.48-6.64S962.15,311.69,961,315.35Z" transform="translate(-138.66)"/><ellipse class="cls-1" cx="853.37" cy="376.77" rx="1.63" ry="1.93" transform="translate(5.35 982.57) rotate(-64.32)"/><ellipse class="cls-1" cx="851.72" cy="372.83" rx="1.69" ry="2.11" transform="translate(7.96 978.85) rotate(-64.32)"/><ellipse class="cls-1" cx="851.01" cy="368.74" rx="1.93" ry="2.23" transform="translate(11.24 975.9) rotate(-64.32)"/><ellipse class="cls-1" cx="851.32" cy="364.34" rx="2.05" ry="2.53" transform="translate(15.39 973.68) rotate(-64.32)"/><ellipse class="cls-1" cx="853.24" cy="359.65" rx="2.41" ry="3.07" transform="translate(20.71 972.76) rotate(-64.32)"/><path class="cls-1" d="M855.09,364c-2.67,5.54.21,13.48,4.34,15.47,3.69,1.77,9.07.88,13.2,2.87,1.2.57,2.14,1.4,4,2.2,2.44,1,6,1.15,8-3,1.47-3-.42-6.63-3.14-7.93-2.39-1.15-6,1.54-10.15-.6s-5-9.47-8.91-11.51A5.24,5.24,0,0,0,855.09,364Z" transform="translate(-138.66)"/><path class="cls-1" d="M882.24,386.43a5.26,5.26,0,0,0,6.35-2.91c1.37-2.83-1.09-5.93-1.09-5.93S888,381,887,383,882.24,386.43,882.24,386.43Z" transform="translate(-138.66)"/><ellipse class="cls-1" cx="882.07" cy="349.36" rx="1.63" ry="1.93" transform="translate(46.31 992.91) rotate(-64.32)"/><ellipse class="cls-1" cx="877.96" cy="350.53" rx="1.69" ry="2.11" transform="translate(42.93 989.87) rotate(-64.32)"/><ellipse class="cls-1" cx="874.33" cy="352.52" rx="1.93" ry="2.23" transform="translate(39.07 987.72) rotate(-64.32)"/><ellipse class="cls-1" cx="871.08" cy="355.51" rx="2.05" ry="2.53" transform="translate(34.54 986.49) rotate(-64.32)"/><ellipse class="cls-1" cx="868.62" cy="359.95" rx="2.41" ry="3.07" transform="translate(29.15 986.78) rotate(-64.32)"/><path class="cls-1" d="M873.18,358.66a5.24,5.24,0,0,0,2.65,7.3c4.07,1.82,10.27-2.16,14.56-.23s4.41,6.41,6.8,7.56c2.72,1.3,6.7.54,8.16-2.5,2-4.13-.32-6.85-2.66-8.11-1.81-1-3-1.19-4.23-1.76-4.13-2-6.79-6.75-10.49-8.52C883.84,350.41,875.85,353.12,873.18,358.66Zm31.05,11.12a5,5,0,0,1-6.08,2.63s3.63-1.19,4.57-3.15.36-5.05.36-5.05S905.49,367.15,904.23,369.78Z" transform="translate(-138.66)"/><ellipse class="cls-1" cx="851.23" cy="497.59" rx="1.42" ry="1.2" transform="translate(-263.04 354.86) rotate(-21.99)"/><ellipse class="cls-1" cx="848.27" cy="496.54" rx="1.55" ry="1.24" transform="translate(-262.86 353.68) rotate(-21.99)"/><ellipse class="cls-1" cx="845.7" cy="494.9" rx="1.64" ry="1.42" transform="translate(-262.44 352.6) rotate(-21.99)"/><ellipse class="cls-1" cx="843.47" cy="492.56" rx="1.86" ry="1.51" transform="translate(-261.72 351.59) rotate(-21.99)"/><ellipse class="cls-1" cx="841.87" cy="489.19" rx="2.26" ry="1.77" transform="translate(-260.58 350.75) rotate(-21.99)"/><path class="cls-1" d="M845.15,490.35c1.69,4.19,7.42,6.55,10.55,5.29,2.79-1.12,5-4.48,8.08-5.74.91-.37,1.82-.47,3.19-1.1A4.21,4.21,0,0,0,869.3,483a4.56,4.56,0,0,0-5.86-2.22c-1.8.73-2.11,4-5.34,5.21s-7.59-2-10.66-.85A3.85,3.85,0,0,0,845.15,490.35Z" transform="translate(-138.66)"/><path class="cls-1" d="M870.75,486.7a3.86,3.86,0,0,0,1.56-4.89c-.86-2.14-3.75-2.34-3.75-2.34a8.5,8.5,0,0,1,2.7,2.92C871.9,484,870.75,486.7,870.75,486.7Z" transform="translate(-138.66)"/><ellipse class="cls-1" cx="850.54" cy="468.45" rx="1.42" ry="1.2" transform="translate(-252.18 352.49) rotate(-21.99)"/><ellipse class="cls-1" cx="849.15" cy="471.26" rx="1.55" ry="1.24" transform="translate(-253.34 352.17) rotate(-21.99)"/><ellipse class="cls-1" cx="848.43" cy="474.23" rx="1.64" ry="1.42" transform="translate(-254.5 352.12) rotate(-21.99)"/><ellipse class="cls-1" cx="848.45" cy="477.46" rx="1.86" ry="1.51" transform="translate(-255.71 352.36) rotate(-21.99)"/><ellipse class="cls-1" cx="849.64" cy="481" rx="2.26" ry="1.77" transform="translate(-256.95 353.06) rotate(-21.99)"/><path class="cls-1" d="M851.2,477.88a3.84,3.84,0,0,0,5.27,2.17c3-1.31,3.91-6.64,7.08-8s5.65.77,7.46,0c2-.83,3.61-3.37,2.68-5.66a4.2,4.2,0,0,0-5.71-2.57c-1.43.5-2.16,1.06-3.06,1.43-3.12,1.26-7,.35-9.81,1.47C852,468,849.51,473.7,851.2,477.88Zm21.39-11.35a3.68,3.68,0,0,1-1.58,4.6s1.15-2.56.55-4A7.57,7.57,0,0,0,869,464.4S871.79,464.54,872.59,466.53Z" transform="translate(-138.66)"/><ellipse class="cls-1" cx="891.12" cy="257.18" rx="1.49" ry="1.76" transform="translate(-15.66 777.02) rotate(-50.19)"/><ellipse class="cls-1" cx="890.53" cy="253.32" rx="1.54" ry="1.93" transform="translate(-12.91 775.18) rotate(-50.19)"/><ellipse class="cls-1" cx="890.82" cy="249.55" rx="1.76" ry="2.04" transform="translate(-9.9 774.04) rotate(-50.19)"/><ellipse class="cls-1" cx="892.07" cy="245.72" rx="1.87" ry="2.31" transform="translate(-6.51 773.63) rotate(-50.19)"/><ellipse class="cls-1" cx="894.82" cy="241.99" rx="2.2" ry="2.81" transform="translate(-2.66 774.4) rotate(-50.19)"/><path class="cls-1" d="M895.48,246.27c-3.59,4.31-2.82,12,.4,14.66,2.87,2.4,7.84,2.81,11,5.49.93.78,1.58,1.71,3.08,2.85,1.93,1.46,5.06,2.35,7.74-.86,2-2.37,1.1-6-1-7.73-1.86-1.55-5.62,0-8.85-2.79s-2.28-9.49-5.33-12.18A4.78,4.78,0,0,0,895.48,246.27Z" transform="translate(-138.66)"/><path class="cls-1" d="M914.53,272.18a4.82,4.82,0,0,0,6.28-1.16c1.84-2.21.35-5.5.35-5.5s-.3,3.11-1.61,4.68S914.53,272.18,914.53,272.18Z" transform="translate(-138.66)"/><ellipse class="cls-1" cx="922.65" cy="239.31" rx="1.49" ry="1.76" transform="translate(9.41 794.81) rotate(-50.19)"/><ellipse class="cls-1" cx="918.75" cy="239.43" rx="1.54" ry="1.93" transform="translate(7.92 791.86) rotate(-50.19)"/><ellipse class="cls-1" cx="915.08" cy="240.38" rx="1.76" ry="2.04" transform="translate(5.87 789.39) rotate(-50.19)"/><ellipse class="cls-1" cx="911.55" cy="242.31" rx="1.87" ry="2.31" transform="translate(3.11 787.36) rotate(-50.19)"/><ellipse class="cls-1" cx="908.37" cy="245.68" rx="2.2" ry="2.81" transform="translate(-0.62 786.14) rotate(-50.19)"/><path class="cls-1" d="M912.7,245.57a4.78,4.78,0,0,0,.72,7.05c3.2,2.52,9.57.38,12.94,3s2.48,6.66,4.35,8.21c2.11,1.76,5.8,2,7.78-.39,2.68-3.22,1.24-6.14-.55-7.77-1.38-1.27-2.42-1.74-3.36-2.51-3.21-2.68-4.51-7.49-7.38-9.89C924,240.63,916.3,241.25,912.7,245.57Zm25,16.77a4.58,4.58,0,0,1-6,1s3.48-.25,4.75-1.77,1.44-4.4,1.44-4.4S939.43,260.29,937.72,262.34Z" transform="translate(-138.66)"/><ellipse class="cls-1" cx="907.78" cy="554.91" rx="0.77" ry="0.65" transform="translate(-294.81 547.97) rotate(-31.06)"/><ellipse class="cls-1" cx="906.11" cy="554.6" rx="0.84" ry="0.67" transform="translate(-294.89 547.07) rotate(-31.06)"/><ellipse class="cls-1" cx="904.59" cy="553.94" rx="0.89" ry="0.77" transform="translate(-294.77 546.19) rotate(-31.06)"/><ellipse class="cls-1" cx="903.2" cy="552.88" rx="1.01" ry="0.82" transform="translate(-294.42 545.32) rotate(-31.06)"/><ellipse class="cls-1" cx="902.05" cy="551.21" rx="1.22" ry="0.96" transform="translate(-293.72 544.49) rotate(-31.06)"/><path class="cls-1" d="M903.91,551.55c1.26,2.1,4.53,2.87,6.09,1.93,1.4-.84,2.28-2.82,3.84-3.76.45-.28.93-.41,1.61-.86a2.29,2.29,0,0,0,.76-3.31,2.48,2.48,0,0,0-3.33-.69c-.91.55-.79,2.32-2.42,3.25s-4.23-.42-5.77.45A2.08,2.08,0,0,0,903.91,551.55Z" transform="translate(-138.66)"/><path class="cls-1" d="M917.3,547.41a2.1,2.1,0,0,0,.42-2.75,2.53,2.53,0,0,0-2.22-.93,4.59,4.59,0,0,1,1.7,1.33A4,4,0,0,1,917.3,547.41Z" transform="translate(-138.66)"/><ellipse class="cls-1" cx="904.92" cy="539.37" rx="0.77" ry="0.65" transform="translate(-287.2 544.27) rotate(-31.06)"/><ellipse class="cls-1" cx="904.41" cy="540.99" rx="0.84" ry="0.67" transform="translate(-288.11 544.24) rotate(-31.06)"/><ellipse class="cls-1" cx="904.29" cy="542.64" rx="0.89" ry="0.77" transform="translate(-288.98 544.41) rotate(-31.06)"/><ellipse class="cls-1" cx="904.57" cy="544.37" rx="1.01" ry="0.82" transform="translate(-289.83 544.81) rotate(-31.06)"/><ellipse class="cls-1" cx="905.51" cy="546.16" rx="1.22" ry="0.96" transform="translate(-290.62 545.55) rotate(-31.06)"/><path class="cls-1" d="M906.08,544.36a2.08,2.08,0,0,0,3,.71c1.5-1,1.53-3.88,3.11-4.89s3.09-.07,4-.62a2.48,2.48,0,0,0,.95-3.26,2.28,2.28,0,0,0-3.28-.88c-.72.39-1.06.75-1.51,1-1.57.94-3.73.79-5.13,1.63C905.66,539,904.82,542.27,906.08,544.36Zm10.48-7.9a2,2,0,0,1-.46,2.59,3.61,3.61,0,0,0-.05-2.21,4.07,4.07,0,0,0-1.6-1.22S916,535.46,916.56,536.46Z" transform="translate(-138.66)"/><ellipse class="cls-1" cx="878.17" cy="540.46" rx="1.01" ry="0.85" transform="translate(-277.13 368.06) rotate(-21.99)"/><ellipse class="cls-1" cx="876.06" cy="539.7" rx="1.11" ry="0.89" transform="translate(-277 367.22) rotate(-21.99)"/><ellipse class="cls-1" cx="874.22" cy="538.54" rx="1.17" ry="1.01" transform="translate(-276.7 366.45) rotate(-21.99)"/><ellipse class="cls-1" cx="872.62" cy="536.86" rx="1.33" ry="1.08" transform="translate(-276.19 365.73) rotate(-21.99)"/><ellipse class="cls-1" cx="871.48" cy="534.46" rx="1.61" ry="1.26" transform="translate(-275.37 365.12) rotate(-21.99)"/><path class="cls-1" d="M873.83,535.28c1.21,3,5.3,4.69,7.53,3.79,2-.81,3.54-3.21,5.77-4.11.65-.26,1.3-.33,2.28-.78a3,3,0,0,0,1.67-4.15,3.26,3.26,0,0,0-4.19-1.59c-1.29.52-1.51,2.86-3.82,3.73s-5.41-1.43-7.61-.61A2.74,2.74,0,0,0,873.83,535.28Z" transform="translate(-138.66)"/><path class="cls-1" d="M892.11,532.68a2.77,2.77,0,0,0,1.12-3.49c-.62-1.53-2.69-1.68-2.69-1.68a6,6,0,0,1,1.93,2.09C892.93,530.73,892.11,532.68,892.11,532.68Z" transform="translate(-138.66)"/><ellipse class="cls-1" cx="877.68" cy="519.65" rx="1.01" ry="0.85" transform="translate(-269.38 366.37) rotate(-21.99)"/><ellipse class="cls-1" cx="876.68" cy="521.65" rx="1.11" ry="0.89" transform="translate(-270.2 366.14) rotate(-21.99)"/><ellipse class="cls-1" cx="876.17" cy="523.77" rx="1.17" ry="1.01" transform="translate(-271.03 366.1) rotate(-21.99)"/><ellipse class="cls-1" cx="876.18" cy="526.08" rx="1.33" ry="1.08" transform="translate(-271.89 366.28) rotate(-21.99)"/><ellipse class="cls-1" cx="877.03" cy="528.6" rx="1.61" ry="1.26" transform="translate(-272.78 366.78) rotate(-21.99)"/><path class="cls-1" d="M878.15,526.38a2.74,2.74,0,0,0,3.76,1.55c2.14-.94,2.79-4.74,5.05-5.72s4,.55,5.34,0a3.27,3.27,0,0,0,1.91-4,3,3,0,0,0-4.08-1.83c-1,.36-1.54.76-2.18,1-2.23.9-5,.25-7,1C878.71,519.33,876.94,523.39,878.15,526.38Zm15.27-8.11a2.63,2.63,0,0,1-1.13,3.29s.82-1.83.4-2.89a5.46,5.46,0,0,0-1.84-1.92S892.85,516.85,893.42,518.27Z" transform="translate(-138.66)"/><ellipse class="cls-1" cx="932.71" cy="1072.97" rx="1.73" ry="1.46" transform="translate(-508.44 503.12) rotate(-25.37)"/><ellipse class="cls-1" cx="929.04" cy="1071.9" rx="1.89" ry="1.51" transform="translate(-508.34 501.45) rotate(-25.37)"/><ellipse class="cls-1" cx="925.79" cy="1070.1" rx="2" ry="1.73" transform="translate(-507.88 499.88) rotate(-25.37)"/><ellipse class="cls-1" cx="922.9" cy="1067.41" rx="2.27" ry="1.84" transform="translate(-507 498.38) rotate(-25.37)"/><ellipse class="cls-1" cx="920.71" cy="1063.42" rx="2.75" ry="2.16" transform="translate(-505.51 497.06) rotate(-25.37)"/><path class="cls-1" d="M924.8,1064.6c2.35,5,9.5,7.44,13.21,5.68,3.32-1.57,5.72-5.82,9.43-7.58,1.07-.51,2.18-.7,3.8-1.56,2.1-1.12,4.18-3.54,2.42-7.25-1.29-2.73-4.85-3.43-7.29-2.27-2.15,1-2.28,5-6.13,6.73s-9.38-1.88-13-.27A4.69,4.69,0,0,0,924.8,1064.6Z" transform="translate(-138.66)"/><path class="cls-1" d="M955.69,1058.31a4.73,4.73,0,0,0,1.55-6.07c-1.2-2.54-4.74-2.58-4.74-2.58s2.64,1.56,3.5,3.37S955.69,1058.31,955.69,1058.31Z" transform="translate(-138.66)"/><ellipse class="cls-1" cx="929.78" cy="1037.55" rx="1.73" ry="1.46" transform="translate(-493.55 498.45) rotate(-25.37)"/><ellipse class="cls-1" cx="928.28" cy="1041.07" rx="1.89" ry="1.51" transform="translate(-495.2 498.15) rotate(-25.37)"/><ellipse class="cls-1" cx="927.62" cy="1044.73" rx="2" ry="1.73" transform="translate(-496.83 498.22) rotate(-25.37)"/><ellipse class="cls-1" cx="927.88" cy="1048.67" rx="2.27" ry="1.84" transform="translate(-498.5 498.71) rotate(-25.37)"/><ellipse class="cls-1" cx="929.58" cy="1052.89" rx="2.75" ry="2.16" transform="translate(-500.14 499.84) rotate(-25.37)"/><path class="cls-1" d="M931.25,1049a4.71,4.71,0,0,0,6.58,2.27c3.56-1.82,4.28-8.37,8-10.27s6.95.53,9.09-.49c2.44-1.15,4.15-4.35,2.86-7.09-1.76-3.7-4.95-3.62-7.14-2.7-1.7.71-2.54,1.44-3.62,2-3.71,1.76-8.52.93-11.84,2.51C931.51,1036.91,928.9,1044,931.25,1049Zm25.23-15.36a4.48,4.48,0,0,1-1.6,5.71s1.22-3.2.38-4.95-3.31-3.1-3.31-3.1S955.36,1031.26,956.48,1033.62Z" transform="translate(-138.66)"/><ellipse class="cls-1" cx="915.56" cy="1015.8" rx="3.5" ry="2.95" transform="translate(-367.26 266.8) rotate(-14.76)"/><ellipse class="cls-1" cx="908.64" cy="1012.31" rx="3.83" ry="3.06" transform="translate(-366.6 264.92) rotate(-14.76)"/><ellipse class="cls-1" cx="902.85" cy="1007.5" rx="4.05" ry="3.5" transform="translate(-365.56 263.29) rotate(-14.76)"/><ellipse class="cls-1" cx="898.09" cy="1001.05" rx="4.6" ry="3.72" transform="translate(-364.08 261.86) rotate(-14.76)"/><ellipse class="cls-1" cx="895.22" cy="992.31" rx="5.58" ry="4.38" transform="translate(-361.95 260.84) rotate(-14.76)"/><path class="cls-1" d="M902.92,996.16c2.84,10.8,16.15,18.38,24.19,16.26,7.2-1.9,13.57-9.46,21.62-11.58,2.33-.61,4.59-.59,8.15-1.7,4.6-1.43,9.64-5.48,7.53-13.52-1.57-5.93-8.39-8.65-13.68-7.26-4.66,1.23-6.42,9.16-14.73,11.12s-18-7.24-25.86-5.4C902.68,985.82,902,992.57,902.92,996.16Z" transform="translate(-138.66)"/><path class="cls-1" d="M966.81,995.17s7.55-3.13,5.35-11.5c-1.46-5.52-8.49-6.91-8.49-6.91s4.68,4.08,5.71,8C970.46,988.86,966.81,995.17,966.81,995.17Z" transform="translate(-138.66)"/><ellipse class="cls-1" cx="922.93" cy="944.16" rx="3.5" ry="2.95" transform="translate(-348.76 266.32) rotate(-14.76)"/><ellipse class="cls-1" cx="918.63" cy="950.61" rx="3.83" ry="3.06" transform="translate(-350.55 265.43) rotate(-14.76)"/><ellipse class="cls-1" cx="915.96" cy="957.65" rx="4.05" ry="3.5" transform="translate(-352.43 264.98) rotate(-14.76)"/><ellipse class="cls-1" cx="915" cy="965.6" rx="4.6" ry="3.72" transform="translate(-354.49 265) rotate(-14.76)"/><ellipse class="cls-1" cx="916.81" cy="974.62" rx="5.58" ry="4.38" transform="translate(-356.73 265.76) rotate(-14.76)"/><path class="cls-1" d="M921.61,967.48c.94,3.59,4.89,9.12,12.24,6.95,7.77-2.28,11.65-15.06,19.84-17.44s13.64,3.65,18.29,2.42c5.29-1.39,9.89-7.13,8.33-13.06-2.12-8-8.5-9.07-13.21-8.06-3.64.79-5.6,1.93-7.93,2.54-8,2.12-17.32-1.32-24.52.58C926.61,943.53,918.76,956.69,921.61,967.48Zm56-21.19c2,7.78-5.31,10.78-5.31,10.78s3.61-5.92,2.61-9.73c-1-3.65-5.46-7.4-5.46-7.4S976.23,941.16,977.58,946.29Z" transform="translate(-138.66)"/><ellipse class="cls-1" cx="896.08" cy="895.65" rx="2.14" ry="2.54" transform="translate(-366.17 1481.05) rotate(-72.51)"/><ellipse class="cls-1" cx="893.19" cy="890.84" rx="2.22" ry="2.77" transform="translate(-363.6 1474.93) rotate(-72.51)"/><ellipse class="cls-1" cx="891.5" cy="885.65" rx="2.54" ry="2.93" transform="matrix(0.3, -0.95, 0.95, 0.3, -359.84, 1469.7)"/><ellipse class="cls-1" cx="891.08" cy="879.87" rx="2.69" ry="3.33" transform="translate(-354.62 1465.25) rotate(-72.51)"/><ellipse class="cls-1" cx="892.7" cy="873.41" rx="3.17" ry="4.04" transform="translate(-347.32 1462.28) rotate(-72.51)"/><path class="cls-1" d="M895.92,878.74c-2.43,7.71,2.8,17.49,8.54,19.3,5.14,1.62,12-.54,17.71,1.27,1.66.52,3,1.41,5.64,2.11,3.38.9,8,.37,9.84-5.37,1.33-4.24-1.8-8.54-5.57-9.73-3.33-1.05-7.47,3.12-13.31,1.12s-8.21-11.39-13.75-13.31C899.78,872.31,896.73,876.17,895.92,878.74Z" transform="translate(-138.66)"/><path class="cls-1" d="M935.43,902.82a6.93,6.93,0,0,0,7.72-5c1.24-4-2.53-7.51-2.53-7.51s1.29,4.3.41,7.1S935.43,902.82,935.43,902.82Z" transform="translate(-138.66)"/><ellipse class="cls-1" cx="928.27" cy="854.63" rx="2.14" ry="2.54" transform="translate(-304.53 1483.07) rotate(-72.51)"/><ellipse class="cls-1" cx="923.15" cy="856.92" rx="2.22" ry="2.77" transform="translate(-310.3 1479.79) rotate(-72.51)"/><ellipse class="cls-1" cx="918.79" cy="860.2" rx="2.54" ry="2.93" transform="translate(-316.47 1477.92) rotate(-72.51)"/><ellipse class="cls-1" cx="915.13" cy="864.7" rx="2.69" ry="3.33" transform="translate(-323.32 1477.58) rotate(-72.51)"/><ellipse class="cls-1" cx="912.76" cy="870.92" rx="3.17" ry="4.04" transform="translate(-330.92 1479.67) rotate(-72.51)"/><path class="cls-1" d="M918.45,868.4c-.81,2.57-.53,7.47,4.81,9,5.64,1.6,13-4.72,18.89-3s6.94,7.51,10.27,8.55c3.77,1.2,8.81-.54,10.14-4.77,1.81-5.75-1.7-8.84-5-10-2.53-.93-4.17-1-5.83-1.51-5.75-1.81-10.1-7.5-15.24-9.12C930.77,855.67,920.88,860.69,918.45,868.4Zm42.46,8.65c-1.75,5.56-7.41,4.55-7.41,4.55s4.5-2.23,5.35-5-.48-6.63-.48-6.63S962.07,873.39,960.91,877.05Z" transform="translate(-138.66)"/><ellipse class="cls-1" cx="853.28" cy="938.47" rx="1.63" ry="1.93" transform="translate(-500.92 1300.78) rotate(-64.32)"/><ellipse class="cls-1" cx="851.63" cy="934.53" rx="1.69" ry="2.11" transform="translate(-498.31 1297.06) rotate(-64.32)"/><ellipse class="cls-1" cx="850.92" cy="930.44" rx="1.93" ry="2.23" transform="translate(-495.03 1294.11) rotate(-64.32)"/><ellipse class="cls-1" cx="851.23" cy="926.04" rx="2.05" ry="2.53" transform="translate(-490.88 1291.89) rotate(-64.32)"/><ellipse class="cls-1" cx="853.15" cy="921.35" rx="2.41" ry="3.07" transform="translate(-485.56 1290.96) rotate(-64.32)"/><path class="cls-1" d="M855,925.72c-2.66,5.54.21,13.47,4.34,15.46,3.69,1.78,9.07.88,13.2,2.87,1.2.58,2.14,1.4,4,2.2,2.44,1,6,1.15,8-3,1.46-3-.43-6.63-3.15-7.93-2.39-1.15-6,1.55-10.14-.6s-4.95-9.46-8.92-11.51A5.24,5.24,0,0,0,855,925.72Z" transform="translate(-138.66)"/><path class="cls-1" d="M882.15,948.14a5.27,5.27,0,0,0,6.35-2.92c1.37-2.83-1.09-5.93-1.09-5.93s.51,3.39-.46,5.4S882.15,948.14,882.15,948.14Z" transform="translate(-138.66)"/><ellipse class="cls-1" cx="881.98" cy="911.06" rx="1.63" ry="1.93" transform="translate(-459.96 1311.12) rotate(-64.32)"/><ellipse class="cls-1" cx="877.88" cy="912.23" rx="1.69" ry="2.11" transform="translate(-463.34 1308.08) rotate(-64.32)"/><ellipse class="cls-1" cx="874.24" cy="914.23" rx="1.93" ry="2.23" transform="translate(-467.2 1305.93) rotate(-64.32)"/><ellipse class="cls-1" cx="871" cy="917.22" rx="2.05" ry="2.53" transform="translate(-471.73 1304.7) rotate(-64.32)"/><ellipse class="cls-1" cx="868.53" cy="921.65" rx="2.41" ry="3.07" transform="translate(-477.12 1304.99) rotate(-64.32)"/><path class="cls-1" d="M873.09,920.37a5.25,5.25,0,0,0,2.65,7.29c4.08,1.82,10.27-2.15,14.56-.22s4.41,6.4,6.8,7.55c2.72,1.3,6.7.54,8.16-2.5,2-4.13-.32-6.84-2.66-8.1-1.81-1-3-1.2-4.23-1.77-4.13-2-6.79-6.75-10.49-8.52C883.75,912.11,875.76,914.82,873.09,920.37Zm31,11.12a5,5,0,0,1-6.08,2.62s3.63-1.19,4.57-3.15.36-5.05.36-5.05S905.41,928.85,904.14,931.49Z" transform="translate(-138.66)"/><ellipse class="cls-1" cx="851.14" cy="1059.29" rx="1.42" ry="1.2" transform="translate(-473.33 395.68) rotate(-21.99)"/><ellipse class="cls-1" cx="848.19" cy="1058.24" rx="1.55" ry="1.24" transform="translate(-473.16 394.49) rotate(-21.99)"/><ellipse class="cls-1" cx="845.62" cy="1056.61" rx="1.64" ry="1.42" transform="translate(-472.73 393.41) rotate(-21.99)"/><ellipse class="cls-1" cx="843.38" cy="1054.26" rx="1.86" ry="1.51" transform="translate(-472.01 392.4) rotate(-21.99)"/><ellipse class="cls-1" cx="841.78" cy="1050.9" rx="2.26" ry="1.77" transform="translate(-470.87 391.56) rotate(-21.99)"/><path class="cls-1" d="M845.07,1052.05c1.69,4.19,7.42,6.56,10.54,5.3,2.79-1.13,5-4.49,8.09-5.75.9-.37,1.81-.47,3.18-1.1a4.2,4.2,0,0,0,2.33-5.81c-.92-2.3-3.8-3-5.86-2.22-1.8.73-2.1,4-5.34,5.22s-7.59-2-10.66-.86A3.84,3.84,0,0,0,845.07,1052.05Z" transform="translate(-138.66)"/><path class="cls-1" d="M870.66,1048.4a3.87,3.87,0,0,0,1.57-4.89c-.87-2.14-3.76-2.34-3.76-2.34a8.4,8.4,0,0,1,2.7,2.92C871.81,1045.68,870.66,1048.4,870.66,1048.4Z" transform="translate(-138.66)"/><ellipse class="cls-1" cx="850.46" cy="1030.16" rx="1.42" ry="1.2" transform="translate(-462.48 393.3) rotate(-21.99)"/><ellipse class="cls-1" cx="849.06" cy="1032.97" rx="1.55" ry="1.24" transform="translate(-463.63 392.98) rotate(-21.99)"/><ellipse class="cls-1" cx="848.34" cy="1035.93" rx="1.64" ry="1.42" transform="translate(-464.79 392.93) rotate(-21.99)"/><ellipse class="cls-1" cx="848.36" cy="1039.17" rx="1.86" ry="1.51" transform="translate(-466 393.17) rotate(-21.99)"/><ellipse class="cls-1" cx="849.55" cy="1042.7" rx="2.26" ry="1.77" transform="translate(-467.24 393.87) rotate(-21.99)"/><path class="cls-1" d="M851.11,1039.59a3.85,3.85,0,0,0,5.27,2.17c3-1.32,3.91-6.64,7.08-8s5.66.77,7.46,0a4.55,4.55,0,0,0,2.68-5.66,4.22,4.22,0,0,0-5.71-2.57c-1.43.51-2.15,1.06-3.06,1.43-3.12,1.26-7,.35-9.81,1.48C851.9,1029.72,849.42,1035.4,851.11,1039.59Zm21.39-11.36a3.68,3.68,0,0,1-1.58,4.6s1.15-2.56.55-4a7.67,7.67,0,0,0-2.56-2.69S871.7,1026.24,872.5,1028.23Z" transform="translate(-138.66)"/><ellipse class="cls-1" cx="891.03" cy="818.88" rx="1.49" ry="1.76" transform="translate(-447.16 979.01) rotate(-50.19)"/><ellipse class="cls-1" cx="890.45" cy="815.03" rx="1.54" ry="1.93" transform="translate(-444.41 977.17) rotate(-50.19)"/><ellipse class="cls-1" cx="890.73" cy="811.25" rx="1.76" ry="2.04" transform="translate(-441.4 976.03) rotate(-50.19)"/><ellipse class="cls-1" cx="891.98" cy="807.42" rx="1.87" ry="2.31" transform="translate(-438.01 975.62) rotate(-50.19)"/><ellipse class="cls-1" cx="894.73" cy="803.69" rx="2.2" ry="2.81" transform="translate(-434.16 976.39) rotate(-50.19)"/><path class="cls-1" d="M895.4,808c-3.6,4.32-2.83,12,.39,14.67,2.88,2.39,7.84,2.8,11.05,5.48.93.78,1.58,1.72,3.08,2.85,1.93,1.47,5.06,2.36,7.74-.86,2-2.37,1.1-6-1-7.73-1.86-1.55-5.62,0-8.85-2.79s-2.27-9.48-5.33-12.18A4.78,4.78,0,0,0,895.4,808Z" transform="translate(-138.66)"/><path class="cls-1" d="M914.44,833.88a4.81,4.81,0,0,0,6.28-1.16c1.84-2.21.36-5.49.36-5.49s-.31,3.11-1.62,4.67S914.44,833.88,914.44,833.88Z" transform="translate(-138.66)"/><ellipse class="cls-1" cx="922.56" cy="801.01" rx="1.49" ry="1.76" transform="translate(-422.08 996.8) rotate(-50.19)"/><ellipse class="cls-1" cx="918.66" cy="801.13" rx="1.54" ry="1.93" transform="translate(-423.58 993.85) rotate(-50.19)"/><ellipse class="cls-1" cx="915" cy="802.09" rx="1.76" ry="2.04" transform="translate(-425.63 991.37) rotate(-50.19)"/><ellipse class="cls-1" cx="911.46" cy="804.01" rx="1.87" ry="2.31" transform="translate(-428.38 989.35) rotate(-50.19)"/><ellipse class="cls-1" cx="908.28" cy="807.39" rx="2.2" ry="2.81" transform="matrix(0.64, -0.77, 0.77, 0.64, -432.12, 988.12)"/><path class="cls-1" d="M912.61,807.27a4.78,4.78,0,0,0,.72,7.05c3.21,2.52,9.58.38,12.95,3s2.48,6.65,4.34,8.2c2.11,1.77,5.81,2,7.78-.39,2.68-3.22,1.24-6.13-.55-7.77-1.38-1.27-2.42-1.74-3.35-2.51-3.22-2.68-4.51-7.49-7.39-9.89C923.89,802.33,916.21,803,912.61,807.27Zm25,16.77a4.58,4.58,0,0,1-6,1s3.48-.25,4.75-1.77,1.44-4.4,1.44-4.4S939.34,822,937.63,824Z" transform="translate(-138.66)"/><ellipse class="cls-1" cx="898.69" cy="1066.61" rx="0.77" ry="0.65" transform="translate(-560.14 616.66) rotate(-31.06)"/><ellipse class="cls-1" cx="897.02" cy="1066.3" rx="0.84" ry="0.67" transform="translate(-560.22 615.75) rotate(-31.06)"/><ellipse class="cls-1" cx="895.51" cy="1065.64" rx="0.89" ry="0.77" transform="translate(-560.1 614.88) rotate(-31.06)"/><ellipse class="cls-1" cx="894.11" cy="1064.58" rx="1.01" ry="0.82" transform="translate(-559.75 614.01) rotate(-31.06)"/><ellipse class="cls-1" cx="892.97" cy="1062.92" rx="1.22" ry="0.96" transform="translate(-559.05 613.18) rotate(-31.06)"/><path class="cls-1" d="M894.82,1063.25c1.27,2.1,4.53,2.88,6.1,1.94,1.39-.85,2.27-2.83,3.83-3.77.46-.27.94-.41,1.62-.86a2.28,2.28,0,0,0,.75-3.31,2.48,2.48,0,0,0-3.33-.69c-.9.55-.79,2.33-2.41,3.25s-4.23-.42-5.78.46A2.08,2.08,0,0,0,894.82,1063.25Z" transform="translate(-138.66)"/><path class="cls-1" d="M908.21,1059.11a2.09,2.09,0,0,0,.42-2.75,2.51,2.51,0,0,0-2.21-.93,4.58,4.58,0,0,1,1.69,1.33A4,4,0,0,1,908.21,1059.11Z" transform="translate(-138.66)"/><ellipse class="cls-1" cx="895.83" cy="1051.07" rx="0.77" ry="0.65" transform="translate(-552.53 612.96) rotate(-31.06)"/><ellipse class="cls-1" cx="895.33" cy="1052.7" rx="0.84" ry="0.67" transform="translate(-553.44 612.93) rotate(-31.06)"/><ellipse class="cls-1" cx="895.2" cy="1054.34" rx="0.89" ry="0.77" transform="translate(-554.31 613.1) rotate(-31.06)"/><ellipse class="cls-1" cx="895.48" cy="1056.08" rx="1.01" ry="0.82" transform="translate(-555.16 613.5) rotate(-31.06)"/><ellipse class="cls-1" cx="896.42" cy="1057.86" rx="1.22" ry="0.96" transform="translate(-555.95 614.24) rotate(-31.06)"/><path class="cls-1" d="M897,1056.06a2.09,2.09,0,0,0,3,.72c1.49-1,1.52-3.89,3.1-4.9s3.09-.07,4-.61a2.49,2.49,0,0,0,.95-3.27,2.29,2.29,0,0,0-3.28-.88c-.72.39-1.06.75-1.51,1-1.57.95-3.73.79-5.13,1.63C896.57,1050.72,895.73,1054,897,1056.06Zm10.48-7.9a2,2,0,0,1-.45,2.59,3.66,3.66,0,0,0,0-2.2,4.21,4.21,0,0,0-1.61-1.23S906.87,1047.16,907.47,1048.16Z" transform="translate(-138.66)"/><ellipse class="cls-1" cx="852.78" cy="987.54" rx="0.85" ry="1.01" transform="translate(-360.63 1727.4) rotate(-83.73)"/><ellipse class="cls-1" cx="851.28" cy="985.88" rx="0.89" ry="1.11" transform="translate(-360.32 1724.43) rotate(-83.73)"/><ellipse class="cls-1" cx="850.21" cy="983.98" rx="1.01" ry="1.17" transform="translate(-359.38 1721.68) rotate(-83.73)"/><ellipse class="cls-1" cx="849.6" cy="981.75" rx="1.08" ry="1.33" transform="translate(-357.71 1719.08) rotate(-83.73)"/><ellipse class="cls-1" cx="849.73" cy="979.1" rx="1.26" ry="1.61" transform="translate(-354.95 1716.85) rotate(-83.73)"/><path class="cls-1" d="M851.41,980.93c-.35,3.21,2.45,6.64,4.84,6.9,2.14.23,4.64-1.15,7-.88.69.07,1.3.31,2.38.38a3,3,0,0,0,3.43-2.86,3.27,3.27,0,0,0-2.94-3.38c-1.38-.15-2.68,1.8-5.12,1.47s-4.1-3.82-6.42-4.14A2.74,2.74,0,0,0,851.41,980.93Z" transform="translate(-138.66)"/><path class="cls-1" d="M868.75,987.29a2.76,2.76,0,0,0,2.63-2.55c.18-1.64-1.57-2.74-1.57-2.74a6,6,0,0,1,.71,2.75C870.39,986,868.75,987.29,868.75,987.29Z" transform="translate(-138.66)"/><ellipse class="cls-1" cx="862.2" cy="968.98" rx="0.85" ry="1.01" transform="translate(-333.79 1720.23) rotate(-83.73)"/><ellipse class="cls-1" cx="860.37" cy="970.27" rx="0.89" ry="1.11" transform="translate(-336.7 1719.57) rotate(-83.73)"/><ellipse class="cls-1" cx="858.92" cy="971.9" rx="1.01" ry="1.17" transform="translate(-339.61 1719.57) rotate(-83.73)"/><ellipse class="cls-1" cx="857.84" cy="973.94" rx="1.08" ry="1.33" transform="translate(-342.6 1720.31) rotate(-83.73)"/><ellipse class="cls-1" cx="857.39" cy="976.56" rx="1.26" ry="1.61" transform="translate(-345.61 1722.2) rotate(-83.73)"/><path class="cls-1" d="M859.42,975.13a2.76,2.76,0,0,0,2.59,3.15c2.33.19,4.7-2.86,7.16-2.65s3.3,2.4,4.68,2.55a3.26,3.26,0,0,0,3.6-2.66,3,3,0,0,0-2.73-3.54c-1.06-.17-1.71-.06-2.4-.14-2.39-.26-4.53-2.15-6.67-2.39C863.26,969.19,859.78,971.93,859.42,975.13Zm17.3.09a2.63,2.63,0,0,1-2.55,2.36s1.59-1.22,1.71-2.35a5.48,5.48,0,0,0-.7-2.57S876.89,973.7,876.72,975.22Z" transform="translate(-138.66)"/><g id="White_foots" data-name="White foots"><ellipse class="cls-1" cx="982.69" cy="560.34" rx="1.73" ry="1.46" transform="translate(-283.97 475.1) rotate(-25.37)"/><ellipse class="cls-1" cx="986.37" cy="561.41" rx="1.89" ry="1.51" transform="translate(-284.08 476.78) rotate(-25.37)"/><ellipse class="cls-1" cx="989.61" cy="563.21" rx="2" ry="1.73" transform="translate(-284.54 478.34) rotate(-25.37)"/><ellipse class="cls-1" cx="992.5" cy="565.91" rx="2.27" ry="1.84" transform="translate(-285.41 479.84) rotate(-25.37)"/><ellipse class="cls-1" cx="994.69" cy="569.89" rx="2.75" ry="2.16" transform="translate(-286.91 481.16) rotate(-25.37)"/><path class="cls-1" d="M990.61,568.72c-2.36-5-9.5-7.45-13.21-5.69-3.32,1.57-5.73,5.82-9.43,7.58-1.08.51-2.18.7-3.8,1.56-2.1,1.12-4.18,3.54-2.43,7.25,1.3,2.73,4.86,3.43,7.3,2.27,2.15-1,2.28-5,6.13-6.73s9.38,1.88,13,.28A4.69,4.69,0,0,0,990.61,568.72Z" transform="translate(-138.66)"/><path class="cls-1" d="M959.71,575a4.73,4.73,0,0,0-1.55,6.07c1.21,2.54,4.75,2.58,4.75,2.58s-2.64-1.56-3.5-3.36S959.71,575,959.71,575Z" transform="translate(-138.66)"/><ellipse class="cls-1" cx="985.63" cy="595.76" rx="1.73" ry="1.46" transform="translate(-298.87 479.77) rotate(-25.37)"/><ellipse class="cls-1" cx="987.13" cy="592.24" rx="1.89" ry="1.51" transform="translate(-297.22 480.07) rotate(-25.37)"/><ellipse class="cls-1" cx="987.78" cy="588.58" rx="2" ry="1.73" transform="translate(-295.58 480) rotate(-25.37)"/><ellipse class="cls-1" cx="987.53" cy="584.64" rx="2.27" ry="1.84" transform="translate(-293.92 479.51) rotate(-25.37)"/><ellipse class="cls-1" cx="985.83" cy="580.43" rx="2.75" ry="2.16" transform="translate(-292.28 478.38) rotate(-25.37)"/><path class="cls-1" d="M984.15,584.33a4.69,4.69,0,0,0-6.57-2.26c-3.56,1.81-4.28,8.36-8,10.26s-6.94-.53-9.09.49c-2.44,1.15-4.15,4.36-2.85,7.09,1.76,3.71,4.95,3.63,7.14,2.71,1.69-.72,2.54-1.45,3.61-2,3.71-1.76,8.52-.93,11.84-2.5C983.9,596.4,986.51,589.3,984.15,584.33Zm-25.22,15.36a4.48,4.48,0,0,1,1.59-5.71s-1.21,3.2-.38,5,3.32,3.09,3.32,3.09S960.05,602.05,958.93,599.69Z" transform="translate(-138.66)"/><ellipse class="cls-1" cx="999.85" cy="617.51" rx="3.5" ry="2.95" transform="translate(-263 275.13) rotate(-14.76)"/><ellipse class="cls-1" cx="1006.77" cy="621" rx="3.83" ry="3.06" transform="translate(-263.66 277.01) rotate(-14.76)"/><ellipse class="cls-1" cx="1012.56" cy="625.81" rx="4.05" ry="3.5" transform="translate(-264.69 278.64) rotate(-14.76)"/><ellipse class="cls-1" cx="1017.31" cy="632.26" rx="4.6" ry="3.72" transform="translate(-266.18 280.07) rotate(-14.76)"/><ellipse class="cls-1" cx="1020.18" cy="641" rx="5.58" ry="4.38" transform="matrix(0.97, -0.25, 0.25, 0.97, -268.31, 281.09)"/><path class="cls-1" d="M1012.49,637.15c-2.84-10.79-16.16-18.38-24.2-16.26-7.19,1.9-13.57,9.46-21.61,11.58-2.33.62-4.6.59-8.15,1.7-4.6,1.44-9.65,5.48-7.53,13.52,1.56,5.93,8.39,8.65,13.68,7.26,4.66-1.23,6.41-9.16,14.72-11.12s18,7.24,25.87,5.4C1012.73,647.5,1013.44,640.75,1012.49,637.15Z" transform="translate(-138.66)"/><path class="cls-1" d="M948.6,638.14s-7.56,3.13-5.35,11.5c1.45,5.52,8.49,6.91,8.49,6.91s-4.69-4.08-5.72-8C944.94,644.45,948.6,638.14,948.6,638.14Z" transform="translate(-138.66)"/><ellipse class="cls-1" cx="992.47" cy="689.15" rx="3.5" ry="2.95" transform="translate(-281.49 275.62) rotate(-14.76)"/><ellipse class="cls-1" cx="996.77" cy="682.7" rx="3.83" ry="3.06" transform="translate(-279.71 276.5) rotate(-14.76)"/><ellipse class="cls-1" cx="999.44" cy="675.66" rx="4.05" ry="3.5" transform="matrix(0.97, -0.25, 0.25, 0.97, -277.83, 276.95)"/><ellipse class="cls-1" cx="1000.4" cy="667.71" rx="4.6" ry="3.72" transform="matrix(0.97, -0.25, 0.25, 0.97, -275.77, 276.93)"/><ellipse class="cls-1" cx="998.59" cy="658.69" rx="5.58" ry="4.38" transform="translate(-273.53 276.17) rotate(-14.76)"/><path class="cls-1" d="M993.8,665.83c-.95-3.59-4.89-9.12-12.24-7-7.78,2.28-11.65,15.06-19.85,17.45s-13.63-3.65-18.29-2.43c-5.29,1.4-9.89,7.13-8.32,13.06,2.12,8,8.5,9.07,13.21,8.06,3.64-.79,5.6-1.93,7.93-2.54,8-2.12,17.32,1.32,24.51-.58C988.79,689.78,996.64,676.63,993.8,665.83Zm-56,21.19c-2.05-7.78,5.3-10.78,5.3-10.78s-3.61,5.93-2.61,9.73c1,3.65,5.46,7.4,5.46,7.4S939.18,692.15,937.83,687Z" transform="translate(-138.66)"/><ellipse class="cls-1" cx="1019.33" cy="737.66" rx="2.14" ry="2.54" transform="translate(-129.29 1488.11) rotate(-72.51)"/><ellipse class="cls-1" cx="1022.22" cy="742.47" rx="2.22" ry="2.77" transform="translate(-131.86 1494.22) rotate(-72.51)"/><ellipse class="cls-1" cx="1023.9" cy="747.66" rx="2.54" ry="2.93" transform="translate(-135.62 1499.46) rotate(-72.51)"/><ellipse class="cls-1" cx="1024.32" cy="753.44" rx="2.69" ry="3.33" transform="translate(-140.84 1503.9) rotate(-72.51)"/><ellipse class="cls-1" cx="1022.7" cy="759.9" rx="3.17" ry="4.04" transform="translate(-148.14 1506.88) rotate(-72.51)"/><path class="cls-1" d="M1019.48,754.57c2.43-7.71-2.79-17.49-8.53-19.3-5.14-1.62-12,.55-17.71-1.26-1.66-.53-3-1.42-5.65-2.12-3.37-.89-8-.37-9.83,5.38-1.34,4.23,1.79,8.54,5.57,9.73,3.32,1,7.46-3.13,13.31-1.12s8.21,11.38,13.75,13.3C1015.63,761,1018.67,757.14,1019.48,754.57Z" transform="translate(-138.66)"/><path class="cls-1" d="M980,730.49a6.93,6.93,0,0,0-7.72,5c-1.24,3.94,2.53,7.5,2.53,7.5s-1.3-4.3-.41-7.1S980,730.49,980,730.49Z" transform="translate(-138.66)"/><ellipse class="cls-1" cx="987.13" cy="778.68" rx="2.14" ry="2.54" transform="matrix(0.3, -0.95, 0.95, 0.3, -190.93, 1486.08)"/><ellipse class="cls-1" cx="992.26" cy="776.39" rx="2.22" ry="2.77" transform="translate(-185.16 1489.37) rotate(-72.51)"/><ellipse class="cls-1" cx="996.61" cy="773.11" rx="2.54" ry="2.93" transform="translate(-178.99 1491.23) rotate(-72.51)"/><ellipse class="cls-1" cx="1000.27" cy="768.62" rx="2.69" ry="3.33" transform="translate(-172.14 1491.58) rotate(-72.51)"/><ellipse class="cls-1" cx="1002.65" cy="762.39" rx="3.17" ry="4.04" transform="translate(-164.54 1489.49) rotate(-72.51)"/><path class="cls-1" d="M997,764.91c.81-2.57.53-7.47-4.81-9-5.64-1.6-12.95,4.72-18.89,3s-6.94-7.51-10.26-8.55c-3.78-1.19-8.81.54-10.14,4.77-1.81,5.75,1.69,8.85,5,10,2.54.93,4.18,1,5.84,1.51,5.74,1.81,10.09,7.5,15.23,9.12C984.63,777.64,994.52,772.62,997,764.91Zm-42.46-8.65c1.76-5.56,7.42-4.55,7.42-4.55s-4.5,2.23-5.36,4.95.48,6.64.48,6.64S953.34,759.92,954.49,756.26Z" transform="translate(-138.66)"/><ellipse class="cls-1" cx="1062.12" cy="694.84" rx="1.63" ry="1.93" transform="translate(-163.02 1350.94) rotate(-64.32)"/><ellipse class="cls-1" cx="1063.77" cy="698.78" rx="1.69" ry="2.11" transform="translate(-165.63 1354.66) rotate(-64.32)"/><ellipse class="cls-1" cx="1064.48" cy="702.87" rx="1.93" ry="2.23" transform="translate(-168.92 1357.62) rotate(-64.32)"/><ellipse class="cls-1" cx="1064.17" cy="707.27" rx="2.05" ry="2.53" transform="translate(-173.06 1359.83) rotate(-64.32)"/><ellipse class="cls-1" cx="1062.25" cy="711.96" rx="2.41" ry="3.07" transform="translate(-178.38 1360.76) rotate(-64.32)"/><path class="cls-1" d="M1060.4,707.6c2.67-5.55-.2-13.48-4.33-15.47-3.7-1.78-9.08-.88-13.21-2.87-1.19-.57-2.13-1.4-4-2.2-2.44-1-6-1.15-8,3-1.46,3,.42,6.63,3.14,7.93,2.39,1.15,6-1.55,10.15.6s4.95,9.46,8.91,11.51A5.24,5.24,0,0,0,1060.4,707.6Z" transform="translate(-138.66)"/><path class="cls-1" d="M1033.26,685.18a5.27,5.27,0,0,0-6.36,2.91c-1.36,2.83,1.09,5.93,1.09,5.93s-.5-3.39.46-5.4S1033.26,685.18,1033.26,685.18Z" transform="translate(-138.66)"/><ellipse class="cls-1" cx="1033.42" cy="722.25" rx="1.63" ry="1.93" transform="translate(-203.98 1340.61) rotate(-64.32)"/><ellipse class="cls-1" cx="1037.53" cy="721.08" rx="1.69" ry="2.11" transform="translate(-200.6 1343.65) rotate(-64.32)"/><ellipse class="cls-1" cx="1041.17" cy="719.08" rx="1.93" ry="2.23" transform="translate(-196.74 1345.79) rotate(-64.32)"/><ellipse class="cls-1" cx="1044.41" cy="716.09" rx="2.05" ry="2.53" transform="translate(-192.21 1347.02) rotate(-64.32)"/><ellipse class="cls-1" cx="1046.88" cy="711.66" rx="2.41" ry="3.07" transform="translate(-186.82 1346.73) rotate(-64.32)"/><path class="cls-1" d="M1042.31,713a5.24,5.24,0,0,0-2.65-7.3c-4.07-1.82-10.26,2.16-14.55.23s-4.42-6.41-6.81-7.56c-2.71-1.3-6.69-.54-8.16,2.5-2,4.13.33,6.85,2.66,8.1,1.81,1,3,1.2,4.24,1.77,4.13,2,6.79,6.75,10.48,8.52C1031.65,721.2,1039.65,718.49,1042.31,713Zm-31-11.12a5,5,0,0,1,6.08-2.63s-3.64,1.19-4.58,3.15-.35,5-.35,5S1010,704.46,1011.27,701.83Z" transform="translate(-138.66)"/><ellipse class="cls-1" cx="1064.26" cy="574.02" rx="1.42" ry="1.2" transform="translate(-276.16 440.17) rotate(-21.99)"/><ellipse class="cls-1" cx="1067.22" cy="575.07" rx="1.55" ry="1.24" transform="translate(-276.34 441.36) rotate(-21.99)"/><ellipse class="cls-1" cx="1069.79" cy="576.71" rx="1.64" ry="1.42" transform="translate(-276.77 442.44) rotate(-21.99)"/><ellipse class="cls-1" cx="1072.03" cy="579.05" rx="1.86" ry="1.51" transform="translate(-277.48 443.45) rotate(-21.99)"/><ellipse class="cls-1" cx="1073.62" cy="582.42" rx="2.26" ry="1.77" transform="translate(-278.63 444.29) rotate(-21.99)"/><path class="cls-1" d="M1070.34,581.26c-1.69-4.19-7.42-6.56-10.54-5.3-2.79,1.13-5,4.49-8.09,5.75-.9.37-1.82.47-3.19,1.1a4.21,4.21,0,0,0-2.33,5.81,4.56,4.56,0,0,0,5.86,2.22c1.81-.73,2.11-4,5.35-5.22s7.58,2,10.65.86A3.85,3.85,0,0,0,1070.34,581.26Z" transform="translate(-138.66)"/><path class="cls-1" d="M1044.74,584.91a3.87,3.87,0,0,0-1.56,4.89c.86,2.14,3.76,2.34,3.76,2.34a8.4,8.4,0,0,1-2.7-2.92C1043.59,587.63,1044.74,584.91,1044.74,584.91Z" transform="translate(-138.66)"/><ellipse class="cls-1" cx="1064.95" cy="603.15" rx="1.42" ry="1.2" transform="translate(-287.02 442.55) rotate(-21.99)"/><ellipse class="cls-1" cx="1066.35" cy="600.35" rx="1.55" ry="1.24" transform="translate(-285.87 442.87) rotate(-21.99)"/><ellipse class="cls-1" cx="1067.06" cy="597.38" rx="1.64" ry="1.42" transform="translate(-284.71 442.92) rotate(-21.99)"/><ellipse class="cls-1" cx="1067.04" cy="594.14" rx="1.86" ry="1.51" transform="translate(-283.49 442.68) rotate(-21.99)"/><ellipse class="cls-1" cx="1065.86" cy="590.61" rx="2.26" ry="1.77" transform="translate(-282.26 441.98) rotate(-21.99)"/><path class="cls-1" d="M1064.3,593.73a3.84,3.84,0,0,0-5.27-2.17c-3,1.31-3.91,6.64-7.08,8s-5.66-.77-7.47,0a4.57,4.57,0,0,0-2.68,5.66,4.23,4.23,0,0,0,5.72,2.57c1.42-.5,2.15-1.06,3-1.43,3.12-1.26,7-.35,9.81-1.48C1063.5,603.59,1066,597.91,1064.3,593.73Zm-21.4,11.35a3.69,3.69,0,0,1,1.59-4.6s-1.15,2.56-.56,4a7.57,7.57,0,0,0,2.57,2.69S1043.71,607.07,1042.9,605.08Z" transform="translate(-138.66)"/><ellipse class="cls-1" cx="1024.37" cy="814.43" rx="1.49" ry="1.76" transform="translate(-395.77 1079.83) rotate(-50.19)"/><ellipse class="cls-1" cx="1024.96" cy="818.28" rx="1.54" ry="1.93" transform="translate(-398.52 1081.67) rotate(-50.19)"/><ellipse class="cls-1" cx="1024.68" cy="822.06" rx="1.76" ry="2.04" transform="translate(-401.52 1082.81) rotate(-50.19)"/><ellipse class="cls-1" cx="1023.42" cy="825.89" rx="1.87" ry="2.31" transform="translate(-404.92 1083.22) rotate(-50.19)"/><ellipse class="cls-1" cx="1020.67" cy="829.62" rx="2.2" ry="2.81" transform="translate(-408.77 1082.45) rotate(-50.19)"/><path class="cls-1" d="M1020,825.34c3.6-4.31,2.82-12-.39-14.66-2.88-2.4-7.84-2.81-11.06-5.49-.93-.78-1.58-1.71-3.07-2.85-1.93-1.47-5.06-2.36-7.74.86-2,2.37-1.1,6,1,7.73,1.86,1.55,5.63,0,8.86,2.79s2.27,9.49,5.32,12.18A4.78,4.78,0,0,0,1020,825.34Z" transform="translate(-138.66)"/><path class="cls-1" d="M1001,799.43a4.81,4.81,0,0,0-6.27,1.16c-1.84,2.21-.36,5.5-.36,5.5s.31-3.11,1.61-4.68S1001,799.43,1001,799.43Z" transform="translate(-138.66)"/><ellipse class="cls-1" cx="992.84" cy="832.3" rx="1.49" ry="1.76" transform="translate(-420.84 1062.04) rotate(-50.19)"/><ellipse class="cls-1" cx="996.74" cy="832.18" rx="1.54" ry="1.93" transform="translate(-419.35 1064.99) rotate(-50.19)"/><ellipse class="cls-1" cx="1000.41" cy="831.23" rx="1.76" ry="2.04" transform="translate(-417.29 1067.46) rotate(-50.19)"/><ellipse class="cls-1" cx="1003.95" cy="829.3" rx="1.87" ry="2.31" transform="translate(-414.54 1069.49) rotate(-50.19)"/><ellipse class="cls-1" cx="1007.12" cy="825.92" rx="2.2" ry="2.81" transform="translate(-410.81 1070.71) rotate(-50.19)"/><path class="cls-1" d="M1002.79,826a4.78,4.78,0,0,0-.72-7c-3.2-2.52-9.57-.38-12.94-3s-2.48-6.66-4.34-8.21c-2.12-1.76-5.81-2-7.79.39-2.68,3.22-1.24,6.14.55,7.77,1.39,1.27,2.43,1.74,3.36,2.51,3.21,2.68,4.51,7.49,7.39,9.89C991.51,831,999.2,830.36,1002.79,826Zm-25-16.77a4.56,4.56,0,0,1,6-1s-3.48.25-4.75,1.77-1.44,4.4-1.44,4.4S976.07,811.32,977.78,809.27Z" transform="translate(-138.66)"/><ellipse class="cls-1" cx="1016.71" cy="566.7" rx="0.77" ry="0.65" transform="translate(-285.27 605.87) rotate(-31.06)"/><ellipse class="cls-1" cx="1018.38" cy="567.01" rx="0.84" ry="0.67" transform="translate(-285.19 606.78) rotate(-31.06)"/><ellipse class="cls-1" cx="1019.9" cy="567.67" rx="0.89" ry="0.77" transform="translate(-285.31 607.65) rotate(-31.06)"/><ellipse class="cls-1" cx="1021.3" cy="568.73" rx="1.01" ry="0.82" transform="matrix(0.86, -0.52, 0.52, 0.86, -285.66, 608.53)"/><ellipse class="cls-1" cx="1022.44" cy="570.4" rx="1.22" ry="0.96" transform="translate(-286.36 609.36) rotate(-31.06)"/><path class="cls-1" d="M1020.58,570.06c-1.26-2.1-4.53-2.88-6.09-1.93-1.4.84-2.28,2.82-3.84,3.76-.45.28-.93.41-1.61.86a2.28,2.28,0,0,0-.75,3.31,2.47,2.47,0,0,0,3.32.69c.91-.55.79-2.32,2.42-3.25s4.23.42,5.78-.45A2.09,2.09,0,0,0,1020.58,570.06Z" transform="translate(-138.66)"/><path class="cls-1" d="M1007.19,574.2a2.1,2.1,0,0,0-.41,2.75,2.51,2.51,0,0,0,2.21.93,4.59,4.59,0,0,1-1.7-1.33A4,4,0,0,1,1007.19,574.2Z" transform="translate(-138.66)"/><ellipse class="cls-1" cx="1019.57" cy="582.24" rx="0.77" ry="0.65" transform="translate(-292.88 609.57) rotate(-31.06)"/><ellipse class="cls-1" cx="1020.08" cy="580.61" rx="0.84" ry="0.67" transform="translate(-291.97 609.6) rotate(-31.06)"/><ellipse class="cls-1" cx="1020.21" cy="578.97" rx="0.89" ry="0.77" transform="translate(-291.1 609.43) rotate(-31.06)"/><ellipse class="cls-1" cx="1019.92" cy="577.24" rx="1.01" ry="0.82" transform="translate(-290.25 609.04) rotate(-31.06)"/><ellipse class="cls-1" cx="1018.98" cy="575.45" rx="1.22" ry="0.96" transform="translate(-289.46 608.3) rotate(-31.06)"/><path class="cls-1" d="M1018.41,577.25a2.08,2.08,0,0,0-3-.71c-1.5,1-1.53,3.88-3.1,4.89s-3.1.07-4,.62a2.46,2.46,0,0,0-.95,3.26,2.28,2.28,0,0,0,3.27.88c.72-.39,1.07-.75,1.52-1,1.56-.94,3.72-.79,5.12-1.63C1018.84,582.6,1019.68,579.34,1018.41,577.25Zm-10.47,7.9a2,2,0,0,1,.45-2.59,3.61,3.61,0,0,0,.05,2.21A4.25,4.25,0,0,0,1010,586S1008.54,586.15,1007.94,585.15Z" transform="translate(-138.66)"/><ellipse class="cls-1" cx="1062.62" cy="645.77" rx="0.85" ry="1.01" transform="translate(166.03 1631.53) rotate(-83.73)"/><ellipse class="cls-1" cx="1064.13" cy="647.43" rx="0.89" ry="1.11" transform="translate(165.72 1634.51) rotate(-83.73)"/><ellipse class="cls-1" cx="1065.19" cy="649.33" rx="1.01" ry="1.17" transform="translate(164.78 1637.26) rotate(-83.73)"/><ellipse class="cls-1" cx="1065.81" cy="651.56" rx="1.08" ry="1.33" transform="translate(163.11 1639.85) rotate(-83.73)"/><ellipse class="cls-1" cx="1065.67" cy="654.22" rx="1.26" ry="1.61" transform="translate(160.35 1642.09) rotate(-83.73)"/><path class="cls-1" d="M1064,652.38c.35-3.21-2.45-6.63-4.84-6.9-2.14-.23-4.65,1.15-7,.89-.69-.08-1.3-.32-2.37-.39a3,3,0,0,0-3.43,2.87,3.24,3.24,0,0,0,2.93,3.37c1.39.15,2.68-1.8,5.13-1.47s4.1,3.82,6.42,4.14A2.75,2.75,0,0,0,1064,652.38Z" transform="translate(-138.66)"/><path class="cls-1" d="M1046.66,646a2.77,2.77,0,0,0-2.64,2.55c-.18,1.64,1.58,2.74,1.58,2.74a6.07,6.07,0,0,1-.72-2.75C1045,647.34,1046.66,646,1046.66,646Z" transform="translate(-138.66)"/><ellipse class="cls-1" cx="1053.21" cy="664.33" rx="0.85" ry="1.01" transform="translate(139.19 1638.71) rotate(-83.73)"/><ellipse class="cls-1" cx="1055.03" cy="663.04" rx="0.89" ry="1.11" transform="translate(142.11 1639.37) rotate(-83.73)"/><ellipse class="cls-1" cx="1056.48" cy="661.41" rx="1.01" ry="1.17" transform="translate(145.01 1639.37) rotate(-83.73)"/><ellipse class="cls-1" cx="1057.57" cy="659.37" rx="1.08" ry="1.33" transform="translate(148.01 1638.62) rotate(-83.73)"/><ellipse class="cls-1" cx="1058.01" cy="656.75" rx="1.26" ry="1.61" transform="translate(151.02 1636.73) rotate(-83.73)"/><path class="cls-1" d="M1056,658.18a2.75,2.75,0,0,0-2.58-3.15c-2.33-.19-4.7,2.86-7.16,2.65s-3.3-2.4-4.69-2.55a3.27,3.27,0,0,0-3.6,2.66,3,3,0,0,0,2.73,3.54c1.07.17,1.71.06,2.41.14,2.38.26,4.53,2.15,6.67,2.39C1052.15,664.12,1055.63,661.38,1056,658.18Zm-17.3-.09a2.64,2.64,0,0,1,2.55-2.36s-1.58,1.22-1.71,2.36a5.44,5.44,0,0,0,.71,2.56S1038.52,659.61,1038.68,658.09Z" transform="translate(-138.66)"/><ellipse class="cls-3" cx="982.69" cy="560.34" rx="1.73" ry="1.46" transform="translate(-283.97 475.1) rotate(-25.37)"/><ellipse class="cls-3" cx="986.37" cy="561.41" rx="1.89" ry="1.51" transform="translate(-284.08 476.78) rotate(-25.37)"/><ellipse class="cls-3" cx="989.61" cy="563.21" rx="2" ry="1.73" transform="translate(-284.54 478.34) rotate(-25.37)"/><ellipse class="cls-3" cx="992.5" cy="565.91" rx="2.27" ry="1.84" transform="translate(-285.41 479.84) rotate(-25.37)"/><ellipse class="cls-3" cx="994.69" cy="569.89" rx="2.75" ry="2.16" transform="translate(-286.91 481.16) rotate(-25.37)"/><path class="cls-3" d="M990.61,568.72c-2.36-5-9.5-7.45-13.21-5.69-3.32,1.57-5.73,5.82-9.43,7.58-1.08.51-2.18.7-3.8,1.56-2.1,1.12-4.18,3.54-2.43,7.25,1.3,2.73,4.86,3.43,7.3,2.27,2.15-1,2.28-5,6.13-6.73s9.38,1.88,13,.28A4.69,4.69,0,0,0,990.61,568.72Z" transform="translate(-138.66)"/><path class="cls-3" d="M959.71,575a4.73,4.73,0,0,0-1.55,6.07c1.21,2.54,4.75,2.58,4.75,2.58s-2.64-1.56-3.5-3.36S959.71,575,959.71,575Z" transform="translate(-138.66)"/><ellipse class="cls-3" cx="985.63" cy="595.76" rx="1.73" ry="1.46" transform="translate(-298.87 479.77) rotate(-25.37)"/><ellipse class="cls-3" cx="987.13" cy="592.24" rx="1.89" ry="1.51" transform="translate(-297.22 480.07) rotate(-25.37)"/><ellipse class="cls-3" cx="987.78" cy="588.58" rx="2" ry="1.73" transform="translate(-295.58 480) rotate(-25.37)"/><ellipse class="cls-3" cx="987.53" cy="584.64" rx="2.27" ry="1.84" transform="translate(-293.92 479.51) rotate(-25.37)"/><ellipse class="cls-3" cx="985.83" cy="580.43" rx="2.75" ry="2.16" transform="translate(-292.28 478.38) rotate(-25.37)"/><path class="cls-3" d="M984.15,584.33a4.69,4.69,0,0,0-6.57-2.26c-3.56,1.81-4.28,8.36-8,10.26s-6.94-.53-9.09.49c-2.44,1.15-4.15,4.36-2.85,7.09,1.76,3.71,4.95,3.63,7.14,2.71,1.69-.72,2.54-1.45,3.61-2,3.71-1.76,8.52-.93,11.84-2.5C983.9,596.4,986.51,589.3,984.15,584.33Zm-25.22,15.36a4.48,4.48,0,0,1,1.59-5.71s-1.21,3.2-.38,5,3.32,3.09,3.32,3.09S960.05,602.05,958.93,599.69Z" transform="translate(-138.66)"/><ellipse class="cls-3" cx="999.85" cy="617.51" rx="3.5" ry="2.95" transform="translate(-263 275.13) rotate(-14.76)"/><ellipse class="cls-3" cx="1006.77" cy="621" rx="3.83" ry="3.06" transform="translate(-263.66 277.01) rotate(-14.76)"/><ellipse class="cls-3" cx="1012.56" cy="625.81" rx="4.05" ry="3.5" transform="translate(-264.69 278.64) rotate(-14.76)"/><ellipse class="cls-3" cx="1017.31" cy="632.26" rx="4.6" ry="3.72" transform="translate(-266.18 280.07) rotate(-14.76)"/><ellipse class="cls-3" cx="1020.18" cy="641" rx="5.58" ry="4.38" transform="matrix(0.97, -0.25, 0.25, 0.97, -268.31, 281.09)"/><path class="cls-3" d="M1012.49,637.15c-2.84-10.79-16.16-18.38-24.2-16.26-7.19,1.9-13.57,9.46-21.61,11.58-2.33.62-4.6.59-8.15,1.7-4.6,1.44-9.65,5.48-7.53,13.52,1.56,5.93,8.39,8.65,13.68,7.26,4.66-1.23,6.41-9.16,14.72-11.12s18,7.24,25.87,5.4C1012.73,647.5,1013.44,640.75,1012.49,637.15Z" transform="translate(-138.66)"/><path class="cls-3" d="M948.6,638.14s-7.56,3.13-5.35,11.5c1.45,5.52,8.49,6.91,8.49,6.91s-4.69-4.08-5.72-8C944.94,644.45,948.6,638.14,948.6,638.14Z" transform="translate(-138.66)"/><ellipse class="cls-3" cx="992.47" cy="689.15" rx="3.5" ry="2.95" transform="translate(-281.49 275.62) rotate(-14.76)"/><ellipse class="cls-3" cx="996.77" cy="682.7" rx="3.83" ry="3.06" transform="translate(-279.71 276.5) rotate(-14.76)"/><ellipse class="cls-3" cx="999.44" cy="675.66" rx="4.05" ry="3.5" transform="matrix(0.97, -0.25, 0.25, 0.97, -277.83, 276.95)"/><ellipse class="cls-3" cx="1000.4" cy="667.71" rx="4.6" ry="3.72" transform="matrix(0.97, -0.25, 0.25, 0.97, -275.77, 276.93)"/><ellipse class="cls-3" cx="998.59" cy="658.69" rx="5.58" ry="4.38" transform="translate(-273.53 276.17) rotate(-14.76)"/><path class="cls-3" d="M993.8,665.83c-.95-3.59-4.89-9.12-12.24-7-7.78,2.28-11.65,15.06-19.85,17.45s-13.63-3.65-18.29-2.43c-5.29,1.4-9.89,7.13-8.32,13.06,2.12,8,8.5,9.07,13.21,8.06,3.64-.79,5.6-1.93,7.93-2.54,8-2.12,17.32,1.32,24.51-.58C988.79,689.78,996.64,676.63,993.8,665.83Zm-56,21.19c-2.05-7.78,5.3-10.78,5.3-10.78s-3.61,5.93-2.61,9.73c1,3.65,5.46,7.4,5.46,7.4S939.18,692.15,937.83,687Z" transform="translate(-138.66)"/><ellipse class="cls-3" cx="1019.33" cy="737.66" rx="2.14" ry="2.54" transform="translate(-129.29 1488.11) rotate(-72.51)"/><ellipse class="cls-3" cx="1022.22" cy="742.47" rx="2.22" ry="2.77" transform="translate(-131.86 1494.22) rotate(-72.51)"/><ellipse class="cls-3" cx="1023.9" cy="747.66" rx="2.54" ry="2.93" transform="translate(-135.62 1499.46) rotate(-72.51)"/><ellipse class="cls-3" cx="1024.32" cy="753.44" rx="2.69" ry="3.33" transform="translate(-140.84 1503.9) rotate(-72.51)"/><ellipse class="cls-3" cx="1022.7" cy="759.9" rx="3.17" ry="4.04" transform="translate(-148.14 1506.88) rotate(-72.51)"/><path class="cls-3" d="M1019.48,754.57c2.43-7.71-2.79-17.49-8.53-19.3-5.14-1.62-12,.55-17.71-1.26-1.66-.53-3-1.42-5.65-2.12-3.37-.89-8-.37-9.83,5.38-1.34,4.23,1.79,8.54,5.57,9.73,3.32,1,7.46-3.13,13.31-1.12s8.21,11.38,13.75,13.3C1015.63,761,1018.67,757.14,1019.48,754.57Z" transform="translate(-138.66)"/><path class="cls-3" d="M980,730.49a6.93,6.93,0,0,0-7.72,5c-1.24,3.94,2.53,7.5,2.53,7.5s-1.3-4.3-.41-7.1S980,730.49,980,730.49Z" transform="translate(-138.66)"/><ellipse class="cls-3" cx="987.13" cy="778.68" rx="2.14" ry="2.54" transform="matrix(0.3, -0.95, 0.95, 0.3, -190.93, 1486.08)"/><ellipse class="cls-3" cx="992.26" cy="776.39" rx="2.22" ry="2.77" transform="translate(-185.16 1489.37) rotate(-72.51)"/><ellipse class="cls-3" cx="996.61" cy="773.11" rx="2.54" ry="2.93" transform="translate(-178.99 1491.23) rotate(-72.51)"/><ellipse class="cls-3" cx="1000.27" cy="768.62" rx="2.69" ry="3.33" transform="translate(-172.14 1491.58) rotate(-72.51)"/><ellipse class="cls-3" cx="1002.65" cy="762.39" rx="3.17" ry="4.04" transform="translate(-164.54 1489.49) rotate(-72.51)"/><path class="cls-3" d="M997,764.91c.81-2.57.53-7.47-4.81-9-5.64-1.6-12.95,4.72-18.89,3s-6.94-7.51-10.26-8.55c-3.78-1.19-8.81.54-10.14,4.77-1.81,5.75,1.69,8.85,5,10,2.54.93,4.18,1,5.84,1.51,5.74,1.81,10.09,7.5,15.23,9.12C984.63,777.64,994.52,772.62,997,764.91Zm-42.46-8.65c1.76-5.56,7.42-4.55,7.42-4.55s-4.5,2.23-5.36,4.95.48,6.64.48,6.64S953.34,759.92,954.49,756.26Z" transform="translate(-138.66)"/><ellipse class="cls-3" cx="1062.12" cy="694.84" rx="1.63" ry="1.93" transform="translate(-163.02 1350.94) rotate(-64.32)"/><ellipse class="cls-3" cx="1063.77" cy="698.78" rx="1.69" ry="2.11" transform="translate(-165.63 1354.66) rotate(-64.32)"/><ellipse class="cls-3" cx="1064.48" cy="702.87" rx="1.93" ry="2.23" transform="translate(-168.92 1357.62) rotate(-64.32)"/><ellipse class="cls-3" cx="1064.17" cy="707.27" rx="2.05" ry="2.53" transform="translate(-173.06 1359.83) rotate(-64.32)"/><ellipse class="cls-3" cx="1062.25" cy="711.96" rx="2.41" ry="3.07" transform="translate(-178.38 1360.76) rotate(-64.32)"/><path class="cls-3" d="M1060.4,707.6c2.67-5.55-.2-13.48-4.33-15.47-3.7-1.78-9.08-.88-13.21-2.87-1.19-.57-2.13-1.4-4-2.2-2.44-1-6-1.15-8,3-1.46,3,.42,6.63,3.14,7.93,2.39,1.15,6-1.55,10.15.6s4.95,9.46,8.91,11.51A5.24,5.24,0,0,0,1060.4,707.6Z" transform="translate(-138.66)"/><path class="cls-3" d="M1033.26,685.18a5.27,5.27,0,0,0-6.36,2.91c-1.36,2.83,1.09,5.93,1.09,5.93s-.5-3.39.46-5.4S1033.26,685.18,1033.26,685.18Z" transform="translate(-138.66)"/><ellipse class="cls-3" cx="1033.42" cy="722.25" rx="1.63" ry="1.93" transform="translate(-203.98 1340.61) rotate(-64.32)"/><ellipse class="cls-3" cx="1037.53" cy="721.08" rx="1.69" ry="2.11" transform="translate(-200.6 1343.65) rotate(-64.32)"/><ellipse class="cls-3" cx="1041.17" cy="719.08" rx="1.93" ry="2.23" transform="translate(-196.74 1345.79) rotate(-64.32)"/><ellipse class="cls-3" cx="1044.41" cy="716.09" rx="2.05" ry="2.53" transform="translate(-192.21 1347.02) rotate(-64.32)"/><ellipse class="cls-3" cx="1046.88" cy="711.66" rx="2.41" ry="3.07" transform="translate(-186.82 1346.73) rotate(-64.32)"/><path class="cls-3" d="M1042.31,713a5.24,5.24,0,0,0-2.65-7.3c-4.07-1.82-10.26,2.16-14.55.23s-4.42-6.41-6.81-7.56c-2.71-1.3-6.69-.54-8.16,2.5-2,4.13.33,6.85,2.66,8.1,1.81,1,3,1.2,4.24,1.77,4.13,2,6.79,6.75,10.48,8.52C1031.65,721.2,1039.65,718.49,1042.31,713Zm-31-11.12a5,5,0,0,1,6.08-2.63s-3.64,1.19-4.58,3.15-.35,5-.35,5S1010,704.46,1011.27,701.83Z" transform="translate(-138.66)"/><ellipse class="cls-3" cx="1064.26" cy="574.02" rx="1.42" ry="1.2" transform="translate(-276.16 440.17) rotate(-21.99)"/><ellipse class="cls-3" cx="1067.22" cy="575.07" rx="1.55" ry="1.24" transform="translate(-276.34 441.36) rotate(-21.99)"/><ellipse class="cls-3" cx="1069.79" cy="576.71" rx="1.64" ry="1.42" transform="translate(-276.77 442.44) rotate(-21.99)"/><ellipse class="cls-3" cx="1072.03" cy="579.05" rx="1.86" ry="1.51" transform="translate(-277.48 443.45) rotate(-21.99)"/><ellipse class="cls-3" cx="1073.62" cy="582.42" rx="2.26" ry="1.77" transform="translate(-278.63 444.29) rotate(-21.99)"/><path class="cls-3" d="M1070.34,581.26c-1.69-4.19-7.42-6.56-10.54-5.3-2.79,1.13-5,4.49-8.09,5.75-.9.37-1.82.47-3.19,1.1a4.21,4.21,0,0,0-2.33,5.81,4.56,4.56,0,0,0,5.86,2.22c1.81-.73,2.11-4,5.35-5.22s7.58,2,10.65.86A3.85,3.85,0,0,0,1070.34,581.26Z" transform="translate(-138.66)"/><path class="cls-3" d="M1044.74,584.91a3.87,3.87,0,0,0-1.56,4.89c.86,2.14,3.76,2.34,3.76,2.34a8.4,8.4,0,0,1-2.7-2.92C1043.59,587.63,1044.74,584.91,1044.74,584.91Z" transform="translate(-138.66)"/><ellipse class="cls-3" cx="1064.95" cy="603.15" rx="1.42" ry="1.2" transform="translate(-287.02 442.55) rotate(-21.99)"/><ellipse class="cls-3" cx="1066.35" cy="600.35" rx="1.55" ry="1.24" transform="translate(-285.87 442.87) rotate(-21.99)"/><ellipse class="cls-3" cx="1067.06" cy="597.38" rx="1.64" ry="1.42" transform="translate(-284.71 442.92) rotate(-21.99)"/><ellipse class="cls-3" cx="1067.04" cy="594.14" rx="1.86" ry="1.51" transform="translate(-283.49 442.68) rotate(-21.99)"/><ellipse class="cls-3" cx="1065.86" cy="590.61" rx="2.26" ry="1.77" transform="translate(-282.26 441.98) rotate(-21.99)"/><path class="cls-3" d="M1064.3,593.73a3.84,3.84,0,0,0-5.27-2.17c-3,1.31-3.91,6.64-7.08,8s-5.66-.77-7.47,0a4.57,4.57,0,0,0-2.68,5.66,4.23,4.23,0,0,0,5.72,2.57c1.42-.5,2.15-1.06,3-1.43,3.12-1.26,7-.35,9.81-1.48C1063.5,603.59,1066,597.91,1064.3,593.73Zm-21.4,11.35a3.69,3.69,0,0,1,1.59-4.6s-1.15,2.56-.56,4a7.57,7.57,0,0,0,2.57,2.69S1043.71,607.07,1042.9,605.08Z" transform="translate(-138.66)"/><ellipse class="cls-3" cx="1024.37" cy="814.43" rx="1.49" ry="1.76" transform="translate(-395.77 1079.83) rotate(-50.19)"/><ellipse class="cls-3" cx="1024.96" cy="818.28" rx="1.54" ry="1.93" transform="translate(-398.52 1081.67) rotate(-50.19)"/><ellipse class="cls-3" cx="1024.68" cy="822.06" rx="1.76" ry="2.04" transform="translate(-401.52 1082.81) rotate(-50.19)"/><ellipse class="cls-3" cx="1023.42" cy="825.89" rx="1.87" ry="2.31" transform="translate(-404.92 1083.22) rotate(-50.19)"/><ellipse class="cls-3" cx="1020.67" cy="829.62" rx="2.2" ry="2.81" transform="translate(-408.77 1082.45) rotate(-50.19)"/><path class="cls-3" d="M1020,825.34c3.6-4.31,2.82-12-.39-14.66-2.88-2.4-7.84-2.81-11.06-5.49-.93-.78-1.58-1.71-3.07-2.85-1.93-1.47-5.06-2.36-7.74.86-2,2.37-1.1,6,1,7.73,1.86,1.55,5.63,0,8.86,2.79s2.27,9.49,5.32,12.18A4.78,4.78,0,0,0,1020,825.34Z" transform="translate(-138.66)"/><path class="cls-3" d="M1001,799.43a4.81,4.81,0,0,0-6.27,1.16c-1.84,2.21-.36,5.5-.36,5.5s.31-3.11,1.61-4.68S1001,799.43,1001,799.43Z" transform="translate(-138.66)"/><ellipse class="cls-3" cx="992.84" cy="832.3" rx="1.49" ry="1.76" transform="translate(-420.84 1062.04) rotate(-50.19)"/><ellipse class="cls-3" cx="996.74" cy="832.18" rx="1.54" ry="1.93" transform="translate(-419.35 1064.99) rotate(-50.19)"/><ellipse class="cls-3" cx="1000.41" cy="831.23" rx="1.76" ry="2.04" transform="translate(-417.29 1067.46) rotate(-50.19)"/><ellipse class="cls-3" cx="1003.95" cy="829.3" rx="1.87" ry="2.31" transform="translate(-414.54 1069.49) rotate(-50.19)"/><ellipse class="cls-3" cx="1007.12" cy="825.92" rx="2.2" ry="2.81" transform="translate(-410.81 1070.71) rotate(-50.19)"/><path class="cls-3" d="M1002.79,826a4.78,4.78,0,0,0-.72-7c-3.2-2.52-9.57-.38-12.94-3s-2.48-6.66-4.34-8.21c-2.12-1.76-5.81-2-7.79.39-2.68,3.22-1.24,6.14.55,7.77,1.39,1.27,2.43,1.74,3.36,2.51,3.21,2.68,4.51,7.49,7.39,9.89C991.51,831,999.2,830.36,1002.79,826Zm-25-16.77a4.56,4.56,0,0,1,6-1s-3.48.25-4.75,1.77-1.44,4.4-1.44,4.4S976.07,811.32,977.78,809.27Z" transform="translate(-138.66)"/><ellipse class="cls-3" cx="1016.71" cy="566.7" rx="0.77" ry="0.65" transform="translate(-285.27 605.87) rotate(-31.06)"/><ellipse class="cls-3" cx="1018.38" cy="567.01" rx="0.84" ry="0.67" transform="translate(-285.19 606.78) rotate(-31.06)"/><ellipse class="cls-3" cx="1019.9" cy="567.67" rx="0.89" ry="0.77" transform="translate(-285.31 607.65) rotate(-31.06)"/><ellipse class="cls-3" cx="1021.3" cy="568.73" rx="1.01" ry="0.82" transform="matrix(0.86, -0.52, 0.52, 0.86, -285.66, 608.53)"/><ellipse class="cls-3" cx="1022.44" cy="570.4" rx="1.22" ry="0.96" transform="translate(-286.36 609.36) rotate(-31.06)"/><path class="cls-3" d="M1020.58,570.06c-1.26-2.1-4.53-2.88-6.09-1.93-1.4.84-2.28,2.82-3.84,3.76-.45.28-.93.41-1.61.86a2.28,2.28,0,0,0-.75,3.31,2.47,2.47,0,0,0,3.32.69c.91-.55.79-2.32,2.42-3.25s4.23.42,5.78-.45A2.09,2.09,0,0,0,1020.58,570.06Z" transform="translate(-138.66)"/><path class="cls-3" d="M1007.19,574.2a2.1,2.1,0,0,0-.41,2.75,2.51,2.51,0,0,0,2.21.93,4.59,4.59,0,0,1-1.7-1.33A4,4,0,0,1,1007.19,574.2Z" transform="translate(-138.66)"/><ellipse class="cls-3" cx="1019.57" cy="582.24" rx="0.77" ry="0.65" transform="translate(-292.88 609.57) rotate(-31.06)"/><ellipse class="cls-3" cx="1020.08" cy="580.61" rx="0.84" ry="0.67" transform="translate(-291.97 609.6) rotate(-31.06)"/><ellipse class="cls-3" cx="1020.21" cy="578.97" rx="0.89" ry="0.77" transform="translate(-291.1 609.43) rotate(-31.06)"/><ellipse class="cls-3" cx="1019.92" cy="577.24" rx="1.01" ry="0.82" transform="translate(-290.25 609.04) rotate(-31.06)"/><ellipse class="cls-3" cx="1018.98" cy="575.45" rx="1.22" ry="0.96" transform="translate(-289.46 608.3) rotate(-31.06)"/><path class="cls-3" d="M1018.41,577.25a2.08,2.08,0,0,0-3-.71c-1.5,1-1.53,3.88-3.1,4.89s-3.1.07-4,.62a2.46,2.46,0,0,0-.95,3.26,2.28,2.28,0,0,0,3.27.88c.72-.39,1.07-.75,1.52-1,1.56-.94,3.72-.79,5.12-1.63C1018.84,582.6,1019.68,579.34,1018.41,577.25Zm-10.47,7.9a2,2,0,0,1,.45-2.59,3.61,3.61,0,0,0,.05,2.21A4.25,4.25,0,0,0,1010,586S1008.54,586.15,1007.94,585.15Z" transform="translate(-138.66)"/><ellipse class="cls-3" cx="1062.62" cy="645.77" rx="0.85" ry="1.01" transform="translate(166.03 1631.53) rotate(-83.73)"/><ellipse class="cls-3" cx="1064.13" cy="647.43" rx="0.89" ry="1.11" transform="translate(165.72 1634.51) rotate(-83.73)"/><ellipse class="cls-3" cx="1065.19" cy="649.33" rx="1.01" ry="1.17" transform="translate(164.78 1637.26) rotate(-83.73)"/><ellipse class="cls-3" cx="1065.81" cy="651.56" rx="1.08" ry="1.33" transform="translate(163.11 1639.85) rotate(-83.73)"/><ellipse class="cls-3" cx="1065.67" cy="654.22" rx="1.26" ry="1.61" transform="translate(160.35 1642.09) rotate(-83.73)"/><path class="cls-3" d="M1064,652.38c.35-3.21-2.45-6.63-4.84-6.9-2.14-.23-4.65,1.15-7,.89-.69-.08-1.3-.32-2.37-.39a3,3,0,0,0-3.43,2.87,3.24,3.24,0,0,0,2.93,3.37c1.39.15,2.68-1.8,5.13-1.47s4.1,3.82,6.42,4.14A2.75,2.75,0,0,0,1064,652.38Z" transform="translate(-138.66)"/><path class="cls-3" d="M1046.66,646a2.77,2.77,0,0,0-2.64,2.55c-.18,1.64,1.58,2.74,1.58,2.74a6.07,6.07,0,0,1-.72-2.75C1045,647.34,1046.66,646,1046.66,646Z" transform="translate(-138.66)"/><ellipse class="cls-3" cx="1053.21" cy="664.33" rx="0.85" ry="1.01" transform="translate(139.19 1638.71) rotate(-83.73)"/><ellipse class="cls-3" cx="1055.03" cy="663.04" rx="0.89" ry="1.11" transform="translate(142.11 1639.37) rotate(-83.73)"/><ellipse class="cls-3" cx="1056.48" cy="661.41" rx="1.01" ry="1.17" transform="translate(145.01 1639.37) rotate(-83.73)"/><ellipse class="cls-3" cx="1057.57" cy="659.37" rx="1.08" ry="1.33" transform="translate(148.01 1638.62) rotate(-83.73)"/><ellipse class="cls-3" cx="1058.01" cy="656.75" rx="1.26" ry="1.61" transform="translate(151.02 1636.73) rotate(-83.73)"/><path class="cls-3" d="M1056,658.18a2.75,2.75,0,0,0-2.58-3.15c-2.33-.19-4.7,2.86-7.16,2.65s-3.3-2.4-4.69-2.55a3.27,3.27,0,0,0-3.6,2.66,3,3,0,0,0,2.73,3.54c1.07.17,1.71.06,2.41.14,2.38.26,4.53,2.15,6.67,2.39C1052.15,664.12,1055.63,661.38,1056,658.18Zm-17.3-.09a2.64,2.64,0,0,1,2.55-2.36s-1.58,1.22-1.71,2.36a5.44,5.44,0,0,0,.71,2.56S1038.52,659.61,1038.68,658.09Z" transform="translate(-138.66)"/></g><g id="White_foots-2" data-name="White foots"><ellipse class="cls-1" cx="1028.23" cy="63.09" rx="3.5" ry="2.95" transform="translate(-120.8 264.07) rotate(-14.76)"/><ellipse class="cls-1" cx="1035.15" cy="66.59" rx="3.83" ry="3.06" transform="translate(-121.46 265.94) rotate(-14.76)"/><ellipse class="cls-1" cx="1040.94" cy="71.4" rx="4.05" ry="3.5" transform="translate(-122.5 267.58) rotate(-14.76)"/><ellipse class="cls-1" cx="1045.7" cy="77.84" rx="4.6" ry="3.72" transform="translate(-123.98 269) rotate(-14.76)"/><ellipse class="cls-1" cx="1048.57" cy="86.59" rx="5.58" ry="4.38" transform="matrix(0.97, -0.25, 0.25, 0.97, -126.12, 270.02)"/><path class="cls-1" d="M1040.87,82.73c-2.84-10.79-16.15-18.37-24.19-16.25-7.2,1.89-13.58,9.46-21.62,11.58-2.33.61-4.59.58-8.15,1.69-4.6,1.44-9.65,5.48-7.53,13.53,1.56,5.92,8.39,8.65,13.68,7.25,4.66-1.22,6.42-9.15,14.72-11.12s18,7.25,25.87,5.41C1041.11,93.08,1041.82,86.33,1040.87,82.73Z" transform="translate(-138.66)"/><path class="cls-1" d="M977,83.73s-7.55,3.13-5.35,11.5c1.46,5.52,8.49,6.9,8.49,6.9s-4.68-4.07-5.71-8C973.33,90,977,83.73,977,83.73Z" transform="translate(-138.66)"/><ellipse class="cls-1" cx="1020.86" cy="134.74" rx="3.5" ry="2.95" transform="translate(-139.3 264.55) rotate(-14.76)"/><ellipse class="cls-1" cx="1025.16" cy="128.29" rx="3.83" ry="3.06" transform="translate(-137.51 265.43) rotate(-14.76)"/><ellipse class="cls-1" cx="1027.83" cy="121.25" rx="4.05" ry="3.5" transform="matrix(0.97, -0.25, 0.25, 0.97, -135.63, 265.88)"/><ellipse class="cls-1" cx="1028.79" cy="113.3" rx="4.6" ry="3.72" transform="matrix(0.97, -0.25, 0.25, 0.97, -133.57, 265.86)"/><ellipse class="cls-1" cx="1026.97" cy="104.27" rx="5.58" ry="4.38" transform="translate(-131.33 265.1) rotate(-14.76)"/><path class="cls-1" d="M1022.18,111.42c-.95-3.6-4.89-9.12-12.24-7-7.77,2.29-11.65,15.06-19.84,17.45s-13.64-3.65-18.29-2.42c-5.29,1.39-9.89,7.13-8.33,13,2.12,8.05,8.5,9.08,13.21,8.06,3.64-.78,5.6-1.93,7.93-2.54,8-2.12,17.32,1.32,24.52-.57C1017.18,135.37,1025,122.21,1022.18,111.42Zm-56,21.19c-2.05-7.79,5.31-10.78,5.31-10.78s-3.61,5.92-2.61,9.73c1,3.64,5.46,7.39,5.46,7.39S967.56,137.74,966.21,132.61Z" transform="translate(-138.66)"/><ellipse class="cls-1" cx="1047.71" cy="183.24" rx="2.14" ry="2.54" transform="translate(419.34 1127.42) rotate(-72.51)"/><ellipse class="cls-1" cx="1050.6" cy="188.06" rx="2.22" ry="2.77" transform="translate(416.77 1133.54) rotate(-72.51)"/><ellipse class="cls-1" cx="1052.29" cy="193.24" rx="2.54" ry="2.93" transform="translate(413.01 1138.77) rotate(-72.51)"/><ellipse class="cls-1" cx="1052.71" cy="199.02" rx="2.69" ry="3.33" transform="translate(407.79 1143.22) rotate(-72.51)"/><ellipse class="cls-1" cx="1051.09" cy="205.49" rx="3.17" ry="4.04" transform="translate(400.48 1146.19) rotate(-72.51)"/><path class="cls-1" d="M1047.87,200.15c2.43-7.7-2.8-17.49-8.54-19.3-5.14-1.62-12,.55-17.71-1.26-1.66-.53-3-1.42-5.65-2.11-3.37-.9-8-.37-9.83,5.37-1.33,4.23,1.79,8.54,5.57,9.73,3.33,1,7.47-3.13,13.31-1.12s8.21,11.38,13.75,13.3C1044,206.58,1047.06,202.72,1047.87,200.15Z" transform="translate(-138.66)"/><path class="cls-1" d="M1008.36,176.07a6.93,6.93,0,0,0-7.72,5c-1.24,3.94,2.53,7.51,2.53,7.51s-1.29-4.31-.41-7.11S1008.36,176.07,1008.36,176.07Z" transform="translate(-138.66)"/><ellipse class="cls-1" cx="1015.52" cy="224.26" rx="2.14" ry="2.54" transform="matrix(0.3, -0.95, 0.95, 0.3, 357.7, 1125.4)"/><ellipse class="cls-1" cx="1020.64" cy="221.97" rx="2.22" ry="2.77" transform="translate(363.47 1128.68) rotate(-72.51)"/><ellipse class="cls-1" cx="1024.99" cy="218.69" rx="2.54" ry="2.93" transform="translate(369.64 1130.54) rotate(-72.51)"/><ellipse class="cls-1" cx="1028.65" cy="214.2" rx="2.69" ry="3.33" transform="translate(376.49 1130.89) rotate(-72.51)"/><ellipse class="cls-1" cx="1031.03" cy="207.97" rx="3.17" ry="4.04" transform="translate(384.09 1128.8) rotate(-72.51)"/><path class="cls-1" d="M1025.34,210.5c.81-2.57.52-7.48-4.81-9-5.64-1.6-12.95,4.73-18.89,3S994.7,197,991.37,196c-3.77-1.19-8.81.55-10.14,4.78-1.81,5.74,1.7,8.84,5,10,2.53.92,4.17,1,5.83,1.51,5.75,1.81,10.1,7.5,15.24,9.12C1013,223.23,1022.91,218.2,1025.34,210.5Zm-42.46-8.66c1.75-5.55,7.41-4.55,7.41-4.55s-4.5,2.23-5.35,5,.48,6.64.48,6.64S981.72,205.5,982.88,201.84Z" transform="translate(-138.66)"/><ellipse class="cls-1" cx="1090.51" cy="140.43" rx="1.63" ry="1.93" transform="translate(352.72 1062.36) rotate(-64.32)"/><ellipse class="cls-1" cx="1092.16" cy="144.36" rx="1.69" ry="2.11" transform="translate(350.1 1066.08) rotate(-64.32)"/><ellipse class="cls-1" cx="1092.87" cy="148.45" rx="1.93" ry="2.23" transform="translate(346.82 1069.04) rotate(-64.32)"/><ellipse class="cls-1" cx="1092.56" cy="152.85" rx="2.05" ry="2.53" transform="translate(342.68 1071.25) rotate(-64.32)"/><ellipse class="cls-1" cx="1090.63" cy="157.55" rx="2.41" ry="3.07" transform="translate(337.36 1072.18) rotate(-64.32)"/><path class="cls-1" d="M1088.79,153.18c2.66-5.54-.21-13.48-4.34-15.47-3.7-1.77-9.07-.88-13.2-2.87-1.2-.57-2.14-1.39-4-2.2-2.44-1-6-1.15-8,3-1.46,3,.43,6.63,3.14,7.94,2.4,1.15,6-1.55,10.15.6s5,9.46,8.92,11.51A5.24,5.24,0,0,0,1088.79,153.18Z" transform="translate(-138.66)"/><path class="cls-1" d="M1061.64,130.76a5.27,5.27,0,0,0-6.36,2.91c-1.36,2.84,1.09,5.93,1.09,5.93s-.5-3.38.47-5.4S1061.64,130.76,1061.64,130.76Z" transform="translate(-138.66)"/><ellipse class="cls-1" cx="1061.81" cy="167.83" rx="1.63" ry="1.93" transform="translate(311.75 1052.03) rotate(-64.32)"/><ellipse class="cls-1" cx="1065.91" cy="166.67" rx="1.69" ry="2.11" transform="translate(315.13 1055.07) rotate(-64.32)"/><ellipse class="cls-1" cx="1069.55" cy="164.67" rx="1.93" ry="2.23" transform="translate(319 1057.21) rotate(-64.32)"/><ellipse class="cls-1" cx="1072.79" cy="161.68" rx="2.05" ry="2.53" transform="translate(323.53 1058.44) rotate(-64.32)"/><ellipse class="cls-1" cx="1075.26" cy="157.24" rx="2.41" ry="3.07" transform="translate(328.92 1058.15) rotate(-64.32)"/><path class="cls-1" d="M1070.7,158.53a5.25,5.25,0,0,0-2.65-7.29c-4.08-1.82-10.27,2.15-14.56.22s-4.41-6.4-6.8-7.55c-2.72-1.31-6.7-.55-8.16,2.5-2,4.13.32,6.84,2.66,8.1,1.81,1,3,1.19,4.23,1.77,4.13,2,6.79,6.74,10.49,8.52C1060,166.78,1068,164.07,1070.7,158.53Zm-31-11.12a5,5,0,0,1,6.08-2.63s-3.63,1.2-4.57,3.15-.36,5-.36,5S1038.38,150,1039.65,147.41Z" transform="translate(-138.66)"/><ellipse class="cls-1" cx="1052.76" cy="260.01" rx="1.49" ry="1.76" transform="translate(40.31 902.2) rotate(-50.19)"/><ellipse class="cls-1" cx="1053.34" cy="263.87" rx="1.54" ry="1.93" transform="translate(37.56 904.03) rotate(-50.19)"/><ellipse class="cls-1" cx="1053.06" cy="267.65" rx="1.76" ry="2.04" transform="translate(34.56 905.18) rotate(-50.19)"/><ellipse class="cls-1" cx="1051.8" cy="271.47" rx="1.87" ry="2.31" transform="translate(31.16 905.59) rotate(-50.19)"/><ellipse class="cls-1" cx="1049.05" cy="275.2" rx="2.2" ry="2.81" transform="translate(27.31 904.82) rotate(-50.19)"/><path class="cls-1" d="M1048.39,270.92c3.6-4.31,2.82-12-.39-14.66-2.88-2.4-7.84-2.81-11-5.49-.94-.77-1.58-1.71-3.08-2.85-1.93-1.46-5.06-2.35-7.74.86-2,2.37-1.1,6,1,7.73,1.87,1.55,5.63,0,8.86,2.79s2.27,9.49,5.33,12.19A4.78,4.78,0,0,0,1048.39,270.92Z" transform="translate(-138.66)"/><path class="cls-1" d="M1029.35,245a4.82,4.82,0,0,0-6.28,1.16c-1.84,2.21-.36,5.5-.36,5.5s.31-3.11,1.62-4.68S1029.35,245,1029.35,245Z" transform="translate(-138.66)"/><ellipse class="cls-1" cx="1021.23" cy="277.89" rx="1.49" ry="1.76" transform="translate(15.24 884.41) rotate(-50.19)"/><ellipse class="cls-1" cx="1025.13" cy="277.77" rx="1.54" ry="1.93" transform="translate(16.73 887.36) rotate(-50.19)"/><ellipse class="cls-1" cx="1028.79" cy="276.81" rx="1.76" ry="2.04" transform="translate(18.79 889.83) rotate(-50.19)"/><ellipse class="cls-1" cx="1032.33" cy="274.88" rx="1.87" ry="2.31" transform="translate(21.54 891.86) rotate(-50.19)"/><ellipse class="cls-1" cx="1035.5" cy="271.51" rx="2.2" ry="2.81" transform="translate(25.27 893.08) rotate(-50.19)"/><path class="cls-1" d="M1031.18,271.63a4.79,4.79,0,0,0-.72-7.05c-3.21-2.52-9.58-.39-13-3.05s-2.48-6.66-4.34-8.21c-2.11-1.76-5.81-2-7.78.4-2.68,3.21-1.24,6.13.55,7.77,1.38,1.26,2.42,1.73,3.35,2.51,3.22,2.68,4.51,7.48,7.39,9.88C1019.89,276.56,1027.58,275.94,1031.18,271.63Zm-25-16.77a4.57,4.57,0,0,1,6-1s-3.49.24-4.75,1.76-1.45,4.4-1.45,4.4S1004.45,256.91,1006.16,254.86Z" transform="translate(-138.66)"/><ellipse class="cls-1" cx="1091.01" cy="91.35" rx="0.85" ry="1.01" transform="translate(742.42 1165.86) rotate(-83.73)"/><ellipse class="cls-1" cx="1092.51" cy="93.01" rx="0.89" ry="1.11" transform="translate(742.11 1168.84) rotate(-83.73)"/><ellipse class="cls-1" cx="1093.58" cy="94.91" rx="1.01" ry="1.17" transform="translate(741.17 1171.59) rotate(-83.73)"/><ellipse class="cls-1" cx="1094.19" cy="97.14" rx="1.08" ry="1.33" transform="translate(739.5 1174.18) rotate(-83.73)"/><ellipse class="cls-1" cx="1094.06" cy="99.8" rx="1.26" ry="1.61" transform="translate(736.74 1176.42) rotate(-83.73)"/><path class="cls-1" d="M1092.38,98c.35-3.2-2.45-6.63-4.84-6.89-2.14-.24-4.64,1.14-7,.88-.69-.08-1.3-.32-2.38-.39a3,3,0,0,0-3.43,2.87,3.27,3.27,0,0,0,2.94,3.38c1.38.15,2.68-1.81,5.12-1.48s4.1,3.82,6.42,4.14A2.74,2.74,0,0,0,1092.38,98Z" transform="translate(-138.66)"/><path class="cls-1" d="M1075,91.6a2.77,2.77,0,0,0-2.63,2.55c-.18,1.64,1.57,2.74,1.57,2.74a6,6,0,0,1-.71-2.75C1073.4,92.93,1075,91.6,1075,91.6Z" transform="translate(-138.66)"/><ellipse class="cls-1" cx="1081.59" cy="109.91" rx="0.85" ry="1.01" transform="translate(715.58 1173.04) rotate(-83.73)"/><ellipse class="cls-1" cx="1083.42" cy="108.62" rx="0.89" ry="1.11" transform="translate(718.49 1173.7) rotate(-83.73)"/><ellipse class="cls-1" cx="1084.87" cy="107" rx="1.01" ry="1.17" transform="translate(721.4 1173.7) rotate(-83.73)"/><ellipse class="cls-1" cx="1085.95" cy="104.95" rx="1.08" ry="1.33" transform="translate(724.4 1172.95) rotate(-83.73)"/><ellipse class="cls-1" cx="1086.4" cy="102.33" rx="1.26" ry="1.61" transform="translate(727.4 1171.06) rotate(-83.73)"/><path class="cls-1" d="M1084.36,103.76a2.73,2.73,0,0,0-2.58-3.14c-2.33-.19-4.7,2.85-7.16,2.64s-3.3-2.39-4.68-2.55a3.26,3.26,0,0,0-3.6,2.66,3,3,0,0,0,2.73,3.55c1.06.16,1.71.06,2.4.13,2.39.27,4.53,2.16,6.67,2.39C1080.53,109.7,1084,107,1084.36,103.76Zm-17.29-.09a2.63,2.63,0,0,1,2.55-2.36s-1.59,1.23-1.72,2.36a5.56,5.56,0,0,0,.71,2.56S1066.9,105.2,1067.07,103.67Z" transform="translate(-138.66)"/><ellipse class="cls-3" cx="1028.23" cy="63.09" rx="3.5" ry="2.95" transform="translate(-120.8 264.07) rotate(-14.76)"/><ellipse class="cls-3" cx="1035.15" cy="66.59" rx="3.83" ry="3.06" transform="translate(-121.46 265.94) rotate(-14.76)"/><ellipse class="cls-3" cx="1040.94" cy="71.4" rx="4.05" ry="3.5" transform="translate(-122.5 267.58) rotate(-14.76)"/><ellipse class="cls-3" cx="1045.7" cy="77.84" rx="4.6" ry="3.72" transform="translate(-123.98 269) rotate(-14.76)"/><ellipse class="cls-3" cx="1048.57" cy="86.59" rx="5.58" ry="4.38" transform="matrix(0.97, -0.25, 0.25, 0.97, -126.12, 270.02)"/><path class="cls-3" d="M1040.87,82.73c-2.84-10.79-16.15-18.37-24.19-16.25-7.2,1.89-13.58,9.46-21.62,11.58-2.33.61-4.59.58-8.15,1.69-4.6,1.44-9.65,5.48-7.53,13.53,1.56,5.92,8.39,8.65,13.68,7.25,4.66-1.22,6.42-9.15,14.72-11.12s18,7.25,25.87,5.41C1041.11,93.08,1041.82,86.33,1040.87,82.73Z" transform="translate(-138.66)"/><path class="cls-3" d="M977,83.73s-7.55,3.13-5.35,11.5c1.46,5.52,8.49,6.9,8.49,6.9s-4.68-4.07-5.71-8C973.33,90,977,83.73,977,83.73Z" transform="translate(-138.66)"/><ellipse class="cls-3" cx="1020.86" cy="134.74" rx="3.5" ry="2.95" transform="translate(-139.3 264.55) rotate(-14.76)"/><ellipse class="cls-3" cx="1025.16" cy="128.29" rx="3.83" ry="3.06" transform="translate(-137.51 265.43) rotate(-14.76)"/><ellipse class="cls-3" cx="1027.83" cy="121.25" rx="4.05" ry="3.5" transform="matrix(0.97, -0.25, 0.25, 0.97, -135.63, 265.88)"/><ellipse class="cls-3" cx="1028.79" cy="113.3" rx="4.6" ry="3.72" transform="matrix(0.97, -0.25, 0.25, 0.97, -133.57, 265.86)"/><ellipse class="cls-3" cx="1026.97" cy="104.27" rx="5.58" ry="4.38" transform="translate(-131.33 265.1) rotate(-14.76)"/><path class="cls-3" d="M1022.18,111.42c-.95-3.6-4.89-9.12-12.24-7-7.77,2.29-11.65,15.06-19.84,17.45s-13.64-3.65-18.29-2.42c-5.29,1.39-9.89,7.13-8.33,13,2.12,8.05,8.5,9.08,13.21,8.06,3.64-.78,5.6-1.93,7.93-2.54,8-2.12,17.32,1.32,24.52-.57C1017.18,135.37,1025,122.21,1022.18,111.42Zm-56,21.19c-2.05-7.79,5.31-10.78,5.31-10.78s-3.61,5.92-2.61,9.73c1,3.64,5.46,7.39,5.46,7.39S967.56,137.74,966.21,132.61Z" transform="translate(-138.66)"/><ellipse class="cls-3" cx="1047.71" cy="183.24" rx="2.14" ry="2.54" transform="translate(419.34 1127.42) rotate(-72.51)"/><ellipse class="cls-3" cx="1050.6" cy="188.06" rx="2.22" ry="2.77" transform="translate(416.77 1133.54) rotate(-72.51)"/><ellipse class="cls-3" cx="1052.29" cy="193.24" rx="2.54" ry="2.93" transform="translate(413.01 1138.77) rotate(-72.51)"/><ellipse class="cls-3" cx="1052.71" cy="199.02" rx="2.69" ry="3.33" transform="translate(407.79 1143.22) rotate(-72.51)"/><ellipse class="cls-3" cx="1051.09" cy="205.49" rx="3.17" ry="4.04" transform="translate(400.48 1146.19) rotate(-72.51)"/><path class="cls-3" d="M1047.87,200.15c2.43-7.7-2.8-17.49-8.54-19.3-5.14-1.62-12,.55-17.71-1.26-1.66-.53-3-1.42-5.65-2.11-3.37-.9-8-.37-9.83,5.37-1.33,4.23,1.79,8.54,5.57,9.73,3.33,1,7.47-3.13,13.31-1.12s8.21,11.38,13.75,13.3C1044,206.58,1047.06,202.72,1047.87,200.15Z" transform="translate(-138.66)"/><path class="cls-3" d="M1008.36,176.07a6.93,6.93,0,0,0-7.72,5c-1.24,3.94,2.53,7.51,2.53,7.51s-1.29-4.31-.41-7.11S1008.36,176.07,1008.36,176.07Z" transform="translate(-138.66)"/><ellipse class="cls-3" cx="1015.52" cy="224.26" rx="2.14" ry="2.54" transform="matrix(0.3, -0.95, 0.95, 0.3, 357.7, 1125.4)"/><ellipse class="cls-3" cx="1020.64" cy="221.97" rx="2.22" ry="2.77" transform="translate(363.47 1128.68) rotate(-72.51)"/><ellipse class="cls-3" cx="1024.99" cy="218.69" rx="2.54" ry="2.93" transform="translate(369.64 1130.54) rotate(-72.51)"/><ellipse class="cls-3" cx="1028.65" cy="214.2" rx="2.69" ry="3.33" transform="translate(376.49 1130.89) rotate(-72.51)"/><ellipse class="cls-3" cx="1031.03" cy="207.97" rx="3.17" ry="4.04" transform="translate(384.09 1128.8) rotate(-72.51)"/><path class="cls-3" d="M1025.34,210.5c.81-2.57.52-7.48-4.81-9-5.64-1.6-12.95,4.73-18.89,3S994.7,197,991.37,196c-3.77-1.19-8.81.55-10.14,4.78-1.81,5.74,1.7,8.84,5,10,2.53.92,4.17,1,5.83,1.51,5.75,1.81,10.1,7.5,15.24,9.12C1013,223.23,1022.91,218.2,1025.34,210.5Zm-42.46-8.66c1.75-5.55,7.41-4.55,7.41-4.55s-4.5,2.23-5.35,5,.48,6.64.48,6.64S981.72,205.5,982.88,201.84Z" transform="translate(-138.66)"/><ellipse class="cls-3" cx="1090.51" cy="140.43" rx="1.63" ry="1.93" transform="translate(352.72 1062.36) rotate(-64.32)"/><ellipse class="cls-3" cx="1092.16" cy="144.36" rx="1.69" ry="2.11" transform="translate(350.1 1066.08) rotate(-64.32)"/><ellipse class="cls-3" cx="1092.87" cy="148.45" rx="1.93" ry="2.23" transform="translate(346.82 1069.04) rotate(-64.32)"/><ellipse class="cls-3" cx="1092.56" cy="152.85" rx="2.05" ry="2.53" transform="translate(342.68 1071.25) rotate(-64.32)"/><ellipse class="cls-3" cx="1090.63" cy="157.55" rx="2.41" ry="3.07" transform="translate(337.36 1072.18) rotate(-64.32)"/><path class="cls-3" d="M1088.79,153.18c2.66-5.54-.21-13.48-4.34-15.47-3.7-1.77-9.07-.88-13.2-2.87-1.2-.57-2.14-1.39-4-2.2-2.44-1-6-1.15-8,3-1.46,3,.43,6.63,3.14,7.94,2.4,1.15,6-1.55,10.15.6s5,9.46,8.92,11.51A5.24,5.24,0,0,0,1088.79,153.18Z" transform="translate(-138.66)"/><path class="cls-3" d="M1061.64,130.76a5.27,5.27,0,0,0-6.36,2.91c-1.36,2.84,1.09,5.93,1.09,5.93s-.5-3.38.47-5.4S1061.64,130.76,1061.64,130.76Z" transform="translate(-138.66)"/><ellipse class="cls-3" cx="1061.81" cy="167.83" rx="1.63" ry="1.93" transform="translate(311.75 1052.03) rotate(-64.32)"/><ellipse class="cls-3" cx="1065.91" cy="166.67" rx="1.69" ry="2.11" transform="translate(315.13 1055.07) rotate(-64.32)"/><ellipse class="cls-3" cx="1069.55" cy="164.67" rx="1.93" ry="2.23" transform="translate(319 1057.21) rotate(-64.32)"/><ellipse class="cls-3" cx="1072.79" cy="161.68" rx="2.05" ry="2.53" transform="translate(323.53 1058.44) rotate(-64.32)"/><ellipse class="cls-3" cx="1075.26" cy="157.24" rx="2.41" ry="3.07" transform="translate(328.92 1058.15) rotate(-64.32)"/><path class="cls-3" d="M1070.7,158.53a5.25,5.25,0,0,0-2.65-7.29c-4.08-1.82-10.27,2.15-14.56.22s-4.41-6.4-6.8-7.55c-2.72-1.31-6.7-.55-8.16,2.5-2,4.13.32,6.84,2.66,8.1,1.81,1,3,1.19,4.23,1.77,4.13,2,6.79,6.74,10.49,8.52C1060,166.78,1068,164.07,1070.7,158.53Zm-31-11.12a5,5,0,0,1,6.08-2.63s-3.63,1.2-4.57,3.15-.36,5-.36,5S1038.38,150,1039.65,147.41Z" transform="translate(-138.66)"/><ellipse class="cls-3" cx="1052.76" cy="260.01" rx="1.49" ry="1.76" transform="translate(40.31 902.2) rotate(-50.19)"/><ellipse class="cls-3" cx="1053.34" cy="263.87" rx="1.54" ry="1.93" transform="translate(37.56 904.03) rotate(-50.19)"/><ellipse class="cls-3" cx="1053.06" cy="267.65" rx="1.76" ry="2.04" transform="translate(34.56 905.18) rotate(-50.19)"/><ellipse class="cls-3" cx="1051.8" cy="271.47" rx="1.87" ry="2.31" transform="translate(31.16 905.59) rotate(-50.19)"/><ellipse class="cls-3" cx="1049.05" cy="275.2" rx="2.2" ry="2.81" transform="translate(27.31 904.82) rotate(-50.19)"/><path class="cls-3" d="M1048.39,270.92c3.6-4.31,2.82-12-.39-14.66-2.88-2.4-7.84-2.81-11-5.49-.94-.77-1.58-1.71-3.08-2.85-1.93-1.46-5.06-2.35-7.74.86-2,2.37-1.1,6,1,7.73,1.87,1.55,5.63,0,8.86,2.79s2.27,9.49,5.33,12.19A4.78,4.78,0,0,0,1048.39,270.92Z" transform="translate(-138.66)"/><path class="cls-3" d="M1029.35,245a4.82,4.82,0,0,0-6.28,1.16c-1.84,2.21-.36,5.5-.36,5.5s.31-3.11,1.62-4.68S1029.35,245,1029.35,245Z" transform="translate(-138.66)"/><ellipse class="cls-3" cx="1021.23" cy="277.89" rx="1.49" ry="1.76" transform="translate(15.24 884.41) rotate(-50.19)"/><ellipse class="cls-3" cx="1025.13" cy="277.77" rx="1.54" ry="1.93" transform="translate(16.73 887.36) rotate(-50.19)"/><ellipse class="cls-3" cx="1028.79" cy="276.81" rx="1.76" ry="2.04" transform="translate(18.79 889.83) rotate(-50.19)"/><ellipse class="cls-3" cx="1032.33" cy="274.88" rx="1.87" ry="2.31" transform="translate(21.54 891.86) rotate(-50.19)"/><ellipse class="cls-3" cx="1035.5" cy="271.51" rx="2.2" ry="2.81" transform="translate(25.27 893.08) rotate(-50.19)"/><path class="cls-3" d="M1031.18,271.63a4.79,4.79,0,0,0-.72-7.05c-3.21-2.52-9.58-.39-13-3.05s-2.48-6.66-4.34-8.21c-2.11-1.76-5.81-2-7.78.4-2.68,3.21-1.24,6.13.55,7.77,1.38,1.26,2.42,1.73,3.35,2.51,3.22,2.68,4.51,7.48,7.39,9.88C1019.89,276.56,1027.58,275.94,1031.18,271.63Zm-25-16.77a4.57,4.57,0,0,1,6-1s-3.49.24-4.75,1.76-1.45,4.4-1.45,4.4S1004.45,256.91,1006.16,254.86Z" transform="translate(-138.66)"/><ellipse class="cls-3" cx="1091.01" cy="91.35" rx="0.85" ry="1.01" transform="translate(742.42 1165.86) rotate(-83.73)"/><ellipse class="cls-3" cx="1092.51" cy="93.01" rx="0.89" ry="1.11" transform="translate(742.11 1168.84) rotate(-83.73)"/><ellipse class="cls-3" cx="1093.58" cy="94.91" rx="1.01" ry="1.17" transform="translate(741.17 1171.59) rotate(-83.73)"/><ellipse class="cls-3" cx="1094.19" cy="97.14" rx="1.08" ry="1.33" transform="translate(739.5 1174.18) rotate(-83.73)"/><ellipse class="cls-3" cx="1094.06" cy="99.8" rx="1.26" ry="1.61" transform="translate(736.74 1176.42) rotate(-83.73)"/><path class="cls-3" d="M1092.38,98c.35-3.2-2.45-6.63-4.84-6.89-2.14-.24-4.64,1.14-7,.88-.69-.08-1.3-.32-2.38-.39a3,3,0,0,0-3.43,2.87,3.27,3.27,0,0,0,2.94,3.38c1.38.15,2.68-1.81,5.12-1.48s4.1,3.82,6.42,4.14A2.74,2.74,0,0,0,1092.38,98Z" transform="translate(-138.66)"/><path class="cls-3" d="M1075,91.6a2.77,2.77,0,0,0-2.63,2.55c-.18,1.64,1.57,2.74,1.57,2.74a6,6,0,0,1-.71-2.75C1073.4,92.93,1075,91.6,1075,91.6Z" transform="translate(-138.66)"/><ellipse class="cls-3" cx="1081.59" cy="109.91" rx="0.85" ry="1.01" transform="translate(715.58 1173.04) rotate(-83.73)"/><ellipse class="cls-3" cx="1083.42" cy="108.62" rx="0.89" ry="1.11" transform="translate(718.49 1173.7) rotate(-83.73)"/><ellipse class="cls-3" cx="1084.87" cy="107" rx="1.01" ry="1.17" transform="translate(721.4 1173.7) rotate(-83.73)"/><ellipse class="cls-3" cx="1085.95" cy="104.95" rx="1.08" ry="1.33" transform="translate(724.4 1172.95) rotate(-83.73)"/><ellipse class="cls-3" cx="1086.4" cy="102.33" rx="1.26" ry="1.61" transform="translate(727.4 1171.06) rotate(-83.73)"/><path class="cls-3" d="M1084.36,103.76a2.73,2.73,0,0,0-2.58-3.14c-2.33-.19-4.7,2.85-7.16,2.64s-3.3-2.39-4.68-2.55a3.26,3.26,0,0,0-3.6,2.66,3,3,0,0,0,2.73,3.55c1.06.16,1.71.06,2.4.13,2.39.27,4.53,2.16,6.67,2.39C1080.53,109.7,1084,107,1084.36,103.76Zm-17.29-.09a2.63,2.63,0,0,1,2.55-2.36s-1.59,1.23-1.72,2.36a5.56,5.56,0,0,0,.71,2.56S1066.9,105.2,1067.07,103.67Z" transform="translate(-138.66)"/></g></svg>