<?xml version="1.0" standalone="no"?>
<!DOCTYPE svg PUBLIC "-//W3C//DTD SVG 20010904//EN"
 "http://www.w3.org/TR/2001/REC-SVG-20010904/DTD/svg10.dtd">
<svg version="1.0" xmlns="http://www.w3.org/2000/svg"
 width="1024.000000pt" height="1024.000000pt" viewBox="0 0 1024.000000 1024.000000"
 preserveAspectRatio="xMidYMid meet">
<metadata>
Created by potrace 1.11, written by Peter Selinger 2001-2013
</metadata>
<g transform="translate(0.000000,1024.000000) scale(0.100000,-0.100000)"
fill="#000000" stroke="none">
<path d="M4341 10204 c0 -11 3 -14 6 -6 3 7 2 16 -1 19 -3 4 -6 -2 -5 -13z"/>
<path d="M4292 10199 c5 -12 -2 -15 -38 -12 -33 3 -46 0 -50 -12 -3 -8 -10
-12 -15 -9 -5 3 -7 10 -3 15 3 6 -3 5 -15 -3 -12 -7 -21 -17 -21 -22 0 -4 7
-3 15 4 9 7 15 8 15 2 0 -12 -29 -24 -40 -17 -5 3 -16 -8 -25 -25 -8 -16 -22
-30 -29 -30 -21 0 -40 -27 -24 -33 8 -3 6 -6 -5 -6 -13 -1 -17 -6 -12 -20 5
-16 2 -19 -17 -15 -13 2 -17 2 -10 -2 19 -9 14 -24 -5 -17 -17 7 -17 6 0 -20
9 -15 13 -27 7 -27 -5 0 -10 5 -10 11 0 8 -5 8 -15 -1 -8 -7 -15 -22 -15 -34
0 -17 2 -19 11 -6 8 12 10 12 7 1 -2 -8 -12 -15 -22 -17 -28 -4 -32 -14 -5
-15 13 0 18 -3 11 -6 -6 -2 -9 -10 -5 -16 5 -8 2 -8 -8 0 -13 10 -16 10 -16
-2 0 -8 3 -15 7 -15 4 0 7 -7 7 -15 0 -12 -3 -12 -15 -2 -13 10 -14 9 -5 -8 9
-15 8 -22 -5 -33 -10 -7 -11 -11 -4 -7 15 8 16 -7 0 -23 -9 -9 -9 -12 2 -12
13 0 13 -1 0 -9 -8 -6 -18 -7 -22 -5 -4 3 -5 -2 -1 -11 4 -13 7 -14 14 -3 6
10 10 10 19 0 5 -6 7 -10 4 -7 -4 3 -13 -3 -20 -13 -9 -13 -10 -20 -1 -31 9
-11 9 -13 0 -8 -6 4 -15 2 -19 -4 -4 -7 -3 -9 3 -6 7 4 10 -12 10 -43 0 -31
-3 -47 -10 -43 -6 3 -7 1 -3 -6 6 -9 11 -9 21 -1 10 8 15 8 21 -1 5 -8 3 -9
-6 -4 -10 6 -12 4 -7 -9 4 -9 3 -15 -1 -12 -5 3 -9 -1 -9 -9 0 -8 3 -12 7 -10
3 2 12 -5 19 -17 7 -11 8 -17 3 -14 -16 10 -21 -32 -5 -51 13 -17 13 -16 4 4
-6 12 -7 24 -3 27 5 3 9 0 9 -7 1 -22 8 -42 18 -49 6 -5 5 -8 -2 -8 -7 0 -13
-5 -13 -12 0 -6 3 -8 7 -5 3 4 12 -1 19 -11 9 -13 10 -20 1 -31 -9 -12 -9 -13
1 -7 8 5 12 1 12 -12 0 -11 7 -22 15 -26 8 -3 15 -11 15 -18 0 -9 -3 -9 -11 2
-9 12 -10 12 -5 -3 3 -10 6 -21 6 -24 0 -3 7 0 15 7 13 11 14 10 9 -5 -6 -14
-4 -16 6 -10 9 5 11 4 6 -3 -4 -7 0 -12 11 -13 10 0 13 -3 6 -6 -21 -8 -15
-22 7 -18 13 2 20 -2 20 -11 0 -8 -4 -12 -10 -9 -5 3 -10 1 -10 -4 0 -15 13
-14 29 2 11 10 13 10 7 0 -4 -7 -2 -13 4 -13 6 0 8 -5 4 -12 -6 -10 -5 -10 7
-1 11 9 18 8 33 -3 10 -7 23 -11 29 -7 6 3 7 2 4 -3 -3 -6 -2 -16 4 -24 6 -11
9 -11 9 -2 0 10 3 10 14 0 8 -7 11 -17 8 -22 -3 -5 0 -6 7 -2 8 6 9 12 2 20
-8 9 -7 13 4 13 8 0 12 -4 9 -8 -2 -4 6 -13 18 -20 21 -11 22 -11 9 5 -12 14
-12 16 3 10 9 -3 16 -9 16 -13 0 -4 7 -8 15 -8 8 0 12 4 9 9 -3 4 0 8 5 8 6 0
11 -4 11 -10 0 -5 5 -10 11 -10 5 0 7 4 4 10 -4 6 1 7 11 3 13 -5 15 -3 9 8
-5 8 1 5 13 -5 12 -11 25 -16 29 -13 3 4 1 7 -5 7 -7 0 -12 7 -12 16 0 14 2
14 15 0 14 -14 18 -14 34 2 10 9 16 21 13 26 -3 5 0 6 7 2 9 -6 8 -13 -6 -29
-15 -18 -15 -20 -1 -8 9 7 22 10 27 7 6 -4 8 4 5 20 -4 24 -3 25 11 10 19 -18
35 -21 35 -5 0 5 -4 7 -10 4 -5 -3 -10 1 -10 9 0 12 5 14 23 7 17 -7 24 -6 24
4 0 7 -7 11 -16 8 -12 -3 -12 -2 2 7 9 6 22 8 27 5 6 -3 10 1 10 9 0 19 16 21
24 4 4 -9 5 -8 5 2 -3 39 2 52 15 47 10 -4 14 0 11 13 -3 14 1 17 13 13 15 -6
16 -5 2 12 -14 17 -14 18 6 7 19 -10 21 -9 16 15 -4 21 -2 25 12 20 14 -6 15
-3 5 14 -9 17 -8 25 6 38 10 9 15 11 12 5 -3 -6 0 -11 7 -11 11 0 12 4 3 18
-6 10 -15 15 -21 12 -5 -3 -6 -1 -2 6 4 6 11 9 16 6 11 -7 23 31 15 45 -3 5 2
10 12 10 10 0 14 3 8 8 -15 10 -13 37 3 37 6 0 12 5 11 10 0 6 -8 8 -17 7 -13
-3 -12 1 6 18 22 21 30 36 13 26 -5 -3 -12 1 -15 10 -3 8 -2 12 4 9 6 -3 10
-1 10 5 0 6 5 8 12 4 7 -4 8 -3 4 5 -4 6 -11 9 -15 7 -4 -3 -8 1 -8 9 0 8 4
12 9 9 4 -3 8 0 8 5 0 6 -8 11 -17 12 -15 0 -15 2 2 9 11 5 15 9 8 9 -12 1
-10 31 2 51 3 6 2 10 -4 10 -5 0 -12 -6 -15 -12 -3 -7 -3 -3 -1 9 3 12 2 24
-4 27 -5 3 -8 14 -6 24 1 9 -3 23 -9 31 -8 11 -8 13 1 8 6 -4 14 -3 18 3 3 5
0 10 -8 10 -8 0 -18 7 -21 16 -5 14 -4 15 9 4 13 -11 14 -10 9 4 -3 9 -11 16
-16 16 -6 0 -8 13 -6 30 4 24 2 27 -9 18 -8 -6 -13 -7 -12 -2 6 34 -3 64 -18
63 -11 0 -13 -3 -5 -6 16 -6 15 -20 -2 -20 -8 0 -13 8 -11 18 2 10 0 21 -5 24
-4 3 -6 15 -3 28 4 18 3 19 -7 7 -10 -12 -11 -11 -7 7 3 13 0 26 -5 30 -7 3
-8 1 -4 -5 4 -7 2 -12 -3 -12 -10 0 -16 21 -12 42 0 4 -7 4 -17 1 -9 -3 -14
-3 -10 2 11 12 -40 48 -59 41 -13 -5 -14 -4 -4 8 9 11 9 16 0 22 -7 4 -9 3 -6
-3 4 -6 0 -13 -8 -16 -9 -4 -12 -1 -8 9 5 12 -7 19 -29 15 -5 0 -8 4 -8 10 0
5 -5 7 -11 3 -6 -3 -15 -1 -19 7 -5 7 -22 13 -39 14 -16 1 -28 -2 -25 -7 3 -5
9 -6 14 -3 5 3 11 1 15 -4 6 -10 -27 -7 -44 4 -5 3 -13 1 -16 -5 -5 -8 -11 -7
-21 1 -8 6 -14 8 -14 4 0 -4 -8 -1 -17 6 -14 12 -16 12 -11 -2z m198 -43 c-7
-7 -13 -7 -20 0 -6 6 -3 10 10 10 13 0 16 -4 10 -10z m89 -40 c9 -11 9 -16 0
-22 -7 -4 -9 -3 -5 4 3 6 -2 15 -11 21 -10 6 -13 11 -7 11 6 0 17 -6 23 -14z
m-632 -481 c0 -8 -4 -12 -9 -9 -5 3 -6 10 -3 15 9 13 12 11 12 -6z"/>
<path d="M3423 10063 c-7 -3 -13 -11 -13 -19 0 -9 -5 -12 -10 -9 -6 4 -7 12
-3 18 4 7 0 6 -10 -2 -9 -7 -17 -10 -17 -6 0 4 -6 3 -13 -4 -10 -8 -17 -7 -27
2 -12 10 -12 9 -1 -6 11 -13 17 -15 27 -6 10 8 14 8 14 0 0 -6 -4 -12 -10 -12
-5 -1 -16 -2 -22 -3 -7 -1 -17 3 -21 9 -5 6 -7 1 -4 -12 4 -16 1 -20 -11 -16
-11 5 -13 3 -7 -6 6 -10 3 -11 -15 -1 -15 8 -20 8 -16 1 4 -6 3 -11 -3 -11 -6
0 -8 -7 -4 -15 3 -10 0 -15 -8 -13 -8 2 -13 -4 -13 -14 1 -10 -1 -17 -5 -16
-28 3 -49 -27 -42 -62 2 -8 0 -12 -5 -8 -10 10 -37 -29 -29 -42 3 -6 1 -10 -5
-10 -7 0 -8 -6 -1 -19 13 -23 3 -35 -16 -19 -12 10 -13 7 -7 -17 5 -19 3 -26
-4 -21 -7 4 -10 -2 -9 -14 1 -11 5 -20 9 -20 4 0 8 -5 8 -11 0 -5 -4 -7 -10
-4 -5 3 -10 1 -10 -5 0 -6 -5 -8 -12 -4 -7 4 -8 3 -4 -5 4 -6 11 -9 16 -6 5 3
12 0 16 -6 5 -8 3 -9 -6 -4 -10 6 -12 4 -7 -8 4 -10 1 -17 -6 -17 -7 0 -8 -3
-2 -8 12 -9 16 -44 4 -36 -5 3 -6 -2 -3 -10 3 -9 11 -13 17 -9 6 4 7 1 1 -8
-17 -27 -13 -40 9 -34 17 5 19 4 7 -4 -8 -6 -11 -11 -7 -11 4 0 3 -9 -3 -20
-9 -16 -8 -19 6 -13 12 4 15 3 10 -5 -9 -15 2 -54 14 -47 10 6 8 -15 -4 -34
-6 -9 -5 -12 2 -7 6 3 13 2 17 -4 4 -6 11 -7 17 -4 7 4 8 2 4 -5 -4 -6 -12 -9
-17 -6 -5 4 -9 1 -9 -4 0 -10 14 -15 33 -12 5 1 6 -3 2 -9 -3 -5 -1 -10 6 -10
7 0 9 -3 6 -6 -4 -4 -13 -1 -21 5 -11 9 -16 9 -22 0 -4 -7 -3 -9 3 -6 6 4 14
0 17 -9 3 -8 10 -13 15 -9 11 6 26 -32 23 -55 -2 -11 1 -10 8 3 6 9 16 15 21
11 6 -4 6 -11 -1 -19 -9 -11 -6 -12 12 -8 19 4 20 3 8 -7 -12 -10 -11 -11 8
-7 20 5 22 3 10 -11 -8 -10 -9 -13 -1 -9 6 4 14 3 18 -3 3 -5 16 -15 28 -21
20 -9 20 -9 -2 9 -18 14 -21 21 -11 27 8 5 11 4 7 -2 -8 -13 20 -26 35 -16 7
3 8 1 4 -5 -4 -7 -1 -12 9 -12 10 0 13 -5 9 -12 -4 -6 -3 -8 4 -4 5 3 12 3 15
-1 2 -5 2 -2 1 5 -2 6 1 12 6 12 6 0 10 -4 10 -10 0 -5 5 -10 11 -10 5 0 8 4
5 8 -2 4 5 9 17 9 12 1 34 4 49 6 15 2 25 0 22 -5 -3 -5 -13 -7 -23 -3 -12 5
-13 4 -4 -6 9 -9 16 -9 26 -1 8 7 17 9 21 5 4 -4 4 1 0 12 -7 18 -6 19 11 5
14 -11 17 -11 11 -1 -7 10 -3 12 13 6 18 -5 24 -2 28 14 3 12 12 21 19 21 8 0
14 5 14 11 0 8 4 8 14 0 11 -10 14 -9 12 1 -1 7 -6 19 -10 27 -6 9 -5 12 1 8
6 -4 16 0 23 9 7 8 20 12 28 9 12 -4 13 -3 2 10 -11 13 -10 14 3 10 8 -4 18
-1 23 6 4 8 3 10 -4 5 -7 -4 -12 -2 -12 5 0 7 8 9 21 6 17 -4 19 -3 10 6 -13
13 -15 31 -2 22 5 -3 13 0 17 6 4 7 3 9 -4 5 -6 -3 -13 -2 -17 4 -3 6 4 10 16
10 22 0 22 0 3 16 -10 8 -13 12 -5 8 11 -5 13 -3 8 10 -4 9 -3 15 1 12 4 -3
14 4 21 16 7 11 8 17 2 13 -6 -3 -11 -2 -11 4 0 5 6 12 13 15 10 5 10 7 0 12
-7 3 -13 11 -13 16 0 6 3 8 7 5 9 -10 32 25 26 40 -3 7 -9 10 -14 7 -5 -3 -6
2 -3 10 3 8 13 17 22 19 16 4 16 5 1 6 -11 1 -16 9 -15 25 1 20 4 22 15 13 12
-10 12 -9 3 9 -6 12 -8 25 -4 30 4 5 -1 2 -11 -5 -15 -12 -17 -12 -11 3 3 9 0
24 -7 34 -11 14 -11 15 1 5 23 -21 35 -15 15 7 -11 12 -13 20 -6 20 7 0 9 5 6
10 -5 8 -12 7 -22 -2 -15 -12 -15 -11 -3 9 8 12 18 19 24 16 5 -3 6 -1 2 6 -4
6 -12 8 -18 5 -7 -5 -9 0 -6 14 4 12 1 25 -4 29 -6 3 -8 1 -4 -5 3 -6 2 -13
-3 -16 -10 -7 -9 20 2 30 4 4 7 12 7 18 0 6 -5 4 -10 -4 -7 -11 -10 -11 -10
-2 0 7 -5 10 -12 6 -6 -4 -8 -3 -4 4 3 5 3 12 -1 15 -5 2 -3 2 4 1 6 -2 14 3
16 10 3 8 -1 13 -11 12 -9 0 -16 5 -14 12 2 11 -11 17 -33 12 -5 -1 -4 4 3 11
6 7 12 18 12 23 0 6 -5 5 -12 -2 -15 -15 -28 -15 -28 -1 0 5 5 7 10 4 6 -3 10
1 10 9 0 9 -7 13 -20 11 -14 -3 -20 2 -20 13 0 24 -54 54 -70 38 -10 -8 -11
-8 -6 2 5 7 1 12 -9 12 -9 0 -14 4 -11 8 2 4 -5 9 -17 9 -17 2 -19 0 -7 -7 12
-8 10 -9 -7 -7 -12 2 -26 7 -30 12 -5 4 -2 5 4 1 9 -5 11 -2 6 10 -4 11 -8 13
-11 6 -2 -7 -10 -12 -17 -12 -7 0 -16 -6 -18 -12 -3 -7 -6 -2 -7 12 -1 25 -1
25 -10 3 -6 -15 -15 -21 -25 -17 -8 3 -12 11 -9 16 4 6 10 5 15 -3 6 -10 9
-10 9 -2 0 15 -11 22 -27 16z m231 -71 c3 -5 -1 -9 -9 -9 -8 0 -12 4 -9 9 3 4
7 8 9 8 2 0 6 -4 9 -8z m-513 -285 c-10 -9 -11 -8 -5 6 3 10 9 15 12 12 3 -3
0 -11 -7 -18z m679 -173 c0 -8 -19 -13 -24 -6 -3 5 1 9 9 9 8 0 15 -2 15 -3z"/>
<path d="M4675 10000 c3 -5 11 -10 16 -10 6 0 7 5 4 10 -3 6 -11 10 -16 10 -6
0 -7 -4 -4 -10z"/>
<path d="M4766 9758 c3 -4 9 -8 15 -8 5 0 9 4 9 8 0 5 -7 9 -15 9 -8 0 -12 -4
-9 -9z"/>
<path d="M2726 9703 c-2 -2 -23 -6 -47 -9 -24 -4 -52 -10 -62 -16 -9 -5 -21
-6 -26 -3 -5 3 -8 -6 -7 -19 2 -17 -1 -23 -10 -19 -8 3 -11 10 -7 16 3 6 1 7
-5 3 -7 -4 -12 -14 -12 -22 0 -10 -5 -12 -12 -8 -9 5 -8 2 1 -9 8 -10 11 -20
7 -24 -3 -3 -6 -1 -6 5 0 7 -4 12 -10 12 -5 0 -10 -7 -10 -16 0 -8 -4 -12 -10
-9 -5 3 -10 1 -10 -6 0 -8 -5 -7 -17 2 -16 13 -17 12 -4 -3 7 -10 17 -15 22
-12 5 3 9 1 9 -5 0 -5 -10 -11 -22 -13 -19 -2 -22 -8 -20 -33 2 -24 1 -27 -8
-15 -9 12 -11 10 -7 -12 2 -16 0 -25 -6 -21 -5 3 -6 -3 -2 -16 4 -13 2 -21 -5
-21 -6 0 -9 4 -5 9 3 5 1 12 -4 15 -5 4 -8 -2 -6 -11 1 -10 -1 -23 -6 -29 -5
-6 -4 -25 1 -43 10 -37 3 -64 -14 -54 -6 4 -4 -1 4 -11 16 -21 23 -49 9 -40
-5 3 -7 10 -4 15 4 5 1 9 -4 9 -15 0 -14 -16 4 -33 8 -8 15 -31 17 -50 1 -20
6 -33 10 -31 4 3 8 -4 8 -16 0 -12 5 -18 10 -15 6 3 10 -1 10 -10 0 -10 5 -13
12 -9 6 4 8 3 4 -4 -3 -6 -2 -13 4 -17 6 -4 8 -11 5 -16 -4 -5 -2 -9 4 -9 6 0
8 -7 5 -15 -5 -11 -2 -13 11 -9 15 6 16 4 6 -14 -10 -19 -9 -21 5 -15 13 5 15
3 9 -8 -8 -12 -6 -12 8 0 10 8 20 11 24 7 3 -3 1 -6 -5 -6 -6 0 -9 -10 -7 -21
6 -29 11 -33 19 -14 4 11 2 14 -6 9 -7 -5 -8 -3 -4 5 6 9 12 9 25 -3 10 -9 21
-13 26 -9 4 5 5 2 1 -4 -4 -7 -2 -13 3 -13 6 0 11 -6 11 -14 0 -9 8 -12 25 -8
14 2 25 0 25 -6 0 -6 11 -9 24 -8 14 2 27 -3 30 -11 5 -12 9 -12 27 0 15 11
29 13 50 7 18 -5 27 -5 24 1 -4 5 -1 9 5 9 6 0 8 5 4 12 -5 7 -3 8 6 3 7 -4
16 -2 21 6 7 11 9 11 9 1 0 -7 5 -10 10 -7 6 4 7 11 4 17 -5 8 -1 9 11 4 15
-5 16 -4 6 8 -9 11 -9 16 0 22 7 4 9 3 5 -4 -4 -6 1 -10 13 -9 12 1 22 11 26
24 3 13 10 23 15 23 5 0 7 8 3 18 -5 14 -3 14 11 -3 10 -11 15 -14 11 -7 -3 6
-1 12 6 12 7 0 4 7 -7 16 -10 8 -14 13 -8 10 6 -3 20 2 30 10 10 9 12 13 4 9
-8 -4 -6 1 4 9 18 15 18 16 2 16 -9 0 -14 5 -11 10 4 6 10 8 15 5 5 -3 11 -1
15 5 3 5 0 10 -7 10 -9 0 -9 3 -2 8 17 12 23 39 11 51 -9 9 -8 11 6 5 13 -5
16 -2 11 10 -4 11 1 19 17 25 16 7 18 10 8 10 -17 1 -34 29 -24 39 3 3 5 -1 5
-8 0 -17 13 -4 16 16 2 11 -3 14 -14 10 -13 -5 -12 -2 2 9 16 12 17 15 4 15
-11 0 -15 6 -11 21 5 16 8 18 15 7 8 -10 9 -10 5 2 -2 8 -9 14 -14 13 -6 -1
-15 9 -22 23 -6 15 -7 23 -1 19 5 -3 10 1 10 10 0 8 -7 18 -16 22 -13 5 -13 7
-2 14 11 7 11 9 -1 9 -8 0 -11 6 -7 18 5 14 3 13 -10 -3 -15 -19 -15 -19 -9 7
5 21 3 29 -9 34 -22 8 -20 25 2 18 14 -5 14 -4 2 4 -8 6 -18 9 -22 6 -4 -3
-16 9 -26 25 -10 17 -22 28 -25 24 -4 -3 -7 4 -7 16 0 12 -4 19 -10 16 -6 -4
-7 -12 -3 -18 4 -7 0 -6 -10 2 -9 7 -17 19 -17 25 0 6 5 4 10 -4 6 -9 10 -10
10 -3 0 17 -14 23 -30 13 -10 -6 -23 -1 -42 17 -27 26 -41 20 -15 -6 10 -11 8
-11 -10 0 -12 7 -19 17 -17 21 3 4 3 8 -1 8 -3 0 -10 -10 -15 -22 l-9 -23 0
22 c-1 16 -7 21 -21 20 -12 -1 -22 -3 -24 -4z m-96 -38 c-7 -9 -15 -13 -19
-10 -3 3 1 10 9 15 21 14 24 12 10 -5z m-184 -257 c5 -7 3 -8 -6 -3 -10 6 -12
4 -6 -11 5 -14 4 -16 -5 -7 -6 6 -8 16 -5 22 9 14 13 14 22 -1z m307 -473 c-3
-9 -8 -14 -10 -11 -3 3 -2 9 2 15 9 16 15 13 8 -4z"/>
<path d="M2855 9691 c-3 -5 -2 -12 3 -15 5 -3 9 1 9 9 0 17 -3 19 -12 6z"/>
<path d="M2967 9603 c3 -7 8 -13 12 -13 4 0 8 6 8 13 0 8 -6 14 -13 14 -7 0
-10 -6 -7 -14z"/>
<path d="M3065 9420 c-3 -6 1 -7 9 -4 18 7 21 14 7 14 -6 0 -13 -4 -16 -10z"/>
<path d="M2396 9361 c-3 -5 1 -14 9 -21 10 -9 15 -9 15 -1 0 6 -5 11 -11 11
-5 0 -7 5 -4 10 3 6 4 10 1 10 -3 0 -7 -4 -10 -9z"/>
<path d="M3980 9360 c0 -5 5 -10 11 -10 5 0 7 5 4 10 -3 6 -8 10 -11 10 -2 0
-4 -4 -4 -10z"/>
<path d="M4710 9360 c0 -5 5 -10 11 -10 5 0 7 5 4 10 -3 6 -8 10 -11 10 -2 0
-4 -4 -4 -10z"/>
<path d="M3690 9265 c-8 -9 -8 -15 -2 -15 12 0 26 19 19 26 -2 2 -10 -2 -17
-11z"/>
<path d="M2077 9259 c-9 -5 -21 -7 -27 -4 -5 3 -7 -3 -5 -15 2 -11 -1 -22 -6
-26 -5 -3 -9 -2 -8 3 5 29 -4 34 -17 10 -9 -17 -21 -26 -29 -23 -8 3 -17 0
-21 -6 -5 -7 -2 -8 6 -3 9 6 11 4 5 -4 -4 -7 -16 -10 -27 -8 -16 4 -17 3 -7
-9 6 -8 8 -14 3 -14 -5 0 -2 -5 6 -11 12 -8 11 -9 -6 -4 -18 5 -21 1 -19 -24
1 -19 -2 -28 -11 -24 -6 2 -15 -1 -20 -8 -4 -7 -3 -10 2 -6 5 3 10 -3 10 -13
0 -17 -2 -18 -16 -5 -15 13 -17 13 -17 0 0 -8 5 -15 10 -15 5 0 4 -6 -2 -14
-9 -11 -9 -15 1 -19 9 -4 8 -6 -3 -6 -22 -1 -33 -30 -14 -37 8 -4 15 -10 15
-15 0 -6 -10 -5 -21 2 -16 8 -20 8 -14 0 4 -7 1 -20 -6 -29 -11 -14 -11 -15 1
-4 8 6 18 12 23 12 4 0 5 -6 0 -12 -4 -7 -8 -22 -8 -33 0 -12 -6 -19 -14 -17
-12 3 -12 0 -1 -12 15 -19 24 -21 14 -4 -4 7 -3 8 5 4 7 -5 9 -12 3 -19 -11
-15 -12 -47 -1 -47 5 0 5 -7 2 -17 -4 -10 -2 -14 5 -9 6 3 14 1 18 -5 4 -8 3
-9 -4 -5 -19 12 -14 -15 6 -30 14 -12 15 -13 1 -8 -10 3 -20 0 -24 -6 -3 -6
-3 -10 2 -9 4 1 17 1 28 -1 l20 -1 -20 -9 c-19 -8 -19 -9 -1 -9 13 -1 17 -6
13 -21 -4 -17 -2 -18 14 -9 13 6 19 6 19 -1 0 -5 -6 -10 -12 -10 -7 -1 -1 -8
15 -16 29 -16 34 -29 15 -37 -9 -4 -8 -6 2 -6 9 -1 22 5 30 12 8 6 6 1 -5 -12
-11 -14 -15 -21 -8 -18 6 4 18 -2 27 -15 9 -12 16 -18 16 -12 0 5 -5 15 -10
20 -7 7 -6 11 4 11 8 0 14 -3 12 -6 -2 -3 0 -15 5 -26 6 -16 8 -17 8 -3 1 9 5
19 10 22 4 3 7 -6 5 -19 -2 -22 0 -23 17 -15 15 9 19 7 19 -7 1 -17 1 -17 11
0 5 9 15 17 22 17 8 0 8 -3 -1 -9 -11 -7 -11 -9 2 -14 11 -4 16 -1 16 11 0 14
2 15 9 2 6 -8 7 -18 5 -22 -3 -4 -3 -8 1 -8 3 0 10 10 15 23 6 15 9 17 9 5 1
-22 28 -17 47 10 8 12 21 22 27 22 7 0 3 -7 -7 -15 -11 -8 -16 -15 -10 -15 18
0 35 17 37 37 0 11 7 20 14 20 10 0 10 -4 1 -14 -6 -7 -8 -16 -4 -20 3 -3 6
-1 6 6 0 7 5 9 10 6 6 -4 10 -3 9 2 -1 4 -1 17 0 28 l2 20 15 -20 c16 -20 16
-19 9 4 -5 18 -4 22 6 16 9 -6 11 -4 6 8 -3 9 -2 19 3 22 4 3 11 -1 13 -7 3
-8 6 -6 6 5 1 9 -4 17 -11 17 -6 0 -8 3 -5 6 4 4 14 1 24 -7 9 -8 14 -9 10 -2
-4 7 0 17 10 23 15 9 14 10 -7 5 -21 -5 -22 -4 -7 5 10 6 14 16 10 23 -4 7 2
5 12 -3 17 -14 18 -14 6 9 -11 19 -11 22 0 16 9 -6 10 -3 5 10 -6 16 -4 16 11
4 14 -11 15 -12 9 0 -5 8 -3 17 5 23 10 6 6 7 -11 3 -14 -3 -20 -3 -14 2 6 4
10 16 8 26 -1 9 2 15 7 11 5 -3 7 -10 4 -15 -4 -5 -1 -9 4 -9 14 0 14 6 -1 33
-10 20 -9 21 5 9 13 -11 15 -10 10 9 -5 17 -3 20 7 14 8 -5 11 -4 6 3 -4 6
-14 9 -24 6 -14 -5 -14 -4 -3 4 12 8 12 13 2 25 -8 10 -9 17 -1 22 5 3 10 13
10 21 0 8 -4 13 -8 10 -5 -3 -9 1 -9 9 0 8 5 11 11 8 6 -3 5 0 -1 8 -16 17
-17 51 -1 67 9 9 9 12 0 12 -7 0 -12 -4 -12 -10 0 -5 -4 -10 -10 -10 -5 0 -9
10 -7 23 1 15 -3 22 -15 21 -16 -2 -16 1 -3 34 9 19 13 37 11 39 -2 3 -7 -5
-11 -17 -6 -20 -8 -21 -26 -4 -21 19 -27 50 -6 38 8 -5 8 -2 -2 9 -15 18 -26
23 -16 7 3 -5 1 -10 -4 -10 -6 0 -11 5 -11 11 0 5 -4 7 -10 4 -6 -4 -7 1 -3
11 5 13 3 15 -7 9 -10 -6 -12 -4 -7 9 4 10 3 15 -3 11 -6 -3 -13 1 -16 10 -5
13 -8 14 -15 3 -6 -10 -12 -9 -24 7 -13 15 -15 16 -12 3 7 -19 -16 -18 -41 3
-21 17 -55 22 -45 6 4 -7 0 -8 -12 -4 -9 4 -24 2 -31 -4 -12 -10 -13 -9 -8 5
7 19 5 19 -19 5z m208 -39 c3 -5 1 -10 -4 -10 -6 0 -11 5 -11 10 0 6 2 10 4
10 3 0 8 -4 11 -10z m-75 -690 c0 -5 -2 -10 -4 -10 -3 0 -8 5 -11 10 -3 6 -1
10 4 10 6 0 11 -4 11 -10z"/>
<path d="M2202 9256 c7 -8 15 -12 17 -11 5 6 -10 25 -20 25 -5 0 -4 -6 3 -14z"/>
<path d="M4150 9151 c0 -5 5 -13 10 -16 6 -3 10 -2 10 4 0 5 -4 13 -10 16 -5
3 -10 2 -10 -4z"/>
<path d="M2365 9140 c3 -5 8 -10 11 -10 2 0 4 5 4 10 0 6 -5 10 -11 10 -5 0
-7 -4 -4 -10z"/>
<path d="M4180 9131 c0 -6 4 -13 10 -16 6 -3 7 1 4 9 -7 18 -14 21 -14 7z"/>
<path d="M2470 9100 c0 -5 5 -10 11 -10 5 0 7 5 4 10 -3 6 -8 10 -11 10 -2 0
-4 -4 -4 -10z"/>
<path d="M3794 9072 c4 -7 2 -12 -4 -12 -6 0 -8 -6 -5 -12 4 -7 -1 -4 -9 6
-12 15 -16 16 -16 5 0 -12 -2 -12 -9 0 -7 11 -10 9 -14 -10 -4 -20 -4 -21 -6
-3 -1 16 -8 21 -31 21 -17 0 -26 -3 -20 -7 7 -5 4 -9 -8 -12 -16 -5 -19 -2
-15 11 5 13 3 14 -8 4 -15 -15 -33 -17 -24 -4 3 6 -3 9 -14 8 -15 -1 -17 -4
-9 -14 15 -18 -2 -16 -23 3 -16 15 -17 14 -13 -8 2 -12 2 -17 -2 -10 -7 14
-34 17 -34 3 0 -13 -25 -8 -46 9 -10 8 -15 10 -11 3 10 -16 -11 -27 -27 -14
-10 8 -17 6 -30 -7 -9 -10 -13 -22 -9 -26 4 -4 -5 -3 -19 3 -22 8 -29 7 -36
-6 -6 -11 -18 -14 -36 -11 -23 5 -25 3 -14 -11 7 -9 8 -13 4 -9 -5 4 -16 2
-24 -5 -13 -9 -14 -9 -8 0 5 9 0 12 -17 11 -18 -2 -24 -7 -22 -20 2 -11 -1
-15 -10 -12 -7 3 -16 1 -19 -5 -4 -6 -13 -8 -21 -4 -8 3 -15 1 -15 -4 0 -6
-13 -9 -30 -8 -24 1 -28 -1 -19 -12 14 -17 -2 -17 -20 0 -11 10 -12 9 -6 -2 6
-11 4 -13 -9 -8 -9 4 -15 3 -13 -1 3 -4 -5 -16 -16 -27 -11 -11 -17 -15 -14
-9 4 7 0 14 -8 17 -10 4 -12 1 -8 -11 6 -15 5 -16 -12 -2 -17 14 -18 14 -7 -7
11 -21 11 -21 -19 -13 -28 8 -30 8 -18 -8 7 -9 10 -14 5 -10 -11 9 -48 -10
-41 -21 2 -5 -3 -15 -12 -22 -15 -12 -16 -12 -8 1 13 20 15 40 5 40 -4 0 -10
-10 -13 -22 -5 -19 -8 -20 -23 -7 -12 9 -15 10 -10 2 4 -7 2 -14 -3 -14 -6 -1
-15 -2 -20 -3 -5 0 -19 -12 -31 -26 -12 -14 -19 -20 -16 -14 3 6 -1 11 -9 11
-11 0 -12 -5 -3 -21 10 -18 9 -19 -4 -8 -13 10 -16 9 -20 -6 -3 -10 -12 -19
-21 -19 -9 0 -14 4 -11 9 3 5 10 6 15 3 5 -3 6 1 3 9 -5 13 -9 12 -24 -7 -13
-16 -15 -24 -7 -29 17 -11 -1 -10 -22 1 -13 7 -18 6 -18 -4 0 -8 5 -11 10 -8
6 3 7 1 3 -6 -6 -9 -11 -9 -24 1 -12 10 -14 10 -8 1 4 -8 2 -13 -4 -13 -6 0
-8 -5 -4 -12 5 -9 2 -8 -9 1 -15 12 -17 12 -12 -1 5 -13 -22 -47 -32 -40 -9 6
-24 1 -19 -7 4 -5 -6 -8 -21 -6 -25 3 -26 2 -8 -11 21 -16 13 -19 -14 -5 -13
7 -18 6 -19 -5 -1 -7 -3 -20 -4 -27 -1 -9 -10 -12 -26 -9 -17 3 -23 1 -18 -7
4 -6 0 -11 -10 -11 -16 0 -16 -1 2 -15 18 -13 18 -14 -5 -8 -19 5 -22 3 -16
-8 8 -12 6 -12 -9 0 -9 8 -16 9 -14 3 2 -6 -6 -18 -17 -27 -11 -9 -14 -13 -6
-9 9 5 12 3 7 -4 -5 -9 -13 -9 -29 -1 -12 7 -19 8 -15 4 4 -5 3 -14 -3 -21 -6
-8 -8 -21 -5 -30 5 -14 4 -15 -9 -4 -19 15 -47 -3 -38 -26 3 -7 -2 -17 -11
-20 -9 -3 -14 -10 -11 -14 3 -5 -6 -7 -19 -6 -19 2 -24 -1 -21 -16 2 -10 0
-16 -6 -13 -9 6 -14 -9 -9 -30 1 -5 -9 -1 -21 10 l-22 20 11 -21 c13 -24 5
-39 -13 -24 -9 8 -12 4 -10 -15 2 -14 -1 -23 -6 -19 -5 3 -6 10 -3 16 4 7 2 8
-5 4 -6 -4 -9 -12 -6 -17 4 -5 1 -10 -4 -10 -26 -3 -30 -4 -37 -11 -3 -4 3 -6
14 -3 12 2 24 0 26 -4 3 -4 0 -8 -7 -9 -36 -3 -51 -11 -53 -27 -3 -22 -22 -35
-43 -28 -14 4 -14 3 -1 -5 8 -6 18 -8 24 -5 5 3 6 1 2 -5 -4 -7 -16 -12 -27
-12 -10 0 -19 -5 -19 -11 0 -5 5 -7 12 -3 7 5 8 3 4 -5 -5 -7 -14 -10 -22 -7
-17 7 -28 -10 -13 -20 8 -5 9 -3 4 6 -6 9 -4 11 4 5 17 -10 1 -26 -28 -28 -11
-1 -21 -5 -21 -10 0 -5 6 -7 13 -4 8 3 14 -1 14 -8 0 -7 -8 -10 -18 -8 -9 3
-20 -1 -25 -8 -5 -9 -2 -11 9 -6 10 3 17 4 17 1 0 -2 -12 -9 -26 -14 -18 -7
-24 -15 -20 -26 5 -12 2 -15 -10 -10 -15 6 -15 4 -3 -11 12 -14 12 -16 0 -8
-11 6 -13 4 -8 -9 4 -10 3 -15 -3 -11 -9 6 -14 -7 -11 -27 0 -4 -6 -5 -14 -2
-9 4 -15 0 -15 -10 0 -9 5 -16 12 -16 6 0 8 -3 5 -6 -4 -4 -15 -1 -24 7 -10 7
-15 9 -11 5 4 -5 3 -15 -4 -23 -9 -11 -7 -12 8 -7 18 5 18 5 1 -6 -9 -6 -15
-15 -12 -21 4 -5 0 -9 -8 -9 -8 0 -18 -7 -21 -16 -5 -14 -4 -15 8 -5 11 9 16
9 22 0 4 -7 3 -9 -3 -6 -15 9 -37 -19 -30 -37 4 -11 1 -13 -11 -9 -14 6 -15 4
-4 -9 13 -16 7 -48 -10 -48 -6 0 -6 6 1 14 9 11 9 16 0 22 -8 4 -9 3 -5 -4 4
-7 3 -12 -2 -12 -5 0 -8 -25 -7 -55 1 -30 -2 -52 -7 -49 -4 3 -6 10 -3 15 4 5
1 9 -5 9 -6 0 -10 -6 -9 -12 4 -31 -2 -49 -13 -42 -7 4 -8 3 -4 -4 4 -6 14 -8
23 -5 13 5 12 2 -3 -15 -9 -12 -22 -18 -27 -15 -6 3 -7 1 -3 -6 4 -6 11 -9 16
-6 4 3 14 -3 21 -13 12 -15 12 -16 -2 -5 -9 7 -19 10 -22 6 -10 -9 -9 -25 1
-19 4 2 8 -4 8 -14 0 -14 -4 -16 -13 -9 -9 8 -10 4 -3 -20 7 -26 5 -35 -12
-51 -12 -11 -18 -23 -15 -27 4 -3 7 -1 7 6 0 7 5 9 11 6 7 -5 5 -13 -6 -25 -8
-9 -13 -24 -9 -34 3 -9 0 -24 -7 -33 -8 -9 -9 -14 -3 -10 7 4 15 0 18 -9 3 -8
2 -13 -3 -10 -5 3 -12 -1 -15 -10 -4 -9 -2 -13 5 -8 7 4 9 0 5 -14 -5 -14 -1
-24 11 -32 16 -11 17 -11 1 -6 -21 6 -21 6 -8 -31 9 -26 9 -26 -4 -9 -14 18
-15 18 -13 -3 1 -11 5 -21 10 -21 5 0 3 -8 -4 -17 -8 -9 -9 -14 -4 -11 6 4 17
-3 25 -15 12 -21 12 -21 -5 -7 -17 14 -18 13 -12 -2 4 -11 2 -18 -6 -18 -8 0
-7 -4 3 -9 8 -6 18 -7 24 -4 5 4 6 1 2 -6 -5 -7 -15 -10 -25 -6 -13 5 -14 4
-3 -6 6 -7 12 -26 12 -42 0 -20 -4 -26 -12 -21 -7 4 -2 -5 12 -20 22 -24 22
-26 5 -21 -11 3 -7 -1 9 -10 20 -12 25 -20 18 -27 -8 -8 -8 -18 -1 -32 9 -20
9 -20 -4 -3 -10 12 -17 14 -22 8 -3 -6 -1 -11 5 -11 6 0 10 -6 9 -12 -3 -26 1
-39 11 -33 6 3 10 -3 10 -15 0 -14 4 -19 12 -14 11 6 11 4 1 -7 -18 -19 -16
-39 5 -40 10 0 12 -3 5 -6 -7 -2 -13 -9 -13 -14 0 -6 4 -7 10 -4 6 4 7 -1 3
-11 -5 -13 -3 -15 8 -9 8 4 11 4 6 0 -4 -5 0 -20 10 -34 15 -24 15 -25 0 -12
-23 19 -21 -1 2 -28 11 -13 17 -30 14 -38 -5 -12 -3 -14 8 -8 11 6 12 5 2 -6
-17 -18 -16 -32 2 -26 8 4 17 1 21 -5 4 -7 3 -8 -4 -4 -7 4 -12 4 -13 -1 0 -4
-2 -17 -3 -29 -1 -11 3 -21 10 -21 7 0 11 4 8 9 -3 4 0 8 6 8 7 0 10 -6 7 -14
-3 -7 0 -20 6 -27 10 -11 9 -11 -5 -1 -13 11 -18 10 -24 0 -4 -7 -4 -10 0 -6
13 11 35 -15 25 -28 -6 -7 -3 -16 8 -25 17 -13 17 -13 3 6 -14 19 -14 19 3 6
14 -11 15 -16 5 -29 -11 -13 -10 -15 3 -10 9 4 16 1 16 -8 0 -7 -4 -11 -8 -9
-16 11 -1 -26 17 -40 10 -8 15 -15 9 -15 -5 0 -3 -5 5 -11 13 -9 13 -10 0 -6
-8 2 -14 10 -12 16 1 7 -2 10 -8 6 -11 -7 9 -45 24 -45 4 0 6 -13 4 -29 -3
-23 -1 -28 11 -23 13 4 13 2 4 -8 -9 -10 -8 -16 3 -28 13 -13 13 -17 -3 -36
-10 -11 -11 -15 -3 -8 8 6 21 12 29 11 11 0 12 -2 4 -6 -17 -6 -17 -33 0 -33
8 0 7 -4 -3 -10 -13 -8 -12 -10 3 -10 16 0 22 -21 18 -57 -1 -8 5 -10 16 -6
15 5 15 3 -2 -11 -17 -15 -17 -17 -3 -12 10 3 17 2 17 -2 -1 -4 0 -9 1 -12 7
-20 7 -46 -1 -62 -8 -14 -6 -18 7 -18 14 0 14 -3 4 -15 -11 -13 -10 -14 6 -8
17 6 17 5 5 -10 -12 -15 -12 -17 2 -12 8 4 18 1 23 -6 4 -7 3 -10 -3 -6 -6 4
-13 -4 -15 -18 -5 -22 -3 -23 10 -13 13 10 14 10 8 1 -4 -7 -2 -13 3 -13 6 0
11 -5 11 -11 0 -5 -4 -8 -9 -4 -5 3 -12 1 -16 -5 -3 -5 3 -15 15 -22 11 -7 20
-16 20 -21 0 -4 -4 -6 -8 -3 -4 2 -14 0 -22 -6 -13 -8 -12 -9 2 -5 9 3 24 -3
34 -14 17 -19 17 -20 -2 -14 -18 6 -18 6 -1 -8 12 -10 14 -17 8 -22 -6 -3 -11
-12 -11 -18 0 -9 2 -9 8 0 5 8 11 3 19 -13 10 -22 10 -24 -3 -13 -12 10 -13 9
-8 -5 3 -9 10 -16 14 -16 13 0 18 -38 6 -51 -8 -9 -8 -10 3 -4 11 6 13 4 8 -8
-4 -10 -1 -17 5 -17 6 0 8 -3 5 -6 -3 -4 -2 -16 4 -27 8 -14 8 -18 0 -13 -7 5
-9 1 -5 -8 3 -9 10 -14 14 -11 5 3 11 1 14 -4 4 -5 1 -13 -5 -17 -8 -5 -9 -3
-4 7 5 8 4 10 0 6 -15 -13 -15 -39 0 -33 10 3 12 0 8 -11 -5 -12 -3 -14 7 -8
9 5 11 4 6 -3 -4 -7 -1 -12 6 -12 10 0 9 -3 -2 -10 -21 -13 -22 -60 -1 -53 13
4 12 2 -2 -10 -16 -13 -16 -15 -2 -21 9 -3 13 -10 10 -16 -3 -5 2 -10 12 -10
11 0 14 -3 7 -8 -10 -6 -11 -27 -5 -75 1 -5 7 -5 14 -1 10 6 10 4 0 -7 -15
-15 -17 -33 -4 -24 9 5 5 -40 -5 -56 -2 -4 -1 -10 4 -13 4 -2 8 -17 7 -33 0
-22 -5 -27 -20 -25 -17 2 -16 0 5 -12 14 -9 20 -15 14 -16 -7 0 -15 -7 -18
-16 -5 -14 -4 -15 8 -5 12 10 15 9 13 -8 -1 -14 -6 -20 -15 -16 -8 3 -10 0 -6
-6 4 -6 0 -16 -7 -21 -10 -7 -9 -8 6 -4 27 8 31 -28 6 -46 -15 -11 -16 -15 -6
-25 7 -6 16 -9 21 -5 4 4 4 1 0 -5 -4 -7 -15 -13 -24 -13 -14 0 -15 -2 -2 -9
8 -6 19 -7 25 -5 5 3 2 -1 -7 -8 -11 -10 -14 -19 -7 -29 13 -21 11 -32 -6 -25
-13 4 -14 2 -5 -14 6 -11 13 -20 16 -20 3 0 2 5 -2 12 -5 7 -3 8 6 3 10 -6 7
-13 -11 -27 -13 -11 -18 -17 -11 -13 6 3 12 1 12 -5 0 -6 5 -8 12 -4 7 5 8 3
4 -5 -5 -7 -15 -10 -25 -6 -13 5 -14 4 -3 -6 16 -17 16 -32 0 -24 -7 4 -3 -2
9 -13 21 -18 21 -21 5 -27 -16 -6 -16 -7 1 -20 16 -11 16 -13 2 -19 -11 -4
-14 -2 -9 7 4 6 3 8 -1 4 -12 -10 -15 -38 -4 -31 5 3 9 -2 9 -11 0 -9 -4 -14
-9 -10 -5 3 -13 1 -16 -5 -4 -6 -3 -10 2 -9 20 3 27 -2 13 -11 -10 -6 -11 -10
-2 -10 6 0 12 -7 12 -16 0 -8 -5 -12 -11 -8 -6 3 -3 -6 7 -22 l18 -29 -24 20
c-14 12 -20 13 -12 4 6 -9 9 -19 5 -22 -3 -4 -1 -7 5 -7 19 0 14 -30 -5 -31
-14 0 -15 -2 -3 -6 8 -3 18 -11 22 -16 8 -12 -1 -39 -11 -32 -4 2 -8 -2 -8
-10 0 -8 4 -12 8 -10 18 12 16 -27 -4 -52 -16 -21 -17 -24 -3 -14 16 14 17 12
11 -22 -7 -33 -5 -37 11 -31 15 5 16 4 5 -4 -12 -9 -13 -15 -2 -38 11 -25 10
-26 -4 -14 -13 11 -14 10 -9 -5 4 -10 1 -21 -7 -27 -11 -8 -11 -9 2 -5 12 4
17 -1 17 -19 0 -14 -5 -21 -12 -18 -6 3 -4 0 4 -8 15 -13 24 -52 11 -43 -4 2
-8 -2 -8 -11 0 -9 7 -13 21 -9 12 3 15 2 8 -1 -6 -3 -10 -10 -6 -15 3 -5 2 -9
-3 -8 -24 4 -25 -3 -3 -17 18 -11 20 -14 5 -10 -19 6 -19 5 -2 -8 18 -14 18
-14 0 -19 -12 -3 -13 -5 -3 -6 20 -2 42 -48 28 -58 -7 -4 -8 -1 -3 7 5 8 4 11
-3 6 -6 -4 -9 -13 -6 -21 4 -8 10 -12 15 -9 5 3 9 -2 9 -11 0 -10 5 -13 13 -9
7 5 6 0 -3 -11 -11 -14 -12 -19 -2 -22 19 -7 14 -23 -6 -17 -16 5 -16 5 0 -6
10 -6 23 -21 28 -33 11 -21 11 -21 -4 -3 -9 11 -16 15 -16 9 0 -7 7 -18 15
-27 9 -8 15 -19 14 -23 -4 -23 2 -35 17 -29 8 3 12 2 9 -3 -3 -5 -1 -12 5 -16
7 -4 7 -12 0 -26 -7 -12 -7 -19 -1 -19 16 0 51 -42 50 -59 0 -11 -2 -12 -6 -3
-2 6 -9 12 -15 12 -6 0 -5 -6 2 -15 7 -9 15 -13 18 -10 10 10 31 -17 25 -32
-4 -11 -2 -14 5 -9 7 4 12 1 12 -9 0 -9 4 -13 10 -10 6 3 10 -3 10 -14 0 -12
5 -21 11 -21 5 0 8 -4 4 -9 -5 -8 10 -24 25 -27 3 0 13 -4 23 -9 15 -6 16 -10
5 -17 -9 -7 -7 -8 10 -5 12 3 22 1 22 -5 0 -5 5 -6 10 -3 6 4 10 3 9 -2 -1 -4
-1 -15 0 -23 1 -13 2 -13 11 0 7 11 10 12 10 2 0 -21 27 -45 33 -29 3 6 6 3 6
-8 1 -17 3 -17 11 -5 9 13 10 13 11 0 1 -8 1 -19 0 -24 -1 -5 5 -4 13 3 16 14
40 6 31 -10 -4 -5 6 -9 21 -9 15 0 25 -3 21 -6 -3 -4 0 -13 8 -20 18 -18 31
-18 16 0 -9 11 -9 16 0 22 8 4 9 3 5 -4 -4 -7 -1 -12 9 -12 9 0 14 -4 11 -9
-9 -14 37 -21 53 -8 8 7 12 7 9 2 -4 -6 -3 -17 3 -25 7 -13 9 -13 9 0 0 10 3
11 8 4 11 -17 52 -28 52 -14 0 6 5 8 10 5 6 -4 8 -10 5 -15 -3 -5 0 -12 6 -16
8 -4 9 -3 5 4 -4 7 -2 12 4 12 6 0 8 5 4 12 -4 7 -3 8 4 4 6 -4 8 -14 5 -22
-5 -14 -3 -15 15 -5 26 14 43 14 22 1 -11 -8 -8 -10 15 -9 47 3 57 0 49 -13
-5 -7 -3 -8 7 -2 21 13 38 14 46 2 3 -6 1 -8 -5 -4 -6 3 -13 3 -16 -2 -2 -4 6
-8 19 -8 13 0 21 5 19 11 -3 5 0 3 8 -5 11 -13 29 -16 76 -11 8 0 10 6 6 13
-6 10 -4 10 7 2 21 -16 51 -26 44 -14 -10 17 7 11 20 -7 9 -13 14 -13 20 -3 5
9 4 11 -3 6 -7 -4 -12 -2 -12 3 0 6 7 11 15 11 8 0 15 -4 15 -10 0 -15 37 -6
61 16 12 10 20 14 16 9 -3 -6 3 -17 15 -24 11 -7 17 -8 14 -3 -3 5 2 16 11 23
14 12 15 11 9 -11 -6 -20 -5 -22 4 -8 6 9 20 15 35 14 13 -2 22 1 19 5 -5 9
16 12 63 12 12 0 20 4 17 9 -3 4 -10 6 -15 3 -5 -4 -9 -1 -9 6 0 8 -5 7 -17
-2 -16 -13 -17 -12 -4 3 7 10 17 15 23 12 5 -3 16 0 24 7 12 10 13 9 8 -6 -5
-13 -4 -16 4 -11 7 4 12 15 12 24 0 14 2 15 9 2 6 -8 7 -18 4 -24 -3 -5 -1 -6
6 -2 6 4 8 12 5 18 -5 8 -1 9 11 4 16 -6 16 -4 4 10 -13 16 -12 16 10 5 19
-10 22 -10 16 0 -6 9 -2 11 13 7 15 -4 19 -2 15 8 -3 8 -9 11 -14 8 -5 -3 -9
0 -9 5 0 16 11 13 33 -7 11 -9 17 -11 13 -4 -11 19 19 49 47 47 24 -2 47 11
47 28 0 6 -7 2 -15 -9 -8 -10 -15 -14 -15 -8 0 17 22 30 47 28 18 -1 20 2 13
16 -6 12 -5 17 5 17 8 0 11 -5 8 -10 -4 -6 -1 -7 6 -3 7 5 10 14 7 21 -3 8 2
12 12 10 9 -1 16 -8 14 -15 -1 -6 3 -8 9 -5 8 5 8 10 0 18 -15 15 -14 27 3 27
7 0 16 9 19 21 3 12 10 18 16 14 10 -6 16 8 12 28 -1 5 3 5 9 2 18 -11 52 25
39 41 -7 9 -6 14 2 20 8 4 9 3 5 -4 -4 -7 -2 -12 3 -12 6 0 11 5 11 11 0 5 6
7 13 4 6 -4 3 1 -8 11 -16 13 -17 16 -3 11 10 -3 20 -2 23 3 4 6 1 10 -4 10
-6 0 -11 4 -11 10 0 5 7 7 15 4 11 -5 14 -1 9 12 -5 17 -4 17 11 -1 17 -20 17
-20 10 4 -5 15 -4 21 3 17 6 -3 14 -1 18 5 4 8 3 9 -4 5 -7 -4 -12 -1 -12 8 0
9 8 16 17 16 15 0 14 2 -3 14 -10 8 -16 18 -11 22 4 4 7 2 7 -4 0 -7 5 -12 10
-12 6 0 10 7 10 15 0 8 5 15 11 15 5 0 7 5 4 10 -4 6 -11 7 -17 4 -7 -4 -8 -2
-4 5 4 6 12 8 18 5 8 -5 9 -1 4 11 -6 16 -4 16 11 4 9 -8 14 -9 10 -2 -4 6 -3
14 3 18 7 4 6 14 -2 28 -10 21 -10 21 7 7 17 -14 18 -14 6 8 -11 21 -10 24 8
29 20 5 21 6 4 20 -10 8 -12 12 -5 8 15 -8 44 13 36 26 -3 5 -11 9 -17 9 -8 0
-8 -3 2 -9 9 -6 10 -11 2 -15 -6 -4 -11 -2 -11 4 0 6 -6 8 -12 5 -7 -4 -4 2 8
12 11 10 18 25 16 32 -3 8 0 11 7 7 6 -4 11 -2 11 3 0 6 -5 11 -12 11 -6 0 -8
3 -4 8 4 4 13 7 19 7 13 0 18 53 5 61 -5 3 -1 12 9 20 17 13 17 14 -2 7 -18
-6 -18 -5 -6 10 7 9 11 22 8 29 -8 23 -6 33 8 30 7 -1 16 2 20 8 4 6 1 9 -7 8
-17 -4 -23 43 -6 53 11 7 11 9 -1 9 -11 0 -11 3 0 17 11 13 11 17 2 20 -7 3
-13 9 -13 14 0 6 4 8 9 4 5 -3 13 -1 16 5 4 6 1 9 -6 8 -16 -4 -19 22 -5 41 8
11 8 13 -1 7 -7 -4 -13 -3 -13 3 0 5 5 13 10 16 6 4 7 11 4 17 -4 7 -9 6 -14
-2 -5 -9 -9 -9 -14 -1 -4 6 -3 11 2 11 13 0 22 39 12 45 -5 3 -7 15 -5 26 3
14 -2 23 -15 26 -16 4 -17 9 -9 31 6 15 7 23 3 19 -4 -3 -15 3 -25 15 -22 25
-24 34 -6 22 7 -5 5 -2 -4 7 -12 11 -15 19 -7 27 7 7 4 12 -10 16 -14 5 -19
13 -17 27 4 17 2 19 -10 9 -18 -15 -20 1 -3 18 9 9 9 12 -1 12 -7 0 -10 4 -6
9 3 5 0 13 -6 17 -8 4 -9 3 -5 -4 4 -7 5 -12 1 -12 -8 0 -64 64 -59 69 2 2 12
-7 23 -20 15 -18 22 -21 31 -12 9 8 8 11 -6 10 -12 -1 -19 4 -18 15 1 10 -2
16 -6 13 -11 -7 -51 50 -42 60 4 5 1 5 -5 1 -8 -4 -13 -2 -13 6 0 9 -3 9 -10
-2 -6 -9 -10 -10 -10 -3 0 6 4 14 10 18 11 7 2 35 -12 35 -6 0 -5 -7 2 -15 11
-13 10 -14 -4 -9 -19 7 -20 16 -3 33 6 7 8 12 2 11 -24 -5 -35 1 -35 20 0 11
-5 20 -11 20 -6 0 -9 7 -6 14 4 10 1 13 -7 10 -7 -3 -19 3 -27 13 -12 16 -12
17 2 6 13 -10 16 -10 16 2 0 8 -2 13 -5 10 -10 -10 -41 16 -36 30 4 8 1 15 -5
15 -6 0 -11 8 -11 18 0 13 -2 14 -9 4 -7 -11 -9 -10 -14 3 -4 9 -3 13 3 10 6
-3 9 5 8 19 -1 13 -6 22 -10 20 -5 -3 -5 -11 -2 -17 3 -7 -5 1 -20 17 -21 24
-24 32 -13 44 7 10 8 13 1 9 -16 -9 -24 28 -10 44 9 10 8 11 -4 2 -11 -8 -19
-7 -30 5 -13 14 -12 15 3 9 9 -3 19 -1 23 5 4 6 3 9 -2 6 -5 -3 -18 -2 -28 1
-19 7 -26 24 -28 68 0 13 -4 20 -9 17 -5 -3 -9 0 -9 6 0 6 -5 8 -12 4 -7 -4
-8 -3 -4 5 4 6 12 8 18 5 6 -4 8 -2 4 4 -3 5 0 13 6 16 7 3 0 2 -17 -1 -29 -6
-29 -6 -12 12 17 16 17 19 1 36 -9 10 -14 22 -11 26 3 5 -5 22 -19 38 -25 30
-30 40 -14 30 6 -3 10 -1 10 4 0 6 -6 11 -13 11 -16 0 -21 91 -6 101 6 4 4 9
-6 12 -9 4 -13 3 -10 -3 3 -6 1 -10 -4 -10 -12 0 -14 13 -4 24 9 9 13 36 5 36
-4 0 -13 10 -21 23 -13 21 -13 22 6 4 16 -14 20 -15 20 -2 0 8 -4 15 -9 15 -4
0 -8 15 -8 34 0 19 -4 38 -10 41 -13 8 -13 25 1 25 5 0 7 -5 3 -12 -4 -7 -3
-8 4 -4 9 5 9 13 0 29 -15 28 -16 48 -3 66 8 11 7 13 -4 7 -9 -6 -12 -5 -9 5
3 8 14 13 24 11 15 -2 14 1 -5 11 -18 11 -20 16 -10 20 10 4 10 6 2 6 -7 1
-13 6 -13 11 0 7 7 7 23 0 22 -11 22 -11 -2 9 -23 21 -23 21 -2 21 12 0 21 5
21 11 0 5 -4 8 -9 5 -5 -3 -12 1 -15 10 -3 8 -2 12 3 9 5 -3 12 -1 16 5 3 5 0
10 -7 10 -9 0 -9 3 2 10 13 9 13 11 0 20 -13 8 -12 10 4 10 20 0 20 0 0 15
-18 13 -17 14 11 9 25 -3 27 -2 12 7 -9 5 -15 15 -12 20 4 5 10 7 15 4 5 -3
12 0 16 6 4 8 3 9 -4 5 -7 -4 -12 -1 -12 8 0 9 5 16 10 16 6 0 10 5 10 11 0 5
-5 7 -12 3 -7 -4 -1 8 12 26 22 31 22 33 4 27 -16 -5 -15 -4 4 9 12 9 22 21
22 26 0 6 -7 5 -15 -2 -13 -11 -14 -10 -9 4 3 9 14 16 23 16 14 0 14 2 1 10
-10 7 -11 10 -2 10 8 0 11 9 7 28 -4 22 -4 24 4 7 8 -17 13 -11 10 11 0 4 5
10 13 15 7 5 13 13 13 19 0 6 7 15 15 20 8 5 11 13 6 17 -5 4 -11 2 -13 -4 -3
-7 -9 -13 -15 -13 -5 0 0 14 12 30 13 19 17 30 9 30 -7 0 -9 3 -5 7 4 5 14 0
21 -11 13 -18 14 -17 12 3 -1 11 -6 21 -11 21 -6 0 -5 5 2 12 8 8 15 8 29 -2
10 -7 5 -1 -10 14 l-29 27 26 -5 c14 -3 29 0 32 6 4 6 2 8 -3 5 -23 -14 -20
22 3 57 14 20 22 41 18 48 -4 7 -3 8 4 4 7 -4 12 -1 12 8 0 9 5 16 11 16 6 0
9 6 6 14 -3 8 1 17 9 20 9 4 12 11 8 18 -6 11 -5 10 8 0 13 -10 15 -8 11 15
-4 22 -2 25 6 13 9 -13 11 -13 11 2 0 9 6 19 13 21 10 4 10 6 0 6 -7 1 -13 6
-13 12 0 6 6 9 14 6 14 -6 48 27 38 37 -3 4 -12 -4 -18 -16 -13 -22 -13 -23
-11 -2 1 23 37 54 37 32 0 -6 3 -8 6 -5 4 4 1 13 -6 22 -10 12 -9 16 4 21 9 3
14 9 11 14 -2 4 7 6 20 4 14 -1 23 2 20 6 -3 5 0 12 6 15 5 4 8 13 5 21 -7 17
10 19 18 2 3 -7 3 -3 0 10 -4 15 -1 22 10 22 8 0 18 5 22 12 4 7 3 8 -4 4 -8
-4 -10 -2 -6 8 3 8 14 13 25 11 16 -3 18 -1 8 16 -10 19 -9 20 13 8 l23 -12
-20 23 -20 23 20 -11 c18 -9 21 -7 22 9 2 19 43 79 43 63 1 -5 9 1 19 13 10
12 22 19 27 15 5 -4 0 3 -11 16 l-19 23 28 -11 c25 -9 27 -9 17 4 -7 9 -8 17
-2 20 5 3 12 0 15 -6 3 -7 5 2 3 19 -3 30 -2 32 13 18 14 -13 16 -12 17 6 1
11 12 30 25 41 13 11 24 24 24 29 1 5 2 16 3 25 1 11 7 14 24 9 12 -3 18 -3
12 2 -14 11 -17 33 -4 33 5 0 8 4 5 9 -3 5 2 15 12 22 15 13 16 12 4 -3 -10
-12 -10 -18 -1 -24 7 -4 9 -3 5 4 -3 6 -1 14 5 17 5 4 8 14 4 22 -4 13 -3 14
9 4 12 -10 13 -9 9 9 -4 16 0 23 16 27 11 3 18 9 15 14 -3 5 -11 6 -17 3 -7
-4 -8 -3 -4 2 5 5 14 9 20 9 7 0 12 11 13 25 0 14 6 24 13 22 6 -1 11 3 10 10
-3 27 2 37 15 32 8 -3 17 0 22 7 4 8 3 10 -4 5 -8 -5 -10 -2 -6 8 4 10 1 16
-7 16 -11 0 -11 3 1 10 8 5 20 10 25 10 6 0 4 -4 -4 -9 -7 -5 -9 -11 -4 -14 5
-3 15 3 22 15 7 11 8 17 2 13 -6 -3 -11 1 -11 10 0 11 5 15 14 12 11 -4 13 -1
9 10 -4 11 -2 14 5 9 8 -5 10 -1 5 10 -5 12 -3 15 6 9 10 -6 11 -3 2 13 -8 15
-7 23 4 32 12 10 13 16 3 29 -7 9 -8 13 -4 9 5 -4 16 -2 25 5 14 11 14 10 2
-5 -16 -21 -6 -24 14 -4 12 12 12 15 0 20 -8 3 -12 12 -9 21 3 8 10 13 14 10
5 -3 11 -1 15 5 3 5 -2 10 -12 11 -16 0 -16 1 1 8 14 5 16 10 8 15 -7 4 -12
13 -12 19 0 8 3 8 9 -2 6 -9 11 -10 15 -2 4 6 4 11 0 11 -4 0 0 6 11 13 14 11
15 16 5 22 -9 6 -11 4 -5 -5 5 -9 4 -11 -4 -6 -8 5 -9 12 -3 19 5 7 8 20 7 30
-2 9 3 17 11 17 8 0 11 6 7 17 -5 12 -3 14 8 8 11 -7 11 -5 -1 10 -8 10 -10
16 -4 12 7 -4 15 0 18 9 3 8 2 13 -3 10 -5 -3 -11 1 -14 9 -4 9 -1 12 7 9 8
-3 17 0 22 7 4 8 3 10 -4 5 -7 -4 -13 0 -13 11 -4 47 -3 59 6 65 6 4 1 8 -10
9 -17 1 -16 2 5 9 16 5 19 8 8 9 -18 1 -14 28 6 44 7 6 5 7 -4 4 -11 -3 -16 2
-17 15 -2 17 0 18 14 6 15 -12 15 -11 1 12 -8 14 -14 35 -13 47 1 13 -2 20 -8
16 -6 -4 -8 2 -4 16 3 15 -2 29 -16 43 -19 18 -19 20 -4 14 13 -4 17 -2 15 6
-3 7 -10 13 -15 13 -6 0 -15 4 -20 9 -5 5 -3 6 5 2 6 -4 12 -2 12 3 0 6 -5 11
-11 11 -8 0 -8 4 1 15 10 12 8 14 -12 10 -21 -4 -21 -3 -6 9 10 7 15 16 11 19
-3 4 -12 2 -20 -4 -18 -16 -16 -4 3 15 14 15 14 16 -5 16 -12 0 -21 5 -21 11
0 5 4 8 9 5 13 -8 8 19 -7 36 -6 8 -8 19 -4 24 4 5 -2 1 -14 -9 -17 -14 -21
-14 -21 -2 0 8 4 12 8 10 4 -3 9 2 12 10 4 10 1 12 -10 8 -13 -5 -15 -1 -11
19 3 16 0 25 -8 25 -7 0 -10 -5 -7 -11 4 -6 -1 -5 -10 3 -14 11 -15 16 -5 29
10 13 10 14 1 8 -11 -6 -18 16 -15 46 1 3 -5 9 -14 12 -8 3 -12 2 -9 -4 3 -6
1 -10 -4 -10 -6 0 -11 9 -11 21 0 13 -4 18 -12 13 -7 -5 -8 -3 -2 7 12 19 14
40 4 34 -5 -3 -12 0 -15 6 -4 5 -13 8 -21 5 -8 -3 -13 -2 -13 2 4 21 -2 42
-12 42 -5 0 -8 -4 -5 -8 3 -5 -1 -9 -9 -9 -10 0 -11 4 -6 11 11 13 -10 46 -29
46 -7 0 -10 6 -7 14 4 10 0 14 -13 11 -10 -2 -21 3 -24 11 -3 9 -10 12 -16 9
-6 -4 -7 1 -3 12 6 15 4 16 -9 6 -15 -13 -28 -8 -28 11 0 6 5 4 10 -4 5 -8 10
-10 10 -4 0 18 -13 24 -27 13 -10 -9 -13 -6 -13 12 -1 22 -2 23 -14 6 -12 -16
-14 -16 -20 -2 -4 11 -2 14 7 9 9 -5 9 -4 0 6 -9 10 -16 10 -26 2 -10 -9 -19
-7 -35 9 -12 11 -22 25 -22 31 0 7 -5 6 -15 -2 -10 -9 -15 -9 -15 -1 0 6 -6
11 -14 11 -8 0 -17 6 -19 13 -4 10 -6 10 -6 0 -1 -7 -6 -13 -12 -13 -5 0 -7 5
-4 10 3 6 -5 10 -19 10 -13 0 -27 -6 -30 -12 -2 -7 -4 -3 -3 9 1 12 -2 21 -8
20 -5 -1 -9 -5 -7 -9 1 -5 -2 -8 -8 -8 -9 0 -14 15 -11 33 1 5 -3 6 -9 2 -6
-3 -8 -10 -5 -15 12 -19 -15 -19 -28 1 -14 19 -15 20 -20 2 -4 -17 -5 -17 -6
1 -1 20 -1 20 -16 0 -15 -18 -15 -18 -8 0 3 11 2 17 -3 14 -5 -3 -20 -1 -34 5
-40 16 -52 17 -46 2 3 -10 0 -12 -11 -8 -12 5 -14 3 -8 -7 5 -8 4 -11 -3 -6
-6 4 -9 13 -6 20 3 8 0 17 -7 22 -8 4 -10 3 -5 -4z m71 -21 c3 -5 2 -12 -3
-15 -5 -3 -9 1 -9 9 0 17 3 19 12 6z m-433 -33 c-7 -7 -12 -8 -12 -2 0 14 12
26 19 19 2 -3 -1 -11 -7 -17z m58 2 c0 -5 -2 -10 -4 -10 -3 0 -8 5 -11 10 -3
6 -1 10 4 10 6 0 11 -4 11 -10z m1021 -297 c12 -16 12 -17 -2 -6 -9 7 -20 9
-24 5 -5 -4 -5 -1 -1 6 9 16 11 15 27 -5z m49 -83 c0 -5 -2 -10 -4 -10 -3 0
-8 5 -11 10 -3 6 -1 10 4 10 6 0 11 -4 11 -10z m95 -150 c3 -6 -1 -7 -9 -4
-18 7 -21 14 -7 14 6 0 13 -4 16 -10z m-2282 -65 c-3 -9 -8 -14 -10 -11 -3 3
-2 9 2 15 9 16 15 13 8 -4z m-39 -33 c3 -5 -1 -9 -9 -9 -8 0 -12 4 -9 9 3 4 7
8 9 8 2 0 6 -4 9 -8z m-604 -1072 c0 -5 -4 -10 -10 -10 -5 0 -10 5 -10 10 0 6
5 10 10 10 6 0 10 -4 10 -10z m2334 -469 c3 -5 -2 -15 -12 -22 -15 -12 -16
-12 -5 2 7 9 10 19 6 22 -3 4 -4 7 0 7 3 0 8 -4 11 -9z m-1979 -1119 c-3 -3
-11 0 -18 7 -9 10 -8 11 6 5 10 -3 15 -9 12 -12z m1609 -390 c2 -4 0 -14 -6
-22 -8 -12 -9 -12 -5 2 3 9 1 19 -6 22 -9 3 -9 5 0 5 6 1 14 -3 17 -7z m-1487
-38 c-3 -3 -12 -4 -19 -1 -8 3 -5 6 6 6 11 1 17 -2 13 -5z m1508 -13 c3 -5 0
-13 -6 -17 -7 -4 -9 -3 -5 4 3 5 0 13 -6 15 -9 4 -10 6 -1 6 6 1 14 -3 18 -8z
m-1500 -31 c3 -6 -1 -7 -9 -4 -18 7 -21 14 -7 14 6 0 13 -4 16 -10z m10 -79
c3 -5 2 -12 -3 -15 -5 -3 -9 1 -9 9 0 17 3 19 12 6z m2012 -838 c0 -7 -4 -13
-8 -13 -4 0 -9 6 -12 13 -3 8 0 14 7 14 7 0 13 -6 13 -14z m13 -39 c0 -8 -19
-13 -24 -6 -3 5 1 9 9 9 8 0 15 -2 15 -3z m-14 -398 c0 -16 -4 -22 -14 -19
-11 5 -11 7 0 14 7 5 9 9 5 9 -5 0 -5 5 -2 10 9 15 11 12 11 -14z m-226 -491
c-7 -9 -15 -13 -19 -10 -3 3 1 10 9 15 21 14 24 12 10 -5z m-1523 -60 c0 -8
-4 -12 -9 -9 -5 3 -6 10 -3 15 9 13 12 11 12 -6z m343 -191 c0 -8 -19 -13 -24
-6 -3 5 1 9 9 9 8 0 15 -2 15 -3z m680 -63 c0 -14 -29 -21 -36 -9 -4 6 -3 8 4
4 6 -3 13 -2 17 4 8 12 15 13 15 1z m-307 -24 c3 -8 -1 -14 -8 -14 -7 0 -11 6
-8 14 3 7 6 13 8 13 2 0 5 -6 8 -13z m161 -5 c3 -5 -1 -9 -9 -9 -8 0 -12 4 -9
9 3 4 7 8 9 8 2 0 6 -4 9 -8z"/>
<path d="M3970 9041 c0 -6 4 -13 10 -16 6 -3 7 1 4 9 -7 18 -14 21 -14 7z"/>
<path d="M3196 8953 c-6 -14 -5 -15 5 -6 7 7 10 15 7 18 -3 3 -9 -2 -12 -12z"/>
<path d="M4200 8965 c0 -2 7 -8 15 -15 12 -10 15 -10 15 2 0 8 -7 15 -15 15
-8 0 -15 -1 -15 -2z"/>
<path d="M1623 8674 c17 -21 17 -21 -8 -19 -14 2 -27 -1 -30 -5 -3 -5 -17 -7
-31 -4 -16 3 -23 1 -19 -6 9 -14 -8 -13 -25 3 -8 6 -6 2 4 -10 18 -22 18 -22
-3 -18 -11 2 -27 7 -34 11 -6 4 -9 4 -5 -1 4 -4 2 -15 -5 -24 -10 -14 -10 -14
5 -3 12 10 18 10 24 1 4 -7 3 -9 -3 -6 -5 3 -22 -5 -38 -19 -15 -13 -23 -24
-17 -24 6 0 14 5 17 10 3 6 11 10 18 10 6 0 1 -7 -11 -16 -13 -9 -19 -20 -15
-27 4 -8 1 -7 -9 1 -16 12 -34 2 -21 -12 4 -3 7 -15 8 -25 1 -13 -3 -17 -13
-13 -11 4 -13 1 -7 -8 6 -10 4 -12 -11 -7 -17 6 -17 5 -3 -5 15 -13 22 -61 7
-52 -5 3 -11 -2 -14 -10 -3 -9 -11 -13 -17 -9 -6 3 -7 1 -3 -6 5 -8 12 -9 19
-2 9 7 12 3 12 -14 0 -18 -3 -21 -13 -13 -10 9 -11 6 -3 -16 6 -14 8 -26 5
-26 -4 0 0 -8 7 -17 8 -9 9 -14 3 -10 -7 4 -10 -7 -10 -33 0 -21 4 -36 8 -34
4 3 4 12 1 22 -3 9 -3 14 1 11 4 -4 8 -15 11 -25 2 -11 10 -35 18 -54 8 -19
12 -41 10 -47 -3 -7 0 -13 7 -13 6 0 9 4 5 9 -3 5 -1 12 4 15 5 4 8 -5 6 -19
-1 -18 3 -25 14 -25 19 0 41 -19 41 -34 0 -6 -5 -4 -10 4 -5 8 -10 10 -10 4 0
-18 13 -24 27 -13 10 9 13 8 13 0 0 -7 5 -9 13 -5 9 6 9 4 -1 -8 -10 -13 -10
-18 -1 -24 8 -4 9 -3 5 4 -4 7 -1 12 8 12 9 0 16 -8 17 -17 0 -15 2 -15 9 2 5
12 9 14 9 6 1 -8 4 -11 8 -8 3 4 15 -1 26 -10 11 -10 17 -12 13 -5 -4 6 -3 12
3 12 5 0 12 -6 14 -12 4 -10 6 -10 6 0 1 6 5 12 11 12 5 0 8 -6 6 -12 -1 -7
-1 -10 1 -6 2 3 15 4 29 2 16 -3 27 1 30 11 3 8 11 12 17 8 6 -4 8 0 4 11 -4
10 -3 15 3 11 6 -3 10 -14 10 -23 0 -14 2 -14 9 -3 5 8 7 21 4 30 -3 10 -1 12
4 6 12 -14 40 -17 48 -5 3 6 0 7 -9 4 -9 -3 -16 -3 -16 0 0 4 14 12 30 17 17
6 30 16 30 21 0 6 -6 5 -15 -2 -9 -7 -18 -10 -22 -6 -3 3 -1 6 6 6 7 0 9 5 6
10 -4 6 -3 10 2 9 23 -4 43 2 38 11 -4 6 -11 7 -17 4 -7 -5 -8 -2 -4 5 5 7 15
10 23 7 8 -3 12 -2 9 3 -3 5 1 14 9 21 12 10 13 16 3 28 -7 9 -8 13 -2 9 6 -4
18 1 27 11 13 14 13 20 3 34 -7 10 -17 14 -21 10 -5 -4 -5 -1 -1 6 4 7 11 10
16 7 4 -3 11 2 14 11 3 8 2 12 -4 9 -6 -3 -7 1 -4 10 5 13 9 13 23 3 14 -12
14 -11 3 4 -8 9 -11 22 -7 28 3 5 -1 10 -9 10 -19 0 -21 16 -4 26 6 4 8 3 5
-3 -3 -5 0 -10 8 -10 12 0 12 3 0 20 -7 11 -11 25 -9 32 3 7 1 16 -5 20 -6 3
-11 15 -11 26 0 11 -4 18 -9 15 -5 -3 -7 7 -6 23 3 33 -2 43 -30 60 -16 10
-16 11 -2 7 15 -5 16 -2 7 14 -6 11 -13 20 -16 20 -3 0 -3 -4 0 -8 3 -5 -1 -9
-9 -9 -11 0 -12 5 -4 20 6 10 8 21 5 25 -3 3 -6 0 -6 -7 0 -7 -5 -9 -10 -6 -6
4 -7 11 -4 17 4 6 -3 5 -16 -2 -20 -11 -21 -10 -11 9 8 14 8 22 -1 27 -6 4 -8
3 -5 -3 4 -6 0 -13 -8 -16 -9 -4 -12 -1 -9 8 5 12 -24 35 -43 35 -4 -1 3 -7
16 -14 20 -11 21 -14 7 -19 -10 -4 -15 -3 -11 3 3 5 -6 12 -20 16 -14 3 -30
14 -36 23 -10 14 -10 14 -5 -1 3 -10 1 -20 -4 -23 -6 -4 -10 0 -10 8 0 10 -8
13 -25 9 -14 -2 -33 2 -43 9 -15 12 -15 12 1 -7z m282 -163 c3 -5 2 -12 -3
-15 -5 -3 -9 1 -9 9 0 17 3 19 12 6z m30 -301 c-3 -5 -11 -10 -16 -10 -6 0 -7
5 -4 10 3 6 11 10 16 10 6 0 7 -4 4 -10z m-25 -44 c0 -3 -4 -8 -10 -11 -5 -3
-10 -1 -10 4 0 6 5 11 10 11 6 0 10 -2 10 -4z"/>
<path d="M1585 8670 c-4 -6 -11 -7 -17 -4 -7 4 -8 2 -4 -5 6 -8 12 -9 20 -2 7
6 17 7 21 3 5 -4 5 -1 1 6 -9 15 -13 15 -21 2z"/>
<path d="M2610 8634 c0 -8 5 -12 10 -9 6 4 8 11 5 16 -9 14 -15 11 -15 -7z"/>
<path d="M1930 8620 c0 -6 7 -10 15 -10 8 0 15 2 15 4 0 2 -7 6 -15 10 -8 3
-15 1 -15 -4z"/>
<path d="M1396 8498 c3 -5 10 -6 15 -3 13 9 11 12 -6 12 -8 0 -12 -4 -9 -9z"/>
<path d="M1925 8480 c-3 -5 -1 -10 4 -10 6 0 11 5 11 10 0 6 -2 10 -4 10 -3 0
-8 -4 -11 -10z"/>
<path d="M1381 8431 c-8 -5 -9 -11 -3 -15 5 -3 12 1 16 9 6 17 6 18 -13 6z"/>
<path d="M1400 8171 c0 -6 4 -13 10 -16 6 -3 7 1 4 9 -7 18 -14 21 -14 7z"/>
<path d="M1475 8069 c-4 -6 -5 -12 -2 -15 2 -3 7 2 10 11 7 17 1 20 -8 4z"/>
<path d="M1595 8000 c-3 -5 -1 -10 4 -10 6 0 11 5 11 10 0 6 -2 10 -4 10 -3 0
-8 -4 -11 -10z"/>
<path d="M4725 7890 c-3 -6 1 -7 9 -4 18 7 21 14 7 14 -6 0 -13 -4 -16 -10z"/>
<path d="M4637 7649 c7 -7 15 -10 18 -7 3 3 -2 9 -12 12 -14 6 -15 5 -6 -5z"/>
<path d="M5124 7391 c5 -8 -1 -10 -23 -6 -19 3 -31 1 -31 -5 0 -6 5 -8 12 -4
7 5 8 3 4 -5 -5 -7 -11 -10 -14 -7 -3 3 -12 0 -21 -7 -14 -10 -14 -10 -4 4 11
13 10 15 -5 14 -26 -2 -43 -15 -36 -28 3 -7 -2 -3 -11 8 -17 20 -17 20 -11 -1
5 -17 2 -21 -16 -20 -24 1 -67 -33 -60 -48 3 -5 0 -6 -7 -2 -6 4 -8 12 -5 18
4 6 -2 6 -15 -1 -11 -7 -20 -17 -18 -24 1 -7 -3 -11 -9 -10 -8 1 -10 -6 -7
-20 5 -18 3 -20 -8 -9 -7 6 -18 12 -23 12 -6 0 -5 -4 2 -8 15 -10 5 -42 -13
-42 -15 0 -28 -27 -19 -41 3 -5 -2 -9 -11 -9 -9 0 -14 -4 -10 -10 3 -5 -3 -18
-15 -30 -11 -11 -15 -20 -8 -20 6 0 3 -7 -8 -15 -18 -15 -18 -15 0 -8 13 4 17
3 12 -5 -4 -7 -14 -12 -22 -12 -17 0 -18 -12 -1 -29 10 -11 10 -13 0 -7 -15 8
-18 -10 -3 -19 6 -4 4 -15 -6 -30 -9 -13 -15 -26 -15 -29 3 -20 0 -26 -10 -20
-7 4 -7 -1 1 -16 10 -19 10 -22 -2 -17 -9 3 -15 -1 -15 -9 0 -8 6 -13 14 -10
7 3 13 1 13 -4 0 -9 -14 -14 -32 -11 -5 0 -8 -4 -8 -10 0 -7 9 -9 23 -6 21 6
21 6 3 -8 -11 -8 -14 -15 -7 -15 7 0 9 -5 6 -10 -4 -6 -11 -8 -16 -5 -5 3 -6
-1 -3 -9 3 -9 11 -16 17 -16 8 0 8 -3 0 -11 -13 -13 -6 -42 8 -33 5 3 6 -2 3
-11 -4 -8 0 -23 7 -32 8 -9 9 -14 3 -10 -7 4 -14 -3 -16 -18 -5 -22 -3 -23 10
-13 13 11 14 10 10 -2 -3 -8 2 -24 11 -35 9 -12 10 -15 1 -7 -19 16 -27 15
-27 -3 0 -8 2 -13 5 -10 6 6 32 -21 32 -35 0 -6 5 -8 12 -4 7 4 8 3 4 -5 -4
-6 -11 -9 -16 -6 -5 3 -12 1 -15 -5 -4 -6 -1 -9 7 -8 7 2 12 -3 10 -11 -1 -7
2 -19 9 -27 6 -7 8 -18 4 -23 -4 -7 1 -8 11 -4 11 4 15 3 10 -5 -3 -6 -1 -14
5 -18 8 -4 9 -3 5 4 -4 7 -2 12 3 12 6 0 11 -9 11 -20 0 -11 7 -20 15 -20 8 0
15 -5 15 -11 0 -5 -4 -8 -8 -5 -5 3 -9 -1 -9 -9 0 -11 5 -12 20 -3 11 5 17 6
15 1 -3 -4 9 -21 25 -38 17 -16 27 -25 23 -18 -3 6 -1 15 5 19 8 4 9 3 5 -4
-8 -13 28 -52 49 -52 7 0 19 -8 25 -17 9 -15 10 -14 5 7 -4 14 -3 21 2 15 4
-5 13 -10 18 -11 26 -3 55 -17 55 -27 0 -7 4 -7 12 1 7 7 17 12 22 12 6 0 4
-5 -4 -11 -11 -8 -6 -9 23 -5 20 2 35 1 32 -4 -3 -4 3 -7 12 -5 10 2 22 4 26
4 5 1 6 4 4 9 -3 4 6 7 19 7 13 0 24 -4 24 -8 0 -5 5 -5 10 -2 6 4 7 11 4 17
-4 6 -2 8 4 4 6 -3 13 -3 16 2 3 5 21 8 40 7 27 0 33 2 24 12 -13 16 4 17 19
2 7 -7 10 -3 8 14 -2 15 2 24 11 24 11 0 11 -3 1 -16 -7 -9 -2 -8 15 4 15 11
28 26 28 33 0 6 5 12 11 12 5 0 7 -5 3 -12 -4 -6 -3 -8 4 -4 6 3 8 19 6 34 -5
26 -5 26 10 7 14 -19 15 -19 12 6 -3 23 0 27 21 24 23 -2 23 -2 6 17 -16 18
-16 19 2 12 15 -6 17 -4 12 10 -5 11 -3 15 5 10 7 -5 9 -2 5 9 -6 15 15 42 25
32 3 -3 11 3 19 12 13 16 12 17 -3 5 -10 -8 -19 -9 -22 -3 -4 5 3 12 14 16 11
3 20 11 20 16 0 6 -6 7 -12 3 -7 -4 -2 4 11 16 15 15 20 25 13 28 -7 2 -12 8
-12 14 0 6 6 8 14 5 9 -4 12 0 9 13 -3 10 0 21 6 24 17 11 13 26 -6 27 -15 0
-15 2 2 9 13 6 15 9 5 9 -13 1 -13 2 0 11 11 7 11 10 2 10 -7 0 -10 5 -7 10 4
6 11 7 17 4 6 -4 6 2 -1 15 -9 16 -9 21 1 21 9 0 9 3 -2 11 -12 9 -10 10 9 5
l23 -5 -20 19 c-21 20 -20 66 2 53 6 -4 5 1 -3 10 -15 19 -26 23 -15 5 4 -7 3
-8 -5 -4 -9 6 -9 11 0 22 9 11 9 14 -1 14 -8 0 -10 9 -6 26 5 19 4 24 -6 19
-7 -4 -4 1 6 9 11 9 14 16 7 16 -7 0 -9 5 -6 10 4 6 3 10 -2 9 -4 -1 -15 -1
-23 0 -13 1 -13 3 0 10 8 6 18 7 24 4 5 -3 6 -1 2 6 -4 6 -15 10 -23 9 -10 -2
-17 5 -18 19 -1 12 1 20 5 18 4 -2 7 2 7 11 0 10 -7 12 -20 8 -11 -4 -17 -2
-14 3 4 6 0 19 -7 29 -11 15 -12 22 -3 33 9 12 9 13 0 7 -8 -4 -13 -2 -13 5 0
6 -8 18 -17 26 -10 8 -12 12 -5 8 6 -3 12 -1 12 4 0 6 -9 11 -20 11 -11 0 -20
5 -20 11 0 5 4 8 8 5 5 -3 9 1 9 8 0 8 -6 12 -14 9 -7 -3 -13 -10 -13 -16 0
-6 -3 -7 -6 -4 -4 4 -1 13 5 21 10 12 8 17 -8 25 -13 7 -18 18 -15 29 5 14 4
15 -5 2 -8 -12 -6 -19 10 -32 12 -10 17 -18 12 -18 -18 0 -55 38 -42 42 7 2
-3 15 -22 28 -19 13 -28 17 -22 9 10 -13 10 -16 -2 -16 -7 0 -14 3 -13 6 2 20
-4 31 -17 31 -8 0 -15 5 -15 12 0 6 -3 8 -7 4 -5 -4 1 -14 11 -22 11 -8 16
-14 10 -14 -19 0 -35 17 -37 38 -1 13 -5 18 -12 13 -17 -12 -50 -7 -47 7 1 8
-2 11 -8 7 -6 -4 -9 -14 -5 -22 4 -12 2 -13 -8 -5 -10 9 -17 8 -26 -1 -11 -10
-11 -7 -1 13 l13 25 -23 -20 c-13 -11 -20 -15 -17 -8 4 6 2 15 -4 19 -8 4 -9
3 -5 -5z m441 -411 c3 -5 1 -10 -4 -10 -6 0 -11 5 -11 10 0 6 2 10 4 10 3 0 8
-4 11 -10z m-812 -477 c-4 -10 -2 -14 4 -10 5 3 10 -1 10 -9 0 -13 -2 -13 -15
0 -8 8 -11 19 -8 25 11 17 16 13 9 -6z m637 -143 c0 -5 -5 -10 -11 -10 -5 0
-7 5 -4 10 3 6 8 10 11 10 2 0 4 -4 4 -10z m-446 -59 c-2 -3 -12 3 -22 13 -16
17 -16 18 5 5 12 -7 20 -15 17 -18z"/>
<path d="M4910 7319 c0 -5 5 -7 10 -4 6 3 10 8 10 11 0 2 -4 4 -10 4 -5 0 -10
-5 -10 -11z"/>
<path d="M6156 7231 c-3 -5 2 -15 12 -22 15 -12 16 -12 5 2 -7 9 -10 19 -6 22
3 4 4 7 0 7 -3 0 -8 -4 -11 -9z"/>
<path d="M5993 7223 c4 -3 -1 -12 -11 -20 -9 -8 -12 -12 -6 -9 6 3 11 -1 11
-9 0 -10 -4 -12 -12 -5 -16 13 -47 2 -38 -14 3 -6 3 -8 -2 -4 -4 4 -15 2 -23
-5 -13 -9 -14 -9 -8 1 4 6 5 12 2 12 -3 0 -13 -15 -21 -32 -8 -18 -13 -25 -10
-15 2 9 0 17 -5 17 -9 0 -14 -15 -11 -33 1 -4 -8 -3 -20 4 -12 6 -19 7 -15 1
9 -15 -4 -42 -19 -42 -8 0 -17 -5 -21 -12 -5 -7 -3 -8 6 -3 8 5 11 3 8 -6 -3
-8 -11 -13 -17 -11 -6 1 -11 -7 -11 -18 0 -11 -5 -20 -11 -20 -7 0 -9 -10 -7
-24 3 -16 1 -23 -8 -19 -6 2 -15 -1 -20 -8 -4 -7 -3 -10 3 -6 6 4 14 0 17 -8
3 -10 -1 -19 -12 -23 -22 -9 -26 -30 -10 -50 11 -13 11 -14 -1 -7 -11 6 -13 3
-9 -13 4 -13 1 -22 -5 -22 -8 0 -8 -3 -2 -8 6 -4 11 -13 13 -21 3 -12 1 -12
-13 -1 -15 12 -15 11 -4 -13 7 -15 15 -24 20 -22 9 6 6 -16 -5 -34 -5 -8 -3
-16 5 -22 12 -7 11 -9 -1 -9 -13 0 -13 -1 0 -10 13 -8 13 -10 1 -10 -11 0 -10
-4 5 -16 10 -8 14 -13 7 -10 -16 8 -10 -23 6 -34 9 -5 10 -10 2 -14 -6 -4 -11
-12 -11 -18 0 -7 5 -6 14 1 14 12 32 0 19 -13 -13 -13 -11 -36 3 -36 8 0 11 7
8 18 -5 14 -4 15 5 2 6 -9 6 -19 1 -24 -5 -5 -3 -15 6 -23 9 -9 12 -24 9 -37
-5 -19 -5 -19 8 3 11 18 15 20 20 8 3 -8 0 -20 -6 -27 -7 -7 -7 -10 -1 -7 6 3
17 -3 24 -13 10 -14 17 -16 26 -9 8 7 15 6 20 -2 4 -7 3 -9 -3 -6 -6 4 -14 0
-17 -9 -3 -8 -2 -12 3 -9 6 3 14 -2 19 -11 5 -9 13 -17 18 -17 5 -1 8 -5 7 -9
-5 -13 15 -9 20 5 4 9 6 9 6 -1 1 -7 6 -10 13 -6 7 4 8 3 4 -4 -4 -7 -1 -12 6
-12 7 0 26 -7 42 -15 24 -13 27 -13 23 -1 -4 11 0 13 15 11 12 -3 24 -8 27
-12 3 -5 12 -9 20 -11 12 -3 12 0 1 13 -11 13 -10 15 4 9 9 -3 16 -10 16 -15
0 -5 5 -9 11 -9 5 0 7 5 4 10 -8 14 8 13 22 -1 9 -9 11 -6 7 12 -3 14 -2 19 3
13 10 -13 46 -27 39 -16 -3 5 4 16 15 26 20 17 21 17 15 -6 -3 -13 -3 -17 0
-10 3 6 10 10 15 7 5 -4 6 2 2 11 -5 14 -3 16 11 11 14 -5 17 -3 12 8 -8 21
33 42 45 24 7 -11 9 -11 10 -1 1 6 3 17 4 22 1 6 3 15 4 20 0 6 6 10 12 10 8
0 8 -5 -1 -15 -7 -9 -8 -15 -2 -15 13 0 24 29 16 42 -5 7 3 9 22 5 16 -3 23
-4 17 -1 -16 7 -17 34 -2 34 5 0 7 5 4 10 -5 9 7 14 27 11 8 -1 5 20 -5 35 -8
14 20 27 36 17 13 -8 -12 28 -28 39 -7 5 -6 8 1 8 5 0 16 -6 23 -12 11 -11 11
-9 2 9 -9 17 -8 25 4 36 13 13 13 16 0 21 -8 3 -15 11 -14 18 0 10 2 10 6 1 7
-20 23 -15 16 5 -6 15 -5 16 13 2 18 -14 18 -14 5 3 -19 24 -20 61 -1 69 12 5
12 7 -3 7 -17 1 -17 2 -3 17 16 16 12 39 -5 29 -12 -8 -11 2 1 25 8 15 7 18
-3 14 -8 -3 -14 2 -14 10 0 8 4 13 8 10 4 -2 11 0 14 6 4 6 1 9 -7 8 -7 -2
-13 4 -13 12 0 8 -8 26 -17 39 -15 21 -15 26 -1 50 12 20 12 22 0 9 -15 -19
-28 -24 -26 -10 3 20 -3 31 -18 35 -17 4 -17 5 0 6 9 0 17 6 17 11 0 13 -41
30 -55 23 -5 -2 -1 3 10 13 17 14 17 16 3 11 -10 -4 -18 -2 -18 4 0 6 -5 7
-11 3 -6 -4 -9 1 -7 12 1 11 0 19 -4 19 -3 0 -16 9 -29 20 -18 15 -20 16 -10
2 12 -15 12 -17 -3 -11 -9 3 -16 10 -16 16 0 5 -5 6 -12 2 -7 -4 -8 -3 -4 4 4
7 2 12 -4 12 -6 0 -8 4 -5 10 3 6 -1 7 -9 4 -9 -3 -13 -11 -9 -17 4 -6 1 -7
-6 -3 -7 5 -10 14 -7 21 5 13 -10 15 -29 4 -14 -8 -57 16 -47 26 4 5 0 4 -8
-1 -14 -8 -47 -7 -91 1 -12 2 -16 -1 -13 -10 7 -17 -12 -29 -22 -14 -5 8 -3 9
7 4 12 -8 12 -6 0 8 -7 9 -16 17 -19 17 -3 0 -2 -3 1 -7z m62 -12 c3 -5 2 -12
-3 -15 -5 -3 -9 1 -9 9 0 17 3 19 12 6z m270 -81 c-3 -5 -12 -10 -18 -10 -7 0
-6 4 3 10 19 12 23 12 15 0z m72 -76 c-3 -3 -12 -4 -19 -1 -8 3 -5 6 6 6 11 1
17 -2 13 -5z m-660 -169 c0 -8 -4 -12 -9 -9 -5 3 -6 10 -3 15 9 13 12 11 12
-6z"/>
<path d="M5875 7169 c-4 -6 -5 -12 -2 -15 2 -3 7 2 10 11 7 17 1 20 -8 4z"/>
<path d="M5512 7127 c10 -8 14 -18 10 -22 -4 -5 -1 -5 6 -1 17 10 15 14 -10
26 -21 10 -21 10 -6 -3z"/>
<path d="M4207 7013 c-11 -11 -8 -20 7 -20 8 0 12 6 9 14 -6 15 -7 15 -16 6z"/>
<path d="M4700 6979 c0 -5 5 -7 10 -4 6 3 10 8 10 11 0 2 -4 4 -10 4 -5 0 -10
-5 -10 -11z"/>
<path d="M6436 6967 c3 -10 9 -15 12 -12 3 3 0 11 -7 18 -10 9 -11 8 -5 -6z"/>
<path d="M4685 6963 c3 -3 0 -11 -5 -18 -7 -8 -5 -12 4 -12 14 0 16 22 3 32
-4 3 -5 2 -2 -2z"/>
<path d="M5588 6923 c7 -3 16 -2 19 1 4 3 -2 6 -13 5 -11 0 -14 -3 -6 -6z"/>
<path d="M5718 6923 c7 -3 16 -2 19 1 4 3 -2 6 -13 5 -11 0 -14 -3 -6 -6z"/>
<path d="M1715 6870 c-3 -5 -2 -10 4 -10 5 0 13 5 16 10 3 6 2 10 -4 10 -5 0
-13 -4 -16 -10z"/>
<path d="M6808 6866 c-10 -7 -15 -16 -11 -20 4 -4 0 -4 -10 0 -11 4 -17 1 -17
-7 0 -7 -3 -9 -6 -6 -4 4 -1 13 6 22 11 13 10 14 -3 9 -8 -3 -18 -12 -21 -20
-3 -8 -15 -14 -26 -14 -12 0 -18 -4 -15 -10 3 -5 1 -10 -4 -10 -6 0 -11 4 -11
8 0 5 -7 9 -15 9 -12 0 -12 -3 -2 -16 10 -12 9 -14 -7 -8 -16 6 -17 5 -6 -8
12 -14 10 -14 -16 -5 -28 11 -28 11 -9 -10 18 -20 18 -21 0 -14 -13 5 -16 4
-11 -4 4 -7 2 -12 -3 -12 -6 0 -11 5 -11 10 0 6 -5 10 -12 10 -6 0 -8 -3 -5
-7 4 -3 -1 -16 -10 -27 -10 -12 -11 -15 -3 -8 8 6 18 12 24 12 5 0 -5 -12 -22
-26 -27 -23 -30 -29 -20 -42 11 -13 11 -14 -1 -7 -11 6 -13 2 -9 -18 4 -18 1
-24 -9 -20 -7 3 -10 10 -6 16 3 6 1 7 -6 3 -9 -6 -9 -11 0 -22 9 -11 8 -14 -4
-14 -9 0 -19 -5 -23 -12 -4 -7 -3 -8 4 -4 17 10 32 -2 26 -19 -4 -8 -10 -12
-15 -9 -5 3 -9 0 -9 -5 0 -6 5 -11 10 -11 6 0 10 -5 10 -11 0 -5 -4 -8 -9 -5
-13 8 -21 -18 -10 -35 12 -19 11 -32 0 -24 -6 3 -8 -4 -5 -17 3 -13 6 -33 5
-45 0 -13 3 -23 9 -23 5 0 7 -9 5 -20 -2 -11 2 -20 8 -20 7 0 6 -4 -3 -10 -13
-8 -12 -10 3 -10 20 0 22 -11 5 -29 -10 -11 -10 -13 0 -7 6 4 12 2 12 -4 0 -7
7 -10 15 -7 8 4 17 1 21 -5 4 -7 3 -8 -4 -4 -8 5 -12 -2 -12 -19 0 -20 4 -26
14 -22 11 4 13 1 9 -11 -6 -14 -4 -15 9 -5 13 11 15 9 13 -16 -1 -25 2 -29 25
-27 19 1 27 -3 26 -13 -1 -10 9 -16 28 -18 15 -1 31 -5 35 -9 3 -4 -4 -4 -16
-1 -14 3 -23 1 -23 -7 0 -11 18 -15 78 -17 12 -1 22 -5 22 -11 0 -5 -4 -6 -10
-3 -6 3 -7 -1 -3 -10 3 -9 9 -12 12 -7 9 14 60 21 65 8 3 -7 5 -7 5 2 1 6 6
12 12 12 5 0 7 -4 4 -10 -3 -6 1 -7 9 -4 9 3 13 11 9 17 -4 6 -1 7 8 1 23 -14
58 -13 52 3 -3 7 2 13 12 13 9 0 14 -4 10 -9 -3 -5 -1 -12 4 -15 5 -4 8 5 7
18 -2 17 1 23 10 19 8 -3 11 -10 8 -17 -3 -6 4 0 15 13 12 13 21 19 22 15 0
-5 5 2 10 15 8 20 11 22 26 10 12 -10 14 -10 9 -1 -4 6 -3 12 1 12 5 0 18 7
29 16 10 8 13 13 7 9 -7 -3 -13 -1 -13 4 0 6 6 11 14 11 8 0 23 13 32 29 10
17 21 28 26 25 4 -3 5 2 2 10 -9 22 -11 21 -30 -19 -9 -20 -18 -34 -21 -32 -5
5 34 77 49 92 8 7 8 6 3 -4 -6 -10 -4 -12 4 -7 7 5 10 11 7 14 -3 3 0 12 7 20
6 9 7 13 1 9 -7 -4 -10 11 -10 47 1 39 4 52 14 49 13 -6 7 22 -11 45 -7 8 -5
12 6 12 10 0 14 6 11 15 -4 8 -10 13 -14 10 -5 -3 -12 0 -16 6 -4 7 -3 9 4 5
6 -3 13 -2 16 3 4 5 -2 12 -11 14 -16 4 -16 5 1 6 20 1 20 1 0 16 -19 15 -19
15 1 9 15 -4 13 -1 -5 10 -23 14 -23 15 -5 16 15 1 16 3 5 7 -8 4 -21 13 -30
22 -13 13 -13 14 2 9 9 -4 19 -4 22 -1 10 10 -15 33 -38 34 -20 0 -21 1 -1 9
19 8 19 9 -3 9 -13 1 -20 5 -17 11 4 6 12 7 18 3 7 -4 6 1 -2 10 -10 13 -17
14 -27 7 -10 -9 -11 -7 -7 9 3 13 1 21 -6 21 -7 0 -9 5 -5 11 5 8 1 8 -13 0
-18 -9 -20 -7 -17 14 3 30 1 30 -17 8 -12 -14 -12 -16 0 -8 10 5 12 4 7 -3
-10 -16 -14 -15 -27 9 -7 13 -7 19 -1 15 6 -3 14 -1 18 6 4 7 4 10 -1 6 -4 -4
-14 -3 -22 3 -7 6 -13 8 -13 4 0 -4 -8 -1 -17 6 -16 13 -17 12 -4 -3 7 -10 18
-15 24 -11 6 3 7 1 3 -6 -8 -12 -30 -1 -47 22 -3 5 -9 8 -13 8 -3 -1 -16 -1
-28 -1 -19 0 -20 2 -8 10 8 5 10 10 5 10 -6 0 -16 -5 -23 -12 -9 -9 -12 -9
-12 0 0 7 -5 12 -11 12 -5 0 -8 -4 -4 -9 3 -5 1 -13 -5 -16 -6 -4 -9 -1 -8 6
2 6 -3 14 -11 17 -8 2 -11 0 -7 -6 3 -6 2 -13 -4 -17 -9 -6 -14 7 -11 28 1 9
-1 9 -21 -7z m286 -104 c3 -5 -1 -9 -9 -9 -8 0 -12 4 -9 9 3 4 7 8 9 8 2 0 6
-4 9 -8z m81 -92 c3 -6 -1 -7 -9 -4 -18 7 -21 14 -7 14 6 0 13 -4 16 -10z"/>
<path d="M4010 6785 c0 -7 30 -13 34 -7 3 4 -4 9 -15 9 -10 1 -19 0 -19 -2z"/>
<path d="M1733 6751 c0 -11 5 -18 9 -15 4 3 5 11 1 19 -7 21 -12 19 -10 -4z"/>
<path d="M1760 6640 c-9 -6 -10 -10 -3 -10 6 0 15 5 18 10 8 12 4 12 -15 0z"/>
<path d="M6460 6639 c0 -5 5 -7 10 -4 6 3 10 8 10 11 0 2 -4 4 -10 4 -5 0 -10
-5 -10 -11z"/>
<path d="M3910 6599 c0 -5 5 -7 10 -4 6 3 10 8 10 11 0 2 -4 4 -10 4 -5 0 -10
-5 -10 -11z"/>
<path d="M3866 6522 c-3 -5 1 -9 9 -9 8 0 12 4 9 9 -3 4 -7 8 -9 8 -2 0 -6 -4
-9 -8z"/>
<path d="M5505 6500 c-3 -5 -1 -10 4 -10 6 0 11 5 11 10 0 6 -2 10 -4 10 -3 0
-8 -4 -11 -10z"/>
<path d="M3846 6492 c-3 -5 1 -9 9 -9 8 0 12 4 9 9 -3 4 -7 8 -9 8 -2 0 -6 -4
-9 -8z"/>
<path d="M7216 6487 c3 -10 9 -15 12 -12 3 3 0 11 -7 18 -10 9 -11 8 -5 -6z"/>
<path d="M7209 6438 c-6 -21 -6 -39 1 -43 5 -3 7 3 6 12 -2 10 2 21 8 25 8 5
7 8 -1 8 -7 0 -13 -1 -14 -2z"/>
<path d="M7504 6419 c-3 -6 -15 -8 -26 -6 -11 3 -27 -3 -39 -16 -14 -15 -18
-17 -14 -6 4 10 1 20 -6 25 -7 4 -10 3 -6 -3 4 -6 -1 -19 -9 -29 -9 -10 -13
-14 -10 -8 4 7 -5 11 -22 11 -15 0 -21 -2 -14 -4 23 -9 12 -20 -18 -18 -29 2
-30 1 -13 -18 17 -19 17 -20 -4 -8 -14 7 -24 8 -28 1 -3 -5 -3 -10 2 -10 4 0
-5 -9 -22 -20 -16 -11 -25 -20 -19 -20 5 0 15 5 21 11 8 8 13 8 18 0 4 -7 1
-10 -7 -9 -7 2 -12 -2 -11 -9 2 -8 -4 -10 -15 -6 -15 6 -16 5 -2 -12 14 -17
14 -18 -8 -6 -12 6 -22 8 -21 4 1 -4 0 -11 -1 -15 -4 -13 -7 -27 -9 -38 0 -5
-6 -9 -13 -7 -7 1 -13 -9 -13 -23 0 -14 -3 -29 -6 -35 -3 -5 -5 -17 -4 -25 0
-8 -4 -19 -10 -23 -6 -5 -3 -7 8 -3 9 3 17 1 17 -5 0 -6 5 -7 12 -3 7 4 8 3 4
-5 -4 -6 -12 -8 -18 -5 -7 5 -9 -11 -6 -49 2 -31 2 -54 -2 -52 -4 2 -7 -2 -7
-10 0 -8 4 -12 8 -9 4 2 13 -5 19 -17 8 -15 9 -19 1 -15 -6 4 -11 2 -11 -3 0
-6 7 -11 16 -11 8 0 13 -4 9 -10 -3 -5 -13 -7 -23 -4 -10 3 -8 0 5 -8 23 -14
27 -26 12 -44 -5 -7 -3 -11 6 -11 8 0 12 4 9 8 -2 4 0 10 5 13 10 7 9 -13 -2
-31 -4 -6 -2 -15 4 -19 7 -4 9 -3 6 3 -3 5 1 10 10 10 12 0 10 -5 -8 -20 -13
-11 -17 -18 -9 -15 9 3 22 -7 32 -24 10 -15 23 -28 28 -28 6 0 8 -6 4 -12 -5
-8 -2 -8 10 1 9 8 16 10 14 5 -2 -5 1 -10 6 -11 5 -1 12 -6 16 -13 4 -6 16
-12 27 -13 12 0 19 -6 16 -13 -3 -8 2 -11 16 -7 12 3 18 10 15 17 -4 6 5 -1
20 -16 29 -31 47 -38 25 -11 -10 11 -10 14 -1 9 7 -4 12 -2 12 6 0 10 3 9 9
-2 6 -8 7 -19 3 -25 -3 -5 1 -4 9 2 9 7 25 11 37 8 12 -2 21 -1 21 3 -3 20 2
25 11 12 8 -13 10 -12 10 4 0 19 0 19 14 1 13 -18 14 -17 29 11 8 16 18 28 21
27 3 -2 16 -3 27 -3 19 0 20 2 8 17 -13 15 -12 15 11 3 22 -12 24 -12 12 3
-11 13 -10 15 10 10 23 -5 23 -5 3 11 -19 15 -19 16 10 5 16 -5 26 -7 22 -3
-4 4 -1 14 6 23 10 14 10 14 -5 3 -12 -10 -18 -10 -24 -1 -4 7 -3 9 3 6 6 -4
14 0 17 9 3 9 11 12 18 8 8 -5 7 0 -2 11 -14 17 -13 18 2 12 13 -4 15 -2 11
11 -6 15 -5 16 12 2 17 -13 18 -13 10 0 -18 29 -15 51 8 60 16 6 17 9 5 9 -22
1 -32 17 -17 27 8 5 9 3 4 -6 -6 -9 -4 -11 4 -6 9 6 8 13 -6 28 -18 21 -18 21
5 9 13 -7 26 -10 30 -7 3 3 0 6 -6 6 -7 0 -12 7 -12 16 0 9 -5 12 -12 8 -9 -6
-9 -3 0 9 8 9 11 21 7 27 -3 5 2 10 12 10 14 0 15 2 4 9 -8 5 -10 14 -5 22 6
10 3 10 -11 -1 -17 -14 -18 -14 -6 8 7 12 17 20 23 16 7 -4 8 -3 4 5 -4 6 -11
9 -16 6 -5 -3 -11 -1 -15 5 -3 5 1 10 9 10 19 0 21 16 4 26 -7 4 -8 3 -4 -4 5
-8 2 -10 -9 -6 -14 6 -14 8 2 20 10 7 14 14 9 14 -5 0 -3 6 3 13 8 10 7 14 -4
14 -8 0 -11 -5 -8 -11 4 -6 2 -7 -3 -3 -5 5 -9 24 -9 43 0 19 -3 33 -6 31 -3
-1 -13 4 -22 12 -13 10 -14 17 -5 35 10 19 10 20 -5 7 -15 -12 -17 -11 -17 8
0 14 -6 21 -20 21 -11 0 -20 5 -20 11 0 5 5 7 10 4 16 -10 11 1 -7 16 -11 10
-14 10 -9 2 4 -7 2 -13 -3 -13 -6 0 -11 5 -11 10 0 6 -9 10 -20 10 -11 0 -20
5 -20 11 0 5 5 7 12 3 7 -4 8 -3 4 4 -4 6 -13 9 -21 6 -8 -4 -12 -11 -8 -18 4
-6 -1 -5 -10 3 -18 14 -23 26 -8 16 5 -3 12 -2 15 3 2 4 -6 8 -19 8 -13 0 -22
-3 -20 -6 2 -4 -2 -7 -10 -7 -8 0 -12 4 -10 8 3 4 -2 10 -11 13 -12 5 -15 2
-10 -10 5 -14 4 -15 -9 -4 -8 7 -12 16 -9 21 3 5 3 9 0 9 -3 0 -8 -5 -12 -11z
m269 -184 c-3 -9 -8 -14 -10 -11 -3 3 -2 9 2 15 9 16 15 13 8 -4z m-550 -52
c-7 -3 -10 -10 -7 -18 3 -7 0 -16 -5 -20 -6 -3 -9 -10 -6 -15 3 -5 1 -11 -4
-14 -10 -7 -9 13 1 30 4 6 6 21 3 32 -3 16 0 19 13 15 9 -4 11 -8 5 -10z m71
-429 c3 -8 2 -12 -4 -9 -6 3 -10 10 -10 16 0 14 7 11 14 -7z m241 -84 c3 -6
-1 -7 -9 -4 -18 7 -21 14 -7 14 6 0 13 -4 16 -10z"/>
<path d="M6281 6391 c-8 -5 -9 -11 -3 -15 5 -3 12 1 16 9 6 17 6 18 -13 6z"/>
<path d="M7755 6280 c-3 -5 -1 -10 4 -10 6 0 11 5 11 10 0 6 -2 10 -4 10 -3 0
-8 -4 -11 -10z"/>
<path d="M4990 6270 c0 -6 4 -9 9 -6 5 4 12 1 14 -4 3 -6 4 -5 3 2 -3 15 -26
23 -26 8z"/>
<path d="M5257 6273 c-4 -3 -7 -11 -7 -17 0 -6 5 -5 12 2 6 6 9 14 7 17 -3 3
-9 2 -12 -2z"/>
<path d="M5735 6220 c-3 -5 -3 -16 0 -22 4 -7 0 -5 -8 5 -11 13 -16 14 -20 4
-3 -7 -19 -12 -38 -12 -19 1 -40 -3 -47 -8 -9 -7 -11 -6 -6 7 5 12 2 15 -10
10 -9 -3 -14 -10 -11 -14 3 -5 -4 -6 -15 -3 -11 3 -18 9 -15 13 3 5 1 11 -4
14 -5 4 -8 -5 -7 -18 2 -17 -1 -23 -10 -19 -8 3 -14 10 -14 17 0 6 -4 5 -9 -4
-6 -8 -7 -18 -4 -24 3 -5 1 -6 -6 -2 -6 4 -9 11 -7 15 3 4 -1 8 -8 8 -8 0 -12
-6 -9 -13 2 -6 -1 -15 -8 -20 -8 -4 -10 -3 -5 4 10 16 -7 15 -23 0 -10 -9 -12
-9 -7 -1 3 6 2 15 -4 18 -6 4 -10 3 -9 -2 3 -18 -2 -33 -11 -33 -5 0 -6 7 -3
17 4 11 3 14 -5 9 -7 -4 -12 -15 -12 -24 0 -15 -2 -15 -10 -2 -8 13 -12 12
-27 -4 -17 -18 -17 -19 2 -12 15 6 17 4 8 -5 -15 -15 -34 -3 -26 18 4 11 3 14
-5 9 -7 -4 -12 -14 -12 -23 0 -9 -3 -14 -6 -10 -4 3 -13 0 -21 -8 -11 -11 -19
-12 -34 -5 -14 8 -19 7 -19 -3 0 -8 -8 -21 -18 -30 -15 -13 -21 -14 -32 -4
-10 10 -12 9 -7 -5 4 -11 1 -15 -11 -13 -9 1 -16 8 -14 15 1 6 -2 9 -8 5 -7
-4 -7 -12 0 -25 7 -13 7 -21 0 -25 -10 -6 -14 1 -11 19 1 5 -4 4 -12 -2 -8 -7
-18 -8 -22 -4 -5 4 -5 -1 -2 -10 7 -20 -8 -34 -17 -16 -4 7 -4 3 -2 -9 2 -13
-1 -21 -8 -20 -6 1 -10 -4 -8 -11 1 -8 -2 -11 -8 -7 -8 5 -7 12 2 23 12 15 11
16 -5 3 -10 -8 -15 -21 -12 -29 4 -12 3 -12 -9 -3 -11 9 -16 9 -22 0 -5 -8 -3
-9 5 -4 9 5 9 1 -1 -14 -7 -12 -14 -17 -16 -11 -2 5 -13 1 -24 -10 -13 -12
-18 -25 -14 -36 5 -14 4 -15 -9 -4 -13 10 -15 9 -15 -8 0 -15 -5 -20 -15 -16
-9 4 -15 0 -15 -10 0 -9 -5 -16 -11 -16 -5 0 -7 -5 -4 -10 4 -6 11 -7 17 -4 7
4 8 2 4 -5 -4 -6 -12 -9 -17 -6 -5 4 -9 1 -9 -4 0 -6 -4 -11 -10 -11 -5 0 -7
8 -3 18 7 18 5 17 -17 -12 -9 -12 -10 -17 -3 -12 9 5 12 0 11 -17 -2 -18 -7
-24 -20 -22 -21 4 -33 -11 -17 -21 8 -4 9 -3 5 4 -5 8 -1 10 10 5 15 -5 15 -7
0 -15 -9 -5 -22 -6 -29 -2 -7 5 -6 0 3 -11 14 -17 13 -18 -2 -12 -10 3 -18 2
-18 -3 0 -6 5 -10 10 -10 6 0 10 -5 10 -11 0 -5 -4 -7 -10 -4 -5 3 -10 -1 -10
-9 0 -8 -4 -18 -10 -21 -6 -4 -7 1 -4 12 5 15 4 15 -4 3 -7 -9 -8 -18 -1 -26
12 -14 -5 -29 -21 -19 -6 3 -7 -1 -4 -9 3 -9 11 -13 18 -10 6 3 3 -1 -6 -9
-10 -8 -15 -17 -11 -20 3 -4 0 -13 -6 -21 -7 -8 -10 -20 -6 -26 3 -5 1 -10 -4
-10 -6 0 -11 5 -11 12 0 6 -2 9 -5 6 -10 -10 7 -38 19 -31 7 4 7 1 -1 -9 -7
-8 -9 -19 -5 -23 4 -5 1 -5 -6 -1 -7 4 -10 11 -8 15 3 4 -1 8 -9 8 -9 0 -11
-4 -6 -11 5 -6 11 -15 13 -21 1 -5 7 -9 13 -7 5 1 -1 -7 -14 -18 -13 -11 -18
-20 -12 -20 7 0 3 -10 -9 -22 -13 -15 -17 -25 -10 -32 12 -12 14 -59 2 -52 -4
2 -7 -11 -7 -30 0 -25 4 -33 14 -29 11 4 12 3 1 -10 -7 -8 -17 -12 -24 -9 -6
3 -3 -1 7 -9 20 -16 23 -31 5 -22 -7 4 -2 -3 12 -16 24 -21 24 -21 3 -15 -14
5 -23 3 -23 -3 0 -6 5 -11 11 -11 7 0 9 -12 7 -30 -3 -17 0 -34 5 -37 6 -4 7
-1 2 8 -8 12 -6 12 8 0 18 -14 24 -26 8 -17 -5 3 -11 -3 -14 -14 -3 -13 -1
-18 6 -13 6 4 8 -2 4 -16 -5 -19 -3 -20 10 -9 14 11 15 11 5 -8 -11 -21 -11
-48 1 -60 3 -4 5 3 2 14 -2 12 1 25 7 28 7 4 8 2 4 -4 -4 -7 -1 -12 6 -12 9 0
9 -3 -2 -10 -8 -5 -10 -10 -5 -10 6 0 1 -8 -10 -17 -15 -12 -16 -14 -3 -10 16
6 43 -15 33 -25 -3 -3 1 -11 9 -17 11 -9 12 -19 6 -36 -7 -19 -6 -23 4 -19 9
3 13 -1 13 -13 -1 -10 4 -17 11 -15 8 1 11 -2 7 -8 -3 -5 -1 -10 6 -10 7 0 4
-7 -7 -16 -10 -8 -13 -13 -6 -9 6 3 12 1 12 -6 0 -8 5 -7 17 2 15 13 15 12 4
-8 -12 -23 -6 -29 22 -24 5 1 6 -3 2 -8 -3 -6 -11 -9 -18 -7 -7 1 -9 1 -4 -1
4 -3 4 -10 1 -15 -4 -7 -2 -8 4 -4 7 4 12 2 12 -4 0 -6 5 -8 10 -5 6 3 10 -1
10 -10 0 -9 4 -14 8 -11 5 3 9 -1 9 -9 0 -8 -3 -12 -7 -10 -4 2 -7 -2 -7 -9 0
-8 8 -12 21 -9 12 3 17 1 11 -4 -5 -4 -11 -14 -13 -22 -3 -12 0 -12 12 -2 12
10 14 9 10 -6 -4 -13 2 -22 18 -29 13 -5 17 -9 11 -7 -7 1 -13 -2 -13 -7 0 -9
15 -14 33 -11 4 1 3 -8 -3 -19 -9 -17 -8 -19 7 -14 15 5 15 3 -2 -11 -19 -16
-19 -16 7 -11 15 2 31 0 34 -6 4 -7 2 -8 -4 -4 -7 4 -12 1 -12 -10 0 -11 6
-15 20 -11 11 3 18 1 15 -3 -3 -5 -2 -10 2 -13 5 -2 2 -2 -4 -1 -7 2 -13 -1
-13 -6 0 -6 6 -10 13 -10 8 0 7 -4 -3 -11 -12 -8 -10 -9 8 -4 17 5 22 2 22
-14 0 -11 5 -23 10 -26 6 -4 8 -11 5 -16 -3 -5 1 -6 9 -3 23 9 39 -5 25 -22
-7 -9 -8 -14 -1 -14 6 0 14 -9 17 -20 3 -11 13 -20 21 -20 8 0 14 -4 14 -9 0
-5 10 -11 22 -14 17 -5 19 -9 9 -20 -9 -12 -8 -16 4 -20 9 -4 12 -13 9 -24 -4
-11 -3 -14 3 -7 15 20 41 13 35 -9 -4 -15 -1 -19 10 -14 21 8 31 -3 17 -19 -7
-9 -5 -14 10 -19 12 -3 21 -12 21 -19 0 -8 7 -19 15 -26 8 -7 12 -16 9 -21 -3
-5 -2 -8 3 -7 4 1 19 -2 31 -6 18 -6 22 -13 19 -28 -5 -17 -2 -19 18 -16 21 4
23 2 15 -13 -13 -23 -13 -38 0 -19 7 11 10 11 10 2 0 -7 4 -11 9 -7 5 3 12 1
15 -4 4 -5 2 -12 -4 -16 -13 -8 -3 -25 13 -25 7 0 6 4 -3 10 -8 5 -10 10 -4
10 7 0 24 -16 38 -35 20 -25 22 -33 10 -28 -12 4 -15 3 -10 -5 4 -7 14 -12 22
-12 11 0 19 -23 16 -51 -1 -3 6 -6 14 -6 10 0 11 4 4 11 -5 5 -10 15 -10 20 0
6 5 3 11 -7 6 -9 14 -15 19 -12 5 3 5 -8 0 -26 -8 -28 -7 -29 7 -17 15 11 16
10 11 -10 -6 -20 -4 -22 10 -10 10 8 13 8 9 1 -4 -6 -1 -17 6 -25 8 -7 12 -19
9 -26 -2 -6 3 -15 12 -18 9 -3 16 -11 16 -17 0 -6 10 -22 23 -35 12 -14 17
-22 11 -19 -7 4 -14 -2 -17 -14 -5 -17 -3 -18 10 -8 13 11 15 10 13 -6 -4 -33
-1 -45 11 -45 8 0 8 4 0 14 -9 11 -9 16 0 22 7 4 9 3 5 -4 -3 -6 -2 -13 3 -17
6 -3 8 -12 5 -20 -4 -8 -11 -12 -16 -9 -6 4 -5 -3 2 -15 6 -12 16 -19 21 -15
6 3 10 0 8 -7 -4 -32 1 -50 13 -43 8 5 9 2 5 -9 -4 -12 -1 -17 11 -17 15 0 15
-2 2 -10 -10 -6 -11 -10 -2 -10 7 0 12 -14 12 -35 0 -19 4 -35 10 -35 5 0 14
-10 20 -22 11 -22 10 -22 -4 -4 -9 11 -16 15 -16 9 0 -7 7 -19 17 -28 14 -14
14 -18 2 -26 -8 -5 -9 -9 -4 -9 6 0 15 4 21 10 6 6 10 3 10 -9 0 -11 -3 -18
-7 -15 -4 2 -6 -4 -5 -13 2 -9 8 -19 14 -21 7 -2 10 -8 6 -13 -3 -5 1 -9 8 -9
9 0 9 -3 -2 -10 -10 -6 -11 -10 -2 -10 14 0 12 -21 -3 -33 -6 -6 -4 -7 5 -4 9
2 23 -7 34 -22 11 -14 13 -20 6 -13 -20 17 -35 15 -20 -3 7 -8 9 -15 5 -15 -4
0 -3 -6 4 -13 8 -10 7 -17 -2 -27 -6 -8 -3 -7 8 2 20 16 20 16 19 -18 -1 -19
3 -34 8 -34 6 0 4 -8 -3 -17 -8 -9 -9 -14 -3 -10 7 4 12 -3 13 -18 3 -49 4
-55 14 -55 5 0 4 -7 -3 -15 -11 -13 -10 -14 4 -9 9 3 16 11 16 17 0 6 3 7 7 4
3 -4 -2 -16 -12 -27 -10 -11 -15 -23 -12 -27 4 -3 7 -1 7 5 0 7 8 12 18 11 10
0 12 -3 5 -6 -7 -2 -13 -9 -13 -14 0 -6 4 -8 9 -5 5 4 7 -3 4 -14 -3 -11 -10
-17 -16 -13 -6 3 -7 1 -3 -5 4 -6 12 -9 20 -6 7 3 13 -2 13 -10 0 -8 -6 -12
-14 -9 -9 4 -11 0 -7 -11 3 -9 11 -13 16 -10 6 4 8 1 6 -7 -3 -8 -11 -13 -18
-11 -11 3 -11 0 0 -12 15 -19 24 -21 14 -4 -4 6 -3 8 4 4 6 -3 9 -16 7 -27 -5
-23 18 -63 28 -52 4 3 7 4 7 1 0 -3 -8 -12 -17 -19 -9 -8 -14 -9 -11 -4 3 6
-1 17 -10 25 -14 13 -15 12 -8 -5 5 -11 9 -26 9 -33 0 -7 6 -11 12 -8 8 3 10
-4 7 -20 -2 -13 -9 -21 -15 -17 -6 3 -7 1 -3 -6 4 -6 11 -9 16 -6 4 3 10 -2
13 -10 4 -9 1 -12 -7 -9 -7 3 -13 -2 -13 -10 0 -8 5 -12 12 -10 6 3 11 -6 11
-20 0 -14 -4 -22 -8 -20 -5 3 -5 10 -2 16 4 7 2 8 -4 4 -13 -8 -5 -36 12 -36
6 0 4 -5 -4 -10 -13 -8 -13 -10 -1 -10 11 0 9 -4 -5 -15 -18 -13 -18 -14 6 -9
14 3 21 2 15 -3 -10 -8 -17 -28 -18 -50 0 -8 -4 -9 -11 -4 -7 6 -12 1 -13 -16
-1 -18 1 -22 8 -12 6 10 8 8 6 -8 0 -12 -5 -19 -9 -17 -4 3 -8 -3 -8 -13 0
-10 -9 -25 -19 -33 -19 -13 -19 -14 -3 -26 13 -10 14 -12 2 -11 -8 2 -21 6
-29 11 -8 5 -6 -3 5 -20 11 -15 13 -25 7 -21 -7 5 -21 3 -30 -3 -15 -10 -15
-11 -1 -6 24 7 30 -5 12 -26 -14 -15 -20 -16 -32 -5 -13 10 -14 9 -3 -10 10
-19 9 -23 -4 -23 -10 0 -13 -5 -9 -12 5 -8 2 -9 -10 -5 -10 4 -15 3 -11 -3 3
-5 -4 -14 -15 -20 -14 -7 -19 -17 -16 -27 4 -11 2 -13 -9 -9 -18 7 -20 -5 -2
-23 10 -11 8 -12 -9 -3 -14 7 -25 7 -35 0 -12 -8 -12 -9 2 -5 9 3 16 -1 16 -8
0 -6 -10 -12 -21 -11 -15 1 -21 -5 -19 -17 1 -13 -4 -17 -14 -12 -14 5 -14 3
-2 -12 9 -11 10 -14 2 -9 -7 4 -23 0 -35 -8 -12 -9 -18 -16 -12 -16 5 0 15 5
22 12 9 9 12 9 12 1 0 -15 -36 -26 -52 -17 -7 4 -10 4 -6 -1 4 -4 2 -15 -5
-24 -11 -14 -10 -14 6 -2 11 9 17 10 17 2 0 -10 -4 -12 -40 -15 -8 -1 -14 -7
-13 -14 2 -7 -5 -12 -15 -12 -14 0 -15 -2 -2 -10 13 -8 13 -11 1 -22 -10 -10
-12 -10 -7 0 4 6 2 12 -4 12 -8 0 -10 -9 -5 -27 6 -27 6 -27 -10 -8 -9 11 -13
14 -9 6 5 -10 3 -13 -9 -8 -11 4 -14 2 -10 -8 3 -8 10 -12 16 -8 6 3 7 1 3 -6
-5 -8 -12 -9 -19 -2 -8 6 -17 4 -27 -7 -13 -14 -13 -15 1 -10 9 4 16 1 16 -7
0 -7 -8 -10 -20 -7 -16 4 -19 2 -14 -13 5 -12 3 -16 -6 -12 -8 3 -20 1 -28 -4
-8 -5 -9 -9 -3 -9 6 0 11 -7 11 -15 0 -9 -6 -14 -14 -11 -7 3 -13 -1 -13 -10
0 -9 5 -12 12 -8 7 4 8 3 4 -4 -4 -6 -14 -8 -23 -5 -10 4 -14 2 -10 -4 4 -6 0
-18 -8 -26 -8 -9 -15 -22 -15 -30 0 -22 -12 -28 -29 -15 -13 11 -13 9 1 -7 14
-17 14 -23 4 -37 -7 -10 -19 -18 -27 -18 -8 0 -10 -3 -4 -8 6 -4 11 -14 11
-24 1 -12 -5 -15 -25 -13 -14 2 -20 2 -13 -1 6 -3 12 -12 12 -20 0 -9 -4 -13
-9 -9 -5 3 -13 0 -17 -6 -4 -7 -3 -9 4 -5 7 4 10 -2 9 -15 -1 -11 -10 -25 -20
-31 -15 -8 -16 -12 -6 -24 10 -12 9 -17 -1 -27 -10 -10 -11 -9 -5 2 5 9 4 12
-3 7 -9 -5 -9 -13 -2 -27 6 -11 16 -16 22 -13 7 5 8 2 4 -5 -5 -7 -15 -10 -23
-6 -13 4 -14 3 -3 -10 10 -12 10 -15 -3 -15 -9 0 -19 -4 -22 -10 -3 -6 1 -7 9
-4 16 6 22 -7 9 -20 -11 -11 -12 -37 -1 -30 12 8 6 -29 -7 -38 -6 -5 -5 -8 3
-8 10 0 10 -5 2 -21 -9 -17 -8 -23 7 -35 17 -13 17 -14 -1 -7 -13 4 -17 3 -13
-4 4 -6 4 -13 0 -16 -5 -2 -2 -2 5 0 8 1 12 -3 9 -9 -2 -7 0 -22 6 -33 l10
-20 -24 20 c-16 14 -20 15 -10 3 7 -9 9 -23 5 -29 -4 -8 -3 -9 4 -5 9 5 12 -6
12 -38 0 -32 5 -48 18 -56 16 -11 16 -11 0 -6 -10 3 -18 1 -18 -4 0 -6 5 -10
10 -10 6 0 10 -11 10 -25 0 -14 6 -25 13 -25 8 0 8 -3 -2 -9 -11 -7 -10 -10 5
-14 17 -4 17 -5 1 -6 -10 0 -15 -6 -12 -11 4 -6 10 -8 15 -5 4 3 14 -3 21 -12
10 -12 10 -14 2 -9 -7 4 -13 4 -14 -1 0 -4 -2 -16 -4 -25 -3 -16 12 -24 38
-19 5 1 6 -3 2 -9 -3 -6 -10 -8 -15 -5 -5 3 -12 0 -16 -7 -4 -7 -4 -10 1 -6 9
9 35 -9 35 -24 0 -6 -8 -4 -17 3 -15 11 -14 10 1 -9 20 -23 43 -31 30 -10 -4
7 -3 8 4 4 6 -4 9 -13 6 -21 -4 -8 -11 -12 -18 -8 -7 4 -7 1 1 -9 7 -8 9 -19
5 -23 -4 -5 -2 -5 4 -2 6 3 17 -3 24 -14 8 -10 20 -19 26 -19 8 0 10 -9 6 -22
-5 -21 -4 -22 11 -9 15 12 17 12 11 -3 -7 -19 23 -69 36 -61 6 4 7 -2 3 -12
-6 -16 -5 -17 12 -3 11 9 16 10 11 3 -4 -7 -2 -13 3 -13 6 0 11 -7 11 -15 0
-17 34 -37 45 -27 5 4 5 1 1 -5 -4 -7 -3 -13 3 -13 5 0 13 -9 16 -20 4 -11 15
-20 26 -20 11 0 26 -6 34 -12 37 -36 55 -47 55 -35 0 6 9 -3 20 -21 11 -17 23
-32 27 -31 26 4 43 -2 37 -13 -6 -10 -4 -10 8 0 14 11 18 10 27 -5 8 -14 11
-15 11 -3 1 10 4 9 10 -5 l9 -20 0 20 c1 16 3 17 10 6 5 -8 7 -21 4 -30 -4
-13 -3 -13 5 -2 12 16 32 6 33 -17 0 -12 3 -10 9 6 8 19 13 21 30 12 11 -6 20
-13 20 -16 0 -3 -5 -2 -12 2 -7 4 -8 3 -4 -5 4 -6 12 -9 17 -6 5 4 18 8 28 10
14 3 18 -1 14 -11 -7 -20 7 -18 23 4 12 15 13 15 9 -6 -3 -19 -2 -22 9 -12 11
8 16 8 20 -2 3 -7 4 -3 2 10 -2 12 0 20 5 16 5 -3 9 -11 9 -18 0 -8 12 -16 27
-19 25 -5 26 -4 9 8 -18 13 -17 14 3 12 19 -1 26 -10 22 -30 -1 -5 3 -6 9 -2
5 3 10 14 10 23 0 11 3 13 8 6 8 -13 61 -12 81 1 10 5 12 4 7 -3 -7 -11 21
-18 48 -13 5 1 13 -4 17 -11 7 -11 9 -11 9 0 0 7 5 10 12 6 7 -4 8 -3 4 5 -4
6 -13 8 -19 5 -7 -4 -9 -3 -5 1 12 12 58 15 58 4 0 -6 -5 -7 -12 -3 -7 4 -8 3
-4 -5 4 -6 12 -8 18 -5 6 4 14 1 18 -6 5 -8 9 -7 13 5 4 9 3 13 -2 10 -5 -3
-12 -1 -15 3 -3 5 5 9 17 8 12 -1 21 -8 19 -15 -1 -7 2 -10 8 -6 6 3 8 10 5
15 -3 4 2 11 10 14 9 3 18 -1 21 -9 4 -8 10 -12 16 -9 5 3 5 11 -2 19 -8 10
-7 13 4 11 9 -1 19 -6 23 -11 5 -4 1 -4 -7 0 -13 8 -13 7 -1 -8 16 -20 22 -22
18 -6 -1 6 4 14 12 17 8 2 11 0 7 -6 -3 -6 -2 -14 4 -17 6 -4 10 -3 9 2 -1 4
-1 15 0 23 1 13 2 13 11 0 6 -10 10 -11 10 -2 0 6 5 12 11 12 5 0 7 -6 4 -12
-4 -7 0 -5 8 5 10 12 17 15 22 7 5 -8 11 -8 19 -1 9 7 16 7 25 -2 10 -9 11 -8
5 6 -3 10 -3 17 2 16 23 -4 35 2 28 14 -4 6 -4 9 1 5 4 -4 15 -2 24 5 14 11
14 10 2 -6 -8 -10 -9 -17 -3 -17 6 0 18 10 27 23 l17 22 -7 -25 c-5 -21 -4
-22 5 -7 6 9 16 14 22 11 8 -5 9 -1 5 10 -6 14 -4 15 14 5 17 -8 20 -8 14 1
-5 9 -1 10 16 5 23 -7 24 -7 4 8 -20 16 -19 16 4 10 17 -4 22 -3 17 5 -4 7 -2
12 3 12 6 0 11 -5 11 -11 0 -5 5 -7 10 -4 6 4 7 12 3 18 -4 7 2 5 12 -3 11 -9
16 -10 11 -2 -7 11 5 17 28 13 5 -1 3 5 -4 14 -11 13 -10 15 4 9 13 -5 15 -2
10 12 -6 17 -5 17 10 -1 10 -11 15 -15 12 -9 -3 6 4 20 17 30 12 10 16 12 10
4 -7 -8 -13 -19 -13 -24 0 -6 7 0 16 12 8 12 12 26 9 32 -3 5 0 7 7 5 8 -3 18
4 24 17 6 13 9 17 7 11 -1 -7 2 -13 7 -13 6 0 10 5 10 11 0 5 4 7 10 4 6 -4 7
1 3 11 -5 13 -3 16 10 11 9 -3 19 -1 23 5 4 7 3 8 -4 4 -7 -4 -12 -1 -12 8 0
8 5 18 12 22 7 4 8 3 4 -4 -4 -7 -3 -12 2 -12 15 0 22 28 9 34 -7 4 -2 4 10 2
17 -3 20 0 15 13 -5 14 -4 14 13 1 17 -14 18 -14 7 7 -17 31 -15 40 4 17 8
-10 12 -13 8 -5 -5 10 -3 13 9 8 11 -4 14 -2 10 8 -3 8 -10 12 -17 9 -6 -3 -2
2 8 10 11 9 24 16 28 16 5 0 4 10 -3 21 -7 13 -7 19 -1 15 6 -3 13 -2 17 4 4
6 11 8 16 5 5 -3 6 1 2 10 -5 13 -7 14 -14 3 -7 -10 -9 -10 -9 0 0 7 11 17 23
23 13 6 24 17 24 24 0 8 -5 11 -10 8 -6 -3 -7 -1 -3 5 3 5 0 13 -6 16 -7 3 -3
3 9 1 12 -3 25 0 29 6 4 7 3 9 -3 6 -6 -4 -13 2 -16 14 -5 17 -3 18 9 8 12
-10 13 -9 7 7 -6 17 -5 18 12 4 18 -15 18 -14 0 13 -16 25 -16 27 -1 21 18 -7
19 15 1 28 -6 5 -3 8 7 8 9 0 20 5 24 12 4 6 3 8 -3 5 -6 -4 -14 0 -17 9 -3 8
-2 12 4 9 6 -3 15 -3 22 1 7 5 5 11 -7 21 -11 7 -13 13 -6 13 7 0 9 5 5 13 -6
8 -3 8 9 -1 15 -12 15 -11 7 18 -9 32 8 79 23 63 4 -3 7 -3 7 2 0 4 -8 14 -17
21 -17 13 -17 14 1 7 13 -4 17 -3 12 5 -4 7 -2 12 4 12 6 0 8 5 5 10 -4 6 -1
18 7 27 11 15 11 16 -7 9 -15 -5 -17 -4 -8 5 6 6 9 19 6 28 -4 11 -1 10 10 -4
16 -20 16 -19 10 5 -3 14 -10 30 -15 37 -6 7 -5 14 2 18 6 4 9 14 5 22 -4 13
-3 14 9 4 13 -11 15 -9 11 8 -2 11 0 23 5 26 5 3 7 12 4 20 -4 8 -10 12 -15 9
-5 -3 -9 -3 -9 1 0 3 10 10 23 15 22 9 22 9 -3 10 -14 0 -20 3 -14 8 6 4 14
17 18 30 6 17 3 22 -11 23 -16 0 -16 1 2 8 19 8 19 8 0 19 -17 10 -17 11 -3
12 9 0 20 5 24 12 4 7 3 8 -4 4 -8 -5 -12 1 -12 14 0 14 -4 19 -12 15 -7 -4
-4 1 6 9 18 15 15 21 -8 17 -5 -1 -4 4 2 11 16 20 11 60 -7 53 -10 -4 -9 1 5
16 10 12 13 19 7 15 -9 -5 -13 0 -13 16 0 51 -5 86 -12 82 -4 -2 -9 0 -13 6
-3 5 -1 10 5 10 6 0 8 5 5 10 -5 8 -12 7 -23 -2 -13 -10 -13 -8 1 9 11 13 14
22 7 25 -6 2 -11 20 -12 41 -1 26 -6 37 -17 37 -14 0 -14 2 -1 10 13 8 12 10
-2 10 -10 0 -18 5 -18 11 0 5 4 8 9 4 15 -8 8 60 -6 74 -16 14 -16 7 -2 -22
10 -21 10 -21 -6 -2 -18 23 -14 41 8 39 9 -1 14 2 11 7 -3 5 -13 9 -22 9 -15
0 -15 2 -2 10 12 8 12 10 -5 10 -18 1 -18 2 -3 10 9 6 15 18 13 28 -2 9 -4 17
-5 17 -1 0 -3 9 -5 19 -2 10 -9 22 -15 26 -9 5 -9 9 -1 14 6 4 11 12 11 17 0
6 -5 7 -11 3 -8 -5 -8 -1 0 14 13 25 14 35 2 27 -6 -3 -9 3 -8 14 1 15 4 17
14 9 10 -8 12 -7 7 6 -3 9 -10 16 -15 16 -5 0 -9 5 -9 11 0 6 7 9 15 5 13 -4
13 -2 5 14 -8 15 -6 21 6 28 11 6 13 11 5 16 -6 4 -11 2 -11 -3 0 -6 -5 -11
-11 -11 -8 0 -9 4 0 13 6 8 7 18 3 22 -4 5 1 5 10 2 12 -4 16 -1 13 14 -2 10
-7 25 -11 32 -5 7 0 6 11 -3 19 -15 19 -14 3 11 -17 26 -17 27 5 23 12 -2 16
-1 9 2 -10 5 -9 9 5 19 16 12 16 14 2 20 -14 5 -13 11 12 37 15 17 25 36 21
42 -14 24 -12 45 4 39 14 -5 15 -3 4 18 -13 23 -12 23 5 9 17 -14 18 -14 6 8
-10 18 -9 23 3 28 8 3 13 14 11 25 -2 10 1 21 6 24 5 4 7 10 4 15 -3 5 3 7 15
5 11 -2 23 1 26 7 4 6 3 8 -2 5 -6 -3 -16 -2 -24 4 -12 7 -12 9 -1 9 9 0 11 7
8 23 -6 22 -6 22 9 2 l16 -20 -4 20 c-2 11 2 19 7 18 6 -1 11 10 12 24 1 17
-2 22 -7 13 -5 -9 -8 -4 -7 13 1 16 6 22 12 17 15 -13 32 19 30 56 -1 19 3 30
9 28 6 -2 16 7 22 20 9 20 8 28 -5 42 -14 16 -14 17 0 6 22 -16 33 -2 11 15
-16 12 -16 13 1 7 12 -5 17 -1 17 14 0 11 7 22 15 26 8 3 12 12 9 21 -4 9 -1
15 7 15 11 0 11 2 -1 10 -13 8 -13 11 -1 22 10 9 12 10 7 1 -5 -9 -2 -11 8 -7
9 3 14 10 11 14 -3 5 -1 11 5 15 6 4 7 12 3 18 -9 15 -12 47 -3 42 4 -2 15 2
25 9 14 10 15 15 5 21 -9 6 -11 4 -5 -5 5 -9 4 -11 -4 -6 -8 6 -9 12 -2 20 6
7 8 16 4 20 -4 4 0 4 9 1 9 -4 19 -1 24 6 4 8 3 10 -4 5 -7 -4 -12 -2 -12 3 0
6 5 11 12 11 6 0 3 7 -8 15 -14 11 -15 14 -2 9 22 -8 47 34 27 47 -11 7 -10 9
3 9 9 0 20 5 24 12 4 6 3 8 -3 5 -6 -4 -14 0 -17 9 -3 8 -2 12 4 9 6 -3 10 0
10 7 0 9 3 9 10 -2 5 -8 10 -10 10 -5 0 6 -4 17 -10 25 -11 17 6 41 24 34 8
-3 12 3 11 18 -1 13 2 31 7 41 6 12 5 17 -4 17 -9 0 -10 3 -2 8 6 4 10 17 9
29 -1 12 1 22 4 21 19 -2 31 3 31 13 0 5 -4 8 -8 5 -5 -3 -9 2 -9 10 0 8 6 13
13 10 8 -3 11 0 7 10 -3 8 5 23 18 35 13 11 18 18 12 14 -9 -4 -13 1 -13 14 0
12 3 20 8 20 18 -3 22 2 13 20 -8 15 -7 20 7 26 16 6 15 8 -3 22 -16 13 -17
15 -2 10 9 -4 17 -2 17 4 0 6 6 7 13 3 6 -4 3 3 -8 16 -11 13 -15 21 -10 18 6
-3 19 6 29 21 11 14 13 20 6 14 -19 -18 -31 -16 -24 2 4 8 12 15 19 15 8 0 13
9 12 19 0 11 -5 17 -9 15 -5 -3 -5 -10 -2 -16 5 -7 2 -8 -5 -4 -9 6 -8 13 5
27 9 10 14 25 10 34 -3 9 -2 13 3 10 5 -3 12 -1 16 5 6 9 -8 14 -28 11 -5 -1
-6 3 -2 8 3 6 13 7 22 4 9 -4 14 -2 10 3 -3 6 -2 16 3 24 5 8 4 22 -2 34 -10
20 -10 20 7 6 17 -14 17 -14 7 7 -9 16 -9 22 1 26 9 3 9 9 0 25 -9 15 -9 23
-2 28 8 5 8 9 -1 14 -8 5 -7 9 5 13 9 4 13 3 10 -3 -3 -6 -2 -10 3 -10 5 0 9
14 8 30 0 17 -5 30 -10 30 -4 0 0 8 11 18 10 9 14 14 7 9 -7 -4 -14 -1 -18 8
-3 9 -2 14 2 11 4 -2 13 7 19 21 9 19 9 22 0 15 -9 -8 -12 3 -10 43 0 30 4 59
9 66 4 8 3 10 -4 5 -7 -4 -13 -2 -13 3 -1 6 -2 17 -3 24 -1 6 4 31 11 55 7 23
8 40 4 37 -5 -2 -15 2 -22 11 -7 8 -8 14 -3 13 23 -4 24 3 3 22 -13 11 -18 18
-11 14 8 -4 12 3 12 25 0 17 -4 29 -9 26 -5 -3 -8 8 -7 24 1 17 -2 30 -7 30
-4 0 -5 5 -2 10 4 6 12 7 18 3 7 -4 6 0 -2 10 -15 18 -26 23 -16 7 3 -5 2 -10
-2 -10 -5 0 -9 16 -10 35 -1 19 -8 42 -17 50 -18 18 -21 29 -6 20 16 -10 12
12 -6 29 -8 9 -12 16 -7 16 4 0 -1 8 -12 17 -16 12 -16 14 -3 10 10 -3 20 -1
24 5 4 7 3 8 -4 4 -7 -4 -12 -2 -12 4 0 6 -5 8 -12 4 -8 -5 -7 0 2 11 12 15
12 17 1 10 -11 -6 -13 -2 -9 19 4 20 2 24 -7 16 -15 -12 -25 -3 -18 17 3 8 1
18 -5 22 -5 3 -12 15 -14 26 -1 11 -6 23 -10 26 -5 3 -9 17 -10 31 -1 15 -6
24 -10 22 -5 -3 -5 -11 -1 -17 4 -7 -1 -6 -10 2 -11 9 -14 18 -8 25 6 7 4 18
-4 30 -8 10 -11 25 -8 34 4 14 3 15 -5 2 -6 -8 -9 -17 -6 -21 2 -4 -1 -11 -7
-15 -8 -4 -9 -3 -5 4 4 7 1 12 -6 12 -8 0 -9 3 -3 8 18 13 15 31 -5 37 -11 4
-20 11 -20 16 0 6 6 7 13 3 6 -4 4 2 -6 13 -9 11 -14 23 -10 28 5 4 -3 4 -17
0 -23 -7 -24 -7 -10 10 10 13 11 16 2 11 -9 -5 -15 -1 -19 12 -3 14 -10 19
-21 15 -14 -5 -14 -2 3 18 11 13 13 18 5 12 -17 -15 -34 -17 -25 -3 3 6 1 10
-5 10 -6 0 -8 5 -5 10 3 6 -1 10 -9 10 -14 0 -20 12 -17 33 0 4 -4 7 -10 7 -5
0 -7 5 -4 10 3 6 -1 13 -9 16 -9 3 -13 11 -10 16 4 6 -3 5 -15 -1 -20 -11 -20
-10 -10 16 6 15 7 24 3 20 -4 -4 -18 3 -31 15 -22 21 -24 21 -18 3 6 -16 5
-17 -4 -5 -6 8 -11 22 -11 31 0 9 -8 23 -17 30 -11 10 -14 10 -9 2 4 -7 2 -13
-3 -13 -10 0 -15 14 -12 33 0 4 -6 7 -15 7 -9 0 -12 -5 -8 -12 4 -7 3 -8 -4
-4 -7 4 -12 14 -12 22 0 9 5 12 12 8 7 -4 8 -3 4 4 -4 6 -14 8 -23 5 -10 -4
-14 -2 -9 5 3 6 2 13 -3 16 -5 4 -13 1 -17 -5 -5 -8 -3 -9 6 -4 8 5 11 4 6 -3
-4 -6 -14 -8 -22 -5 -12 5 -13 7 -3 14 10 6 8 13 -10 28 -13 11 -28 18 -32 15
-5 -3 -9 0 -9 6 0 6 -5 8 -12 4 -10 -6 -10 -5 0 8 10 13 9 18 -5 29 -11 9 -14
10 -9 2 4 -7 2 -13 -3 -13 -6 0 -11 7 -11 15 0 8 -5 15 -11 15 -5 0 -7 -6 -3
-12 5 -9 2 -9 -9 1 -18 15 -23 26 -7 16 6 -3 7 1 4 10 -5 13 -9 13 -22 3 -10
-8 -13 -9 -9 -1 4 6 1 13 -5 16 -10 3 -10 8 2 23 14 17 13 18 -1 7 -12 -10
-18 -10 -29 0 -10 10 -11 9 -4 -3 12 -21 14 -41 3 -34 -5 3 -7 10 -4 15 4 5 0
12 -9 15 -9 3 -12 12 -8 22 5 15 4 16 -13 2 -11 -9 -16 -10 -11 -2 4 8 1 12
-10 12 -13 0 -14 3 -4 15 7 8 17 12 23 8 6 -3 7 -1 3 5 -5 9 -13 8 -30 -3 -21
-14 -25 -14 -36 1 -12 13 -11 17 1 25 8 5 9 9 4 9 -6 0 -16 -5 -23 -12 -9 -9
-12 -9 -12 1 0 7 -4 9 -10 6 -6 -3 -10 4 -10 17 -1 22 -1 22 -15 4 -13 -18
-14 -17 -21 8 -5 21 -10 25 -27 20 -15 -5 -19 -3 -14 10 3 8 1 18 -5 22 -7 4
-8 3 -4 -4 4 -7 2 -12 -3 -12 -6 0 -11 5 -11 10 0 6 -5 10 -11 10 -5 0 -7 -6
-3 -12 5 -9 2 -9 -9 1 -9 7 -17 19 -17 27 0 8 -8 11 -20 9 -15 -3 -20 1 -18
13 2 13 -4 17 -24 16 -15 0 -24 4 -21 9 3 5 -4 6 -15 3 -23 -8 -39 8 -21 20 8
5 9 3 4 -6 -5 -9 -4 -11 4 -6 6 4 9 12 5 17 -3 5 -10 7 -15 4 -17 -11 -50 -14
-44 -4 4 5 1 9 -5 9 -7 0 -19 8 -28 18 -10 10 -13 12 -8 5 14 -21 -1 -15 -24
10 -19 20 -21 20 -14 2 7 -19 6 -20 -8 -1 -10 12 -20 16 -28 11 -10 -6 -12 -4
-7 7 4 12 0 15 -19 13 -17 -2 -24 2 -20 11 3 9 0 11 -11 7 -12 -5 -14 -3 -8 7
5 8 3 11 -6 8 -8 -3 -23 2 -34 11 -18 15 -19 15 -7 -1 10 -12 10 -18 1 -24 -8
-4 -9 -3 -5 4 4 7 1 12 -9 12 -10 0 -13 5 -9 12 4 6 3 8 -4 4 -6 -3 -13 -2
-17 4 -3 5 -11 10 -16 10 -6 0 -7 -4 -4 -10 3 -5 0 -7 -8 -4 -8 3 -17 14 -20
24 -5 18 -20 21 -42 9 -19 -10 -40 -3 -37 12 1 9 -4 16 -12 16 -8 0 -11 -7 -8
-19 2 -10 -1 -18 -7 -18 -7 0 -10 4 -6 9 3 5 1 12 -5 16 -6 4 -7 11 -4 17 4 6
-2 5 -15 -1 -17 -10 -22 -9 -27 4 -6 14 -8 14 -20 -2 -8 -10 -14 -13 -13 -8 3
24 -2 34 -16 29 -8 -4 -13 -10 -10 -14 3 -5 -6 -3 -19 3 -14 7 -24 14 -23 17
1 3 -2 5 -8 5 -5 0 -9 -3 -7 -7 1 -5 -2 -8 -8 -8 -5 0 -10 5 -10 10 0 6 -14
10 -31 10 -21 0 -28 -4 -23 -12 5 -9 2 -9 -9 1 -9 7 -17 10 -17 6 0 -5 -9 0
-20 10 -17 15 -22 16 -37 4 -9 -8 -14 -9 -10 -3 4 7 -3 14 -18 16 -13 3 -22 1
-19 -3 3 -5 0 -9 -5 -9 -6 0 -11 4 -11 10 0 5 -7 6 -17 3 -12 -5 -14 -3 -8 7
5 9 4 11 -3 6 -7 -4 -12 -15 -12 -24 -1 -15 -2 -15 -11 1 -10 16 -12 16 -30
-5 -11 -13 -18 -18 -15 -12 3 7 -1 18 -10 25 -13 10 -17 10 -25 -2 -8 -13 -13
-6 -10 14 2 10 -7 9 -14 -3z m1725 -780 c0 -5 -5 -10 -11 -10 -5 0 -7 5 -4 10
3 6 8 10 11 10 2 0 4 -4 4 -10z m55 -71 c-4 -5 -12 -9 -18 -8 -9 0 -8 2 1 6 6
2 9 10 6 15 -4 7 -2 8 5 4 6 -4 9 -12 6 -17z m-2788 -14 c0 -8 -7 -15 -15 -15
-12 0 -12 3 -2 15 7 8 13 15 15 15 1 0 2 -7 2 -15z m2843 -30 c0 -12 -19 -12
-23 0 -4 9 -1 12 9 8 7 -3 14 -7 14 -8z m135 -185 c3 -5 1 -10 -4 -10 -6 0
-11 5 -11 10 0 6 2 10 4 10 3 0 8 -4 11 -10z m69 -108 c3 -5 -1 -9 -9 -9 -8 0
-12 4 -9 9 3 4 7 8 9 8 2 0 6 -4 9 -8z m206 -632 c0 -5 -5 -10 -11 -10 -5 0
-7 5 -4 10 3 6 8 10 11 10 2 0 4 -4 4 -10z m-2886 -46 c3 -8 2 -12 -4 -9 -6 3
-10 10 -10 16 0 14 7 11 14 -7z m51 -53 c-3 -5 2 -17 11 -25 8 -9 11 -16 5
-16 -13 0 -32 35 -24 44 9 9 15 7 8 -3z m80 -101 c-3 -5 -1 -10 6 -10 7 0 10
-3 6 -6 -9 -9 -28 6 -22 17 4 5 8 9 11 9 3 0 2 -4 -1 -10z m110 -130 c-3 -5
-1 -10 6 -10 7 0 10 -3 6 -6 -9 -9 -28 6 -22 17 4 5 8 9 11 9 3 0 2 -4 -1 -10z
m2510 -510 c3 -5 1 -10 -4 -10 -6 0 -11 5 -11 10 0 6 2 10 4 10 3 0 8 -4 11
-10z m-2115 -74 c0 -3 -4 -8 -10 -11 -5 -3 -10 -1 -10 4 0 6 5 11 10 11 6 0
10 -2 10 -4z m17 -41 c0 -8 -4 -12 -9 -9 -5 3 -6 10 -3 15 9 13 12 11 12 -6z
m2028 -74 c3 -5 2 -12 -3 -15 -5 -3 -9 1 -9 9 0 17 3 19 12 6z m-1980 -51 c3
-5 1 -10 -4 -10 -6 0 -11 5 -11 10 0 6 2 10 4 10 3 0 8 -4 11 -10z m1855 -296
c0 -8 -19 -13 -24 -6 -3 5 1 9 9 9 8 0 15 -2 15 -3z m-1713 -149 c0 -8 -4 -12
-9 -9 -4 3 -8 9 -8 15 0 5 4 9 8 9 5 0 9 -7 9 -15z m1633 -40 c0 -2 -6 -8 -13
-14 -10 -8 -14 -7 -14 2 0 8 6 14 14 14 7 0 13 -1 13 -2z m-170 -439 c0 -3 -4
-8 -10 -11 -5 -3 -10 -1 -10 4 0 6 5 11 10 11 6 0 10 -2 10 -4z m-1762 -601
c-3 -3 -9 2 -12 12 -6 14 -5 15 5 6 7 -7 10 -15 7 -18z m-140 -160 c-3 -3 -9
2 -12 12 -6 14 -5 15 5 6 7 -7 10 -15 7 -18z m1917 -64 c3 -5 2 -12 -3 -15 -5
-3 -9 1 -9 9 0 17 3 19 12 6z m25 -131 c0 -5 -5 -10 -11 -10 -5 0 -7 5 -4 10
3 6 8 10 11 10 2 0 4 -4 4 -10z m-330 -742 c0 -4 -6 -5 -14 -2 -8 3 -12 13
-10 22 4 13 3 13 -6 -2 -10 -15 -9 -20 1 -27 11 -6 11 -9 2 -10 -28 -3 -32 -4
-40 -13 -5 -5 -3 -6 5 -2 6 4 12 2 12 -3 0 -6 -4 -12 -10 -12 -5 -1 -14 -2
-19 -3 -15 -2 -26 -16 -13 -16 7 0 12 -5 12 -11 0 -5 -4 -8 -9 -5 -5 3 -16 -6
-26 -20 -13 -21 -19 -23 -31 -13 -12 10 -13 9 -7 -7 6 -17 5 -18 -12 -4 -17
14 -18 14 -5 -10 12 -22 12 -24 -2 -12 -10 8 -19 9 -22 3 -3 -5 0 -12 6 -14 7
-3 3 -6 -10 -6 -13 -1 -21 -5 -17 -10 3 -5 0 -13 -6 -17 -7 -4 -9 -3 -5 4 3 6
2 13 -4 17 -5 3 -10 -1 -10 -10 0 -9 -4 -14 -9 -10 -5 3 -18 -5 -28 -18 -10
-13 -24 -22 -31 -19 -6 2 -15 -3 -18 -12 -3 -9 -10 -13 -15 -10 -13 8 -11 -10
2 -23 9 -9 7 -11 -7 -9 -12 2 -18 10 -16 22 2 18 2 18 -8 1 -6 -9 -16 -14 -22
-11 -8 5 -9 1 -4 -11 5 -15 4 -16 -9 -5 -13 11 -16 11 -13 -1 2 -9 -5 -14 -20
-13 -18 0 -21 -3 -17 -20 5 -18 4 -18 -4 -4 -9 13 -15 14 -35 5 -13 -7 -22
-16 -18 -22 3 -5 -5 -1 -18 10 l-23 20 11 -21 c9 -16 8 -21 -3 -21 -8 0 -12 4
-10 8 3 4 -2 9 -10 12 -10 4 -12 1 -7 -11 5 -15 3 -15 -23 2 -28 18 -29 18
-15 1 14 -16 13 -17 -8 -11 -18 6 -21 4 -16 -11 6 -16 5 -16 -7 -2 -19 22 -47
31 -55 17 -4 -6 -3 -8 2 -5 6 3 16 1 24 -5 13 -8 12 -9 -1 -5 -9 3 -22 0 -28
-6 -10 -9 -12 -9 -9 3 2 8 -1 14 -7 15 -5 0 -16 4 -24 9 -10 6 -12 5 -7 -3 6
-8 0 -10 -18 -5 -16 4 -33 1 -43 -7 -9 -8 -14 -9 -10 -3 9 15 -25 24 -45 13
-10 -5 -15 -4 -15 6 0 8 4 12 8 9 4 -2 10 -1 12 3 3 5 -10 8 -29 9 -19 0 -30
-2 -24 -6 8 -5 7 -9 -4 -13 -9 -4 -15 -3 -13 1 1 4 -2 7 -6 7 -5 0 -15 11 -24
25 -8 14 -12 17 -9 8 3 -10 1 -18 -4 -18 -6 0 -10 4 -10 8 0 5 -13 8 -30 7
-20 -1 -27 2 -21 9 6 7 1 11 -15 12 -14 1 -33 9 -42 18 -10 8 -26 15 -37 15
-37 1 -55 4 -50 9 3 3 -1 12 -7 21 -12 15 -11 15 7 0 33 -26 43 -30 51 -18 4
7 3 9 -4 5 -5 -3 -23 5 -39 18 -19 16 -34 22 -43 16 -17 -10 -50 9 -50 30 0
13 -1 13 -10 0 -8 -12 -10 -9 -10 13 0 17 -4 26 -10 22 -6 -4 -8 -10 -6 -14 3
-4 -1 -8 -9 -8 -8 0 -12 4 -9 8 2 4 0 11 -6 14 -6 4 -8 16 -5 28 4 12 3 18 -2
12 -4 -5 -17 -11 -28 -13 -16 -2 -17 -1 -5 7 14 10 7 15 -13 12 -5 -1 -5 4 -2
10 5 8 10 8 18 0 14 -14 30 -14 21 0 -3 6 5 4 18 -5 14 -9 28 -13 33 -9 4 5 6
1 3 -8 -4 -9 -1 -16 7 -16 8 0 11 7 7 16 -8 23 4 10 23 -24 l17 -30 -5 30 c-5
28 -4 28 9 10 12 -16 17 -17 23 -7 7 11 9 10 14 -3 4 -9 3 -13 -3 -10 -6 3
-10 1 -10 -4 0 -15 13 -14 29 2 11 9 13 9 7 0 -4 -7 -2 -13 3 -13 6 0 11 4 11
10 0 5 9 2 19 -7 11 -9 17 -21 14 -26 -3 -6 -1 -7 6 -3 6 4 9 11 6 16 -3 4 2
10 10 13 9 4 12 1 8 -9 -3 -9 1 -14 12 -14 10 0 13 -5 9 -12 -4 -7 -3 -8 5 -4
9 6 9 11 -1 24 -11 13 -11 14 2 7 15 -10 20 -11 41 -14 5 0 8 -5 5 -10 -11
-18 27 -21 41 -4 13 17 14 17 9 1 -6 -21 9 -34 20 -17 5 8 3 9 -6 4 -9 -5 -11
-4 -6 3 5 9 15 8 38 -4 16 -9 27 -11 24 -5 -4 6 -2 11 3 11 6 0 11 -3 11 -8 0
-4 21 -7 48 -6 26 0 57 -6 70 -13 19 -12 23 -12 28 0 3 9 15 12 36 9 20 -3 29
-1 24 6 -3 6 -2 14 4 17 6 4 9 1 8 -7 -5 -23 36 -15 58 11 16 18 21 20 21 8 0
-9 -4 -14 -8 -12 -9 6 -5 -22 5 -32 4 -4 7 -3 5 2 -1 6 1 18 6 28 7 17 8 17
21 0 13 -17 14 -17 7 1 -5 15 -3 18 10 13 12 -4 17 -1 17 11 0 10 3 13 8 7 11
-16 29 -12 47 10 17 20 17 20 11 0 -6 -20 -6 -20 9 -1 14 19 51 33 40 16 -3
-5 0 -12 6 -16 7 -4 9 -3 5 4 -3 6 -2 13 4 17 6 4 7 12 3 18 -3 7 3 4 15 -6
20 -19 21 -18 16 5 -2 12 -2 17 2 10 4 -9 13 -7 33 8 16 11 31 17 34 13 4 -3
9 2 13 11 6 15 7 15 20 -1 8 -10 14 -13 13 -8 -3 22 2 29 11 15 8 -13 10 -13
10 2 0 9 5 20 12 24 7 4 8 3 4 -4 -4 -7 -2 -12 3 -12 6 0 11 6 11 13 0 8 4 7
10 -3 8 -12 10 -12 10 5 0 14 3 16 8 7 6 -9 12 -6 22 12 l13 25 17 -21 c13
-17 19 -18 25 -8 5 8 4 11 -3 6 -23 -14 -20 12 3 34 14 13 25 20 25 15 0 -4
-8 -14 -17 -21 -12 -9 -14 -13 -5 -14 8 0 23 11 35 24 l22 25 12 -22 c7 -12
12 -25 13 -29z m-1683 -145 c0 -9 -4 -10 -14 -2 -7 6 -13 12 -13 14 0 1 6 2
13 2 8 0 14 -6 14 -14z m486 -68 c-3 -9 -8 -14 -10 -11 -3 3 -2 9 2 15 9 16
15 13 8 -4z m956 -8 c0 -8 -2 -8 -6 1 -4 10 -8 10 -21 0 -15 -12 -16 -11 -3 4
14 19 32 15 30 -5z m-1369 -32 c7 -9 8 -15 2 -15 -5 0 -12 7 -16 15 -3 8 -4
15 -2 15 2 0 9 -7 16 -15z m134 -131 c3 -8 2 -12 -4 -9 -6 3 -10 10 -10 16 0
14 7 11 14 -7z m175 -111 c4 -3 -28 2 -47 6 -2 1 0 6 3 11 5 8 12 7 23 -2 10
-7 19 -14 21 -15z"/>
<path d="M6835 620 c-3 -5 -1 -10 4 -10 6 0 11 5 11 10 0 6 -2 10 -4 10 -3 0
-8 -4 -11 -10z"/>
<path d="M6981 609 c-7 -12 -10 -23 -8 -26 3 -3 11 5 17 17 15 28 8 35 -9 9z"/>
<path d="M6805 609 c-4 -6 -5 -12 -2 -15 2 -3 7 2 10 11 7 17 1 20 -8 4z"/>
<path d="M5797 585 c-4 -8 -3 -16 1 -19 4 -3 9 4 9 15 2 23 -3 25 -10 4z"/>
<path d="M5860 526 c0 -2 8 -10 18 -17 15 -13 16 -12 3 4 -13 16 -21 21 -21
13z"/>
<path d="M5796 6217 c3 -10 9 -15 12 -12 3 3 0 11 -7 18 -10 9 -11 8 -5 -6z"/>
<path d="M5635 6210 c3 -5 8 -10 11 -10 2 0 4 5 4 10 0 6 -5 10 -11 10 -5 0
-7 -4 -4 -10z"/>
<path d="M5670 6216 c0 -2 7 -7 16 -10 8 -3 12 -2 9 4 -6 10 -25 14 -25 6z"/>
<path d="M5996 6207 c3 -10 9 -15 12 -12 3 3 0 11 -7 18 -10 9 -11 8 -5 -6z"/>
<path d="M6150 6179 c0 -5 5 -7 10 -4 6 3 10 8 10 11 0 2 -4 4 -10 4 -5 0 -10
-5 -10 -11z"/>
<path d="M6316 6132 c-3 -5 1 -9 9 -9 8 0 12 4 9 9 -3 4 -7 8 -9 8 -2 0 -6 -4
-9 -8z"/>
<path d="M5283 6115 c0 -8 4 -12 9 -9 5 3 6 10 3 15 -9 13 -12 11 -12 -6z"/>
<path d="M5210 6069 c0 -5 5 -7 10 -4 6 3 10 8 10 11 0 2 -4 4 -10 4 -5 0 -10
-5 -10 -11z"/>
<path d="M1970 6021 c0 -6 4 -13 10 -16 6 -3 7 1 4 9 -7 18 -14 21 -14 7z"/>
<path d="M6691 5987 c2 -2 11 -8 20 -15 12 -9 16 -9 16 1 0 7 -9 14 -20 14
-11 1 -18 1 -16 0z"/>
<path d="M1990 5946 c0 -2 7 -7 16 -10 8 -3 12 -2 9 4 -6 10 -25 14 -25 6z"/>
<path d="M8039 5831 c-3 -8 -15 -16 -28 -18 -16 -2 -20 1 -15 9 6 9 3 9 -9 -1
-9 -7 -23 -11 -31 -8 -10 4 -13 1 -9 -9 3 -7 0 -14 -6 -14 -6 0 -11 5 -11 11
0 5 -5 7 -10 4 -6 -4 -7 -12 -3 -18 4 -7 0 -7 -10 1 -14 12 -16 11 -12 -9 3
-17 2 -20 -7 -11 -15 15 -40 -11 -32 -35 3 -10 2 -14 -3 -8 -9 12 -20 12 -46
0 -13 -6 -15 -10 -7 -15 7 -4 9 -13 6 -19 -4 -6 -13 -8 -19 -4 -7 4 -6 -1 2
-10 12 -15 12 -17 -4 -11 -14 6 -16 4 -10 -6 6 -10 4 -12 -10 -6 -18 6 -18 6
1 -15 l19 -22 -23 12 c-22 12 -23 11 -12 -10 10 -18 10 -21 -2 -16 -8 3 -15
-1 -15 -9 0 -7 3 -11 7 -9 4 2 7 -2 7 -9 0 -8 -8 -11 -21 -8 -19 4 -19 3 3
-13 l24 -18 -24 -13 c-13 -7 -19 -13 -13 -14 7 0 15 -7 18 -16 5 -13 3 -14 -6
-6 -10 8 -13 1 -14 -33 0 -24 3 -42 8 -39 5 3 5 11 2 17 -4 7 -3 9 1 4 5 -4 9
-18 10 -31 0 -21 -2 -23 -15 -13 -13 10 -13 10 -3 -4 7 -9 10 -19 6 -23 -4 -4
1 -4 12 0 16 6 18 5 8 -7 -16 -16 -17 -29 -2 -29 5 0 8 4 5 8 -3 5 1 9 9 9 10
0 12 -4 5 -12 -5 -7 -6 -16 -2 -20 4 -5 0 -4 -8 0 -13 8 -13 7 -1 -8 10 -13
17 -14 27 -7 9 8 12 7 10 -4 -1 -9 -6 -19 -11 -23 -4 -4 -5 -2 0 6 6 10 4 12
-4 7 -9 -6 -8 -13 5 -27 9 -10 22 -19 28 -19 16 0 46 -37 38 -46 -4 -5 1 -2
11 6 16 11 18 11 15 -1 -2 -9 5 -13 21 -11 21 2 22 0 10 -15 -7 -10 -9 -15 -4
-10 4 4 19 0 32 -8 13 -9 23 -13 23 -9 0 4 6 2 13 -3 18 -13 82 -10 101 6 14
12 16 12 10 -3 -3 -9 -1 -16 5 -16 6 0 11 6 11 14 0 8 5 18 12 22 7 4 8 3 4
-4 -4 -7 -2 -12 3 -12 6 0 11 6 11 13 0 8 3 7 10 -3 5 -8 12 -11 16 -7 4 3 1
13 -6 22 -7 8 -9 15 -5 15 4 0 14 -8 22 -17 10 -14 13 -14 11 -3 -2 9 6 16 20
18 15 2 22 9 18 17 -3 9 3 12 19 11 17 -2 22 1 17 12 -4 11 -2 13 9 7 11 -7
11 -5 -1 10 -12 15 -12 17 -1 10 11 -6 13 -4 7 10 -5 14 -4 16 7 7 11 -9 13
-7 12 11 -3 25 15 53 24 38 4 -5 12 2 18 15 10 21 10 24 -2 14 -11 -9 -14 -8
-12 8 0 12 6 18 14 15 19 -7 16 8 -4 23 -17 13 -17 14 2 7 18 -6 18 -5 6 10
-16 20 -2 23 19 5 12 -11 12 -10 1 5 -7 9 -10 17 -5 17 4 0 -1 6 -11 14 -18
13 -18 13 0 24 17 9 17 12 5 28 -14 16 -13 17 5 11 16 -6 15 -3 -5 14 -14 11
-19 18 -12 14 7 -4 12 0 12 9 0 9 -4 16 -9 16 -5 0 -12 7 -15 16 -6 15 -4 15
11 3 16 -12 17 -12 6 1 -6 8 -11 18 -10 22 1 3 -2 10 -7 15 -5 5 -6 3 -2 -4 4
-7 2 -13 -4 -13 -7 0 -10 7 -6 15 7 19 -3 47 -15 39 -5 -3 -9 1 -9 10 0 8 5
16 12 18 7 3 5 7 -6 11 -10 4 -15 3 -11 -3 3 -6 1 -10 -6 -10 -7 0 -9 8 -6 21
4 15 2 18 -7 10 -16 -13 -27 -4 -19 15 3 9 0 14 -8 12 -7 -2 -13 4 -14 12 0 8
-6 14 -13 13 -7 -2 -12 2 -12 8 0 7 -10 9 -26 6 -18 -3 -24 -1 -20 9 3 8 2 13
-2 13 -25 -4 -42 2 -36 14 6 10 4 10 -7 0 -16 -16 -33 -17 -23 -1 4 6 3 8 -4
4 -5 -3 -12 0 -14 6 -4 10 -6 9 -9 -1z m-212 -116 c0 -8 -4 -12 -9 -9 -5 3 -6
10 -3 15 9 13 12 11 12 -6z m-22 -463 c-3 -3 -11 0 -18 7 -9 10 -8 11 6 5 10
-3 15 -9 12 -12z m425 -12 c0 -5 -5 -10 -11 -10 -5 0 -7 5 -4 10 3 6 8 10 11
10 2 0 4 -4 4 -10z m-280 -80 c0 -5 -2 -10 -4 -10 -3 0 -8 5 -11 10 -3 6 -1
10 4 10 6 0 11 -4 11 -10z m35 -18 c-3 -3 -11 0 -18 7 -9 10 -8 11 6 5 10 -3
15 -9 12 -12z"/>
<path d="M7641 5691 c-7 -5 -9 -11 -5 -14 5 -3 15 1 22 9 14 16 5 18 -17 5z"/>
<path d="M8328 5463 c7 -3 16 -2 19 1 4 3 -2 6 -13 5 -11 0 -14 -3 -6 -6z"/>
<path d="M3668 5423 c7 -3 16 -2 19 1 4 3 -2 6 -13 5 -11 0 -14 -3 -6 -6z"/>
<path d="M2157 5349 c7 -7 15 -10 18 -7 3 3 -2 9 -12 12 -14 6 -15 5 -6 -5z"/>
<path d="M8285 5280 c3 -5 8 -10 11 -10 2 0 4 5 4 10 0 6 -5 10 -11 10 -5 0
-7 -4 -4 -10z"/>
<path d="M3820 5037 c0 -2 6 -10 14 -16 11 -9 16 -9 22 1 4 7 4 10 -1 6 -4 -4
-14 -3 -22 3 -7 6 -13 9 -13 6z"/>
<path d="M3890 4946 c0 -2 7 -7 16 -10 8 -3 12 -2 9 4 -6 10 -25 14 -25 6z"/>
<path d="M2196 4862 c-3 -5 1 -9 9 -9 8 0 15 4 15 9 0 4 -4 8 -9 8 -6 0 -12
-4 -15 -8z"/>
<path d="M4767 4864 c7 -3 9 -13 6 -22 -4 -14 -3 -14 5 -2 12 16 7 30 -11 29
-9 0 -9 -2 0 -5z"/>
<path d="M7930 4716 c0 -8 4 -17 9 -20 5 -4 7 3 4 14 -6 23 -13 26 -13 6z"/>
<path d="M2187 4579 c7 -7 15 -10 18 -7 3 3 -2 9 -12 12 -14 6 -15 5 -6 -5z"/>
<path d="M7987 4357 c-3 -8 1 -14 8 -14 7 0 11 6 8 14 -3 7 -6 13 -8 13 -2 0
-5 -6 -8 -13z"/>
<path d="M5095 4310 c-3 -6 1 -7 9 -4 18 7 21 14 7 14 -6 0 -13 -4 -16 -10z"/>
<path d="M2185 4240 c-3 -5 -2 -10 4 -10 5 0 13 5 16 10 3 6 2 10 -4 10 -5 0
-13 -4 -16 -10z"/>
<path d="M5178 4213 c7 -3 16 -2 19 1 4 3 -2 6 -13 5 -11 0 -14 -3 -6 -6z"/>
<path d="M4260 4079 c0 -5 5 -7 10 -4 6 3 10 8 10 11 0 2 -4 4 -10 4 -5 0 -10
-5 -10 -11z"/>
<path d="M7970 4030 c-9 -6 -10 -10 -3 -10 6 0 15 5 18 10 8 12 4 12 -15 0z"/>
<path d="M5470 3881 c0 -6 4 -13 10 -16 6 -3 7 1 4 9 -7 18 -14 21 -14 7z"/>
<path d="M2253 3755 c0 -8 4 -12 9 -9 5 3 6 10 3 15 -9 13 -12 11 -12 -6z"/>
<path d="M2310 3586 c0 -2 7 -7 16 -10 8 -3 12 -2 9 4 -6 10 -25 14 -25 6z"/>
<path d="M2350 3510 c0 -5 5 -10 11 -10 5 0 7 5 4 10 -3 6 -8 10 -11 10 -2 0
-4 -4 -4 -10z"/>
<path d="M7811 3446 c-9 -11 -9 -16 1 -22 7 -4 10 -4 6 1 -4 4 -3 14 3 22 6 7
9 13 6 13 -2 0 -10 -6 -16 -14z"/>
<path d="M2390 3439 c0 -5 5 -7 10 -4 6 3 10 8 10 11 0 2 -4 4 -10 4 -5 0 -10
-5 -10 -11z"/>
<path d="M3950 3339 c0 -5 5 -7 10 -4 6 3 10 8 10 11 0 2 -4 4 -10 4 -5 0 -10
-5 -10 -11z"/>
<path d="M2540 3280 c0 -5 5 -10 11 -10 5 0 7 5 4 10 -3 6 -8 10 -11 10 -2 0
-4 -4 -4 -10z"/>
<path d="M2670 3199 c0 -5 5 -7 10 -4 6 3 10 8 10 11 0 2 -4 4 -10 4 -5 0 -10
-5 -10 -11z"/>
<path d="M3755 3201 c-3 -5 -2 -12 3 -15 5 -3 9 1 9 9 0 17 -3 19 -12 6z"/>
<path d="M2124 3078 c-5 -8 2 -12 18 -9 3 0 5 -14 2 -31 -2 -17 1 -37 7 -44 7
-8 6 -15 -2 -20 -8 -5 -9 -3 -4 6 5 9 4 11 -3 6 -9 -5 -7 -14 4 -32 15 -21 33
-36 20 -16 -3 5 1 9 9 9 10 0 12 -4 5 -12 -5 -7 -6 -16 -2 -20 4 -5 0 -5 -8
-1 -8 4 -6 0 4 -8 18 -14 15 -21 -7 -17 -4 1 4 -17 18 -39 14 -23 23 -45 20
-50 -6 -9 8 -14 27 -11 9 1 -1 -28 -16 -49 -8 -12 -8 -13 4 -2 17 14 34 16 25
2 -3 -5 -2 -10 4 -10 6 0 7 -7 4 -17 -4 -11 -3 -14 5 -9 7 4 12 1 12 -9 0 -10
5 -13 13 -9 8 5 7 2 -2 -9 -12 -15 -12 -17 4 -11 15 6 16 5 5 -17 -13 -23 -12
-23 5 -9 10 8 16 10 12 3 -4 -6 -3 -14 2 -18 6 -3 7 -13 4 -23 -6 -14 -4 -15
9 -4 13 10 17 10 22 -3 3 -9 2 -13 -4 -10 -6 3 -10 1 -10 -6 0 -7 9 -9 23 -6
22 6 22 6 2 -10 -20 -15 -20 -15 2 -10 17 4 21 1 18 -13 -2 -10 3 -21 11 -24
8 -3 13 -2 10 2 -3 5 1 9 9 9 19 0 19 -2 -1 -21 -14 -15 -14 -16 3 -16 28 0
95 -59 88 -78 -4 -12 -3 -12 9 -3 11 9 16 9 22 0 4 -8 3 -9 -4 -5 -7 4 -12 2
-12 -3 0 -6 7 -11 16 -11 9 0 12 -5 8 -12 -5 -8 0 -7 11 2 11 9 16 10 11 3 -4
-8 -1 -13 8 -13 9 0 16 -4 16 -10 0 -5 9 -10 20 -10 11 0 20 -5 20 -11 0 -5
-4 -7 -10 -4 -5 3 -10 4 -10 1 0 -3 9 -10 20 -16 16 -9 19 -8 14 7 -5 17 -5
17 9 1 8 -10 17 -15 21 -11 4 4 4 -1 0 -11 -6 -16 -5 -17 16 -6 19 10 22 10
17 -2 -3 -10 1 -15 11 -15 33 0 42 -3 42 -14 0 -8 -4 -8 -14 0 -11 9 -16 9
-22 -1 -4 -7 -4 -10 1 -6 4 4 14 3 21 -3 8 -7 14 -7 19 1 4 7 14 3 26 -11 10
-12 19 -18 19 -13 0 6 -5 15 -10 20 -7 7 -6 11 4 11 8 0 14 -3 12 -6 -2 -3 0
-15 5 -26 7 -18 8 -18 8 -2 1 10 6 15 11 12 6 -4 8 -12 4 -18 -3 -7 2 -3 11 8
17 20 17 20 11 -2 -6 -18 -4 -21 13 -18 11 2 23 0 26 -5 3 -5 12 -7 20 -4 8 4
12 10 9 15 -3 5 2 6 11 2 9 -3 13 -9 8 -12 -4 -3 -9 -13 -11 -21 -1 -9 6 -6
18 9 11 13 20 18 20 12 0 -7 4 -10 9 -7 5 3 14 -1 21 -9 12 -14 38 -10 53 9 5
7 6 3 3 -8 -5 -13 -2 -17 9 -12 8 3 15 1 15 -5 0 -6 4 -7 10 -4 5 3 20 1 32
-5 21 -10 22 -10 5 3 -17 14 -16 15 7 13 13 0 22 -5 18 -10 -3 -5 2 -6 11 -3
49 20 53 20 33 5 -15 -12 -16 -17 -6 -23 9 -6 11 -4 5 5 -6 9 7 11 58 8 36 -2
64 0 61 3 -2 4 0 10 6 14 6 3 10 -4 11 -17 l0 -23 9 23 c5 12 12 22 15 22 4 0
4 -4 1 -9 -3 -5 1 -12 10 -15 10 -4 13 -2 8 6 -5 8 -2 9 10 5 10 -4 15 -3 11
3 -3 6 -1 10 4 10 6 0 11 -4 11 -10 0 -5 5 -10 11 -10 5 0 8 4 5 9 -3 5 1 12
10 15 8 3 13 2 10 -3 -4 -5 4 -7 16 -3 16 4 19 2 13 -8 -5 -9 -4 -11 4 -6 6 4
9 11 6 16 -3 5 -1 11 5 15 5 3 10 1 10 -5 0 -6 5 -8 10 -5 8 5 7 12 -2 23 -10
14 -10 15 2 5 16 -15 34 -17 26 -5 -3 5 1 9 9 9 8 0 11 -5 8 -10 -3 -6 -1 -7
5 -3 5 3 13 0 16 -6 3 -7 2 0 -1 17 -6 28 -6 29 11 12 22 -21 27 -22 19 0 -5
12 -2 15 10 10 11 -4 17 -1 17 8 0 8 5 15 11 15 5 0 8 -4 5 -8 -3 -5 1 -9 9
-9 8 0 12 4 9 9 -3 4 2 8 11 8 11 0 15 5 12 14 -4 10 1 13 19 11 19 -2 24 1
19 13 -4 12 -3 13 10 2 13 -11 14 -10 9 3 -6 17 10 18 36 2 9 -5 7 1 -4 14
-19 21 -19 21 -1 15 12 -5 16 -4 11 4 -3 6 -2 13 3 16 5 4 13 1 17 -5 5 -8 3
-9 -6 -4 -9 6 -11 4 -6 -4 6 -9 13 -8 29 6 12 10 24 20 27 22 3 2 -5 0 -17 -3
-12 -4 -24 -2 -28 3 -3 6 0 8 8 5 8 -3 18 0 22 6 5 8 11 8 21 -1 9 -7 14 -8
13 -3 -4 22 2 44 12 44 5 0 7 -6 3 -12 -4 -7 2 -4 13 7 11 11 18 24 16 28 -3
5 3 7 12 5 17 -3 22 3 44 52 9 21 10 21 5 3 -3 -14 -1 -23 6 -23 6 0 9 4 5 9
-7 12 24 43 36 36 5 -4 6 2 2 11 -4 12 -3 15 5 10 8 -5 10 -1 5 10 -5 13 -3
15 7 9 10 -6 12 -4 7 9 -4 10 -3 15 3 11 10 -6 14 7 11 35 -2 12 0 12 7 2 5
-8 13 -14 17 -14 12 0 27 31 20 41 -3 5 0 13 6 17 8 4 9 3 5 -4 -4 -7 -2 -12
3 -12 6 0 11 7 11 15 0 8 3 14 8 13 4 -2 9 2 10 7 2 6 8 15 14 22 5 7 6 18 2
25 -6 9 -3 9 10 -1 15 -12 17 -12 14 0 -2 8 -7 17 -13 21 -6 4 -2 8 9 8 12 0
16 5 13 15 -4 8 -1 17 5 21 7 4 8 3 4 -4 -4 -7 -3 -12 2 -12 14 0 21 23 18 54
-2 14 1 23 5 20 5 -3 16 -1 24 4 13 7 12 10 -9 20 -20 9 -25 9 -23 -1 1 -6 -4
-11 -11 -9 -8 1 -11 -2 -6 -9 5 -8 2 -10 -7 -7 -8 3 -24 -1 -34 -9 -20 -16
-20 -16 0 -9 15 6 17 4 8 -5 -6 -6 -24 -12 -40 -12 -15 0 -22 -2 -15 -4 6 -3
12 -9 12 -15 0 -6 -7 -8 -15 -4 -14 5 -21 -11 -16 -37 1 -5 -3 -6 -8 -2 -6 3
-16 -3 -23 -14 -9 -15 -14 -17 -22 -8 -6 7 -10 11 -9 9 4 -10 -41 -43 -53 -38
-7 3 -13 2 -13 -2 4 -26 -1 -34 -16 -22 -13 11 -14 10 -9 -4 7 -19 -6 -21 -26
-3 -11 9 -11 8 0 -7 14 -18 13 -19 -2 -13 -11 4 -22 -1 -32 -15 -8 -11 -19
-17 -25 -14 -6 4 -8 -2 -6 -15 4 -17 2 -19 -10 -9 -14 12 -20 4 -16 -22 0 -4
-6 -5 -14 -2 -8 4 -12 11 -8 18 3 6 2 7 -3 3 -5 -5 -9 -14 -9 -20 -1 -7 -7
-11 -14 -9 -9 2 -11 -3 -7 -14 5 -14 4 -15 -9 -4 -12 10 -15 10 -15 0 0 -7 -8
-10 -20 -7 -13 3 -18 1 -13 -6 4 -7 0 -8 -12 -3 -14 5 -16 4 -6 -7 9 -12 6
-14 -14 -12 -14 2 -23 -1 -19 -7 3 -5 -2 -8 -12 -6 -11 2 -18 -2 -17 -7 1 -6
-7 -11 -17 -12 -13 -1 -17 3 -14 15 2 9 -2 4 -10 -13 -13 -26 -21 -27 -17 -2
1 5 -3 5 -9 2 -6 -4 -9 -12 -7 -19 5 -12 -3 -14 -65 -18 -25 -2 -33 -6 -27
-14 5 -7 3 -11 -6 -11 -8 0 -15 5 -15 11 0 6 -5 4 -10 -4 -9 -13 -10 -13 -10
0 -1 9 -6 5 -15 -10 l-15 -25 4 28 c3 15 1 25 -5 22 -5 -4 -9 -13 -9 -20 0 -9
-6 -12 -17 -8 -12 5 -14 3 -8 -8 6 -11 5 -12 -6 -1 -14 13 -33 17 -25 4 2 -4
-4 -9 -15 -9 -10 -1 -19 1 -19 5 0 4 -11 8 -25 8 -15 1 -22 -2 -18 -9 3 -6 1
-7 -6 -3 -6 4 -19 2 -28 -6 -9 -7 -14 -8 -11 -3 4 6 3 17 -3 25 -7 12 -9 11
-10 -5 0 -11 -3 -14 -6 -7 -4 10 -8 10 -19 1 -17 -14 -19 2 -1 21 6 8 -1 4
-17 -10 -16 -14 -26 -19 -22 -12 5 9 -4 12 -34 12 -23 0 -39 4 -35 9 3 5 1 13
-5 16 -6 4 -9 1 -8 -6 2 -7 -6 -13 -17 -14 -11 0 -27 -4 -35 -9 -12 -7 -13 -6
-2 5 6 7 12 19 12 27 0 10 -3 10 -16 -2 -20 -21 -25 -20 -17 2 6 15 5 15 -10
3 -9 -7 -18 -11 -18 -7 -1 3 -2 11 -3 16 -1 13 -21 13 -21 1 0 -5 -4 -13 -8
-18 -5 -4 -8 -3 -7 2 5 21 0 36 -10 30 -5 -3 -10 -1 -10 5 0 6 -5 8 -10 5 -6
-4 -8 -12 -4 -18 3 -7 -5 0 -18 16 -19 22 -26 25 -37 15 -11 -11 -13 -10 -8 5
6 15 4 16 -16 6 -18 -9 -20 -9 -9 2 6 7 12 18 12 24 0 5 -5 3 -11 -5 -8 -11
-12 -12 -16 -2 -2 6 -9 12 -14 12 -6 0 -7 -5 -3 -12 4 -7 3 -8 -4 -4 -6 4 -9
14 -6 24 5 14 2 13 -11 -3 -17 -20 -17 -20 -13 0 5 29 -49 74 -85 70 -16 -2
-26 -1 -23 2 3 3 1 14 -5 25 -6 11 -13 17 -16 14 -10 -10 -43 15 -43 32 0 30
-20 43 -44 30 -19 -10 -20 -10 -7 5 7 10 9 17 4 17 -9 0 -40 23 -66 47 -5 5
-17 23 -28 41 -16 28 -22 32 -35 21 -8 -6 -17 -9 -21 -5 -3 3 -2 6 3 6 5 0 10
9 10 20 0 11 -4 20 -8 20 -4 0 -8 -8 -8 -17 0 -15 -2 -16 -9 -3 -6 8 -7 18 -4
24 4 5 -1 7 -12 2 -15 -5 -16 -4 -5 9 11 13 11 16 -1 13 -8 -2 -13 2 -12 9 2
7 -3 10 -11 7 -8 -3 -17 0 -21 5 -3 6 -12 8 -18 5 -7 -4 -9 -4 -5 1 4 4 0 14
-10 21 -15 12 -15 15 -2 24 13 8 13 10 -2 11 -10 1 -23 2 -29 3 -14 1 -59 58
-54 66 2 4 -3 7 -11 7 -8 0 -17 -4 -20 -9z m281 -258 c2 -12 3 -21 1 -19 -3 2
-5 9 -6 14 -1 6 -7 19 -12 30 -8 15 -8 17 1 9 6 -6 13 -21 16 -34z m-185 20
c0 -5 -5 -10 -11 -10 -5 0 -7 5 -4 10 3 6 8 10 11 10 2 0 4 -4 4 -10z m1987
-5 c0 -8 -4 -12 -9 -9 -5 3 -6 10 -3 15 9 13 12 11 12 -6z m-1674 -118 c3 -8
-1 -14 -8 -14 -7 0 -11 6 -8 14 3 7 6 13 8 13 2 0 5 -6 8 -13z m1627 7 c0 -8
-19 -13 -24 -6 -3 5 1 9 9 9 8 0 15 -2 15 -3z m-244 -76 c5 -7 3 -8 -6 -3 -10
6 -12 4 -6 -11 5 -14 4 -16 -5 -7 -6 6 -8 16 -5 22 9 14 13 14 22 -1z m-1226
-53 c13 -14 18 -25 12 -25 -7 0 -12 5 -12 10 0 6 -7 10 -16 10 -9 0 -12 5 -8
12 5 8 2 9 -10 5 -10 -4 -15 -3 -11 3 10 15 20 12 45 -15z m1260 -121 c0 -8
-19 -13 -24 -6 -3 5 1 9 9 9 8 0 15 -2 15 -3z m-1060 -238 c0 -3 -4 -8 -10
-11 -5 -3 -10 -1 -10 4 0 6 5 11 10 11 6 0 10 -2 10 -4z"/>
<path d="M2171 3079 c-1 -9 7 -27 17 -39 14 -18 19 -19 19 -7 0 9 -4 14 -8 11
-4 -2 -12 8 -17 23 -6 16 -11 21 -11 12z"/>
<path d="M2116 3042 c-3 -5 1 -9 9 -9 8 0 15 4 15 9 0 4 -4 8 -9 8 -6 0 -12
-4 -15 -8z"/>
<path d="M2241 2987 c2 -1 13 -10 25 -20 17 -14 21 -14 21 -2 0 8 -4 12 -8 9
-4 -2 -10 0 -14 6 -3 5 -11 10 -17 10 -6 0 -9 -1 -7 -3z"/>
<path d="M2440 2806 c0 -2 7 -7 16 -10 8 -3 12 -2 9 4 -6 10 -25 14 -25 6z"/>
<path d="M4070 2779 c0 -5 5 -7 10 -4 6 3 10 8 10 11 0 2 -4 4 -10 4 -5 0 -10
-5 -10 -11z"/>
<path d="M2560 2686 c0 -2 7 -6 15 -10 8 -3 15 -1 15 4 0 6 -7 10 -15 10 -8 0
-15 -2 -15 -4z"/>
<path d="M2626 2638 c3 -5 10 -6 15 -3 13 9 11 12 -6 12 -8 0 -12 -4 -9 -9z"/>
<path d="M7445 2550 c-3 -6 1 -7 9 -4 18 7 21 14 7 14 -6 0 -13 -4 -16 -10z"/>
<path d="M3519 2473 c-13 -16 -12 -17 4 -4 16 13 21 21 13 21 -2 0 -10 -8 -17
-17z"/>
<path d="M2420 2459 c0 -5 5 -7 10 -4 6 3 10 8 10 11 0 2 -4 4 -10 4 -5 0 -10
-5 -10 -11z"/>
<path d="M2462 2440 c7 -11 17 -20 22 -20 5 0 1 9 -9 20 -10 11 -20 20 -22 20
-2 0 2 -9 9 -20z"/>
<path d="M3307 2433 c3 -7 6 -13 8 -13 2 0 5 6 8 13 3 8 -1 14 -8 14 -7 0 -11
-6 -8 -14z"/>
<path d="M5980 2339 c0 -5 5 -7 10 -4 6 3 10 8 10 11 0 2 -4 4 -10 4 -5 0 -10
-5 -10 -11z"/>
<path d="M2975 2190 c-3 -5 -1 -10 4 -10 6 0 11 5 11 10 0 6 -2 10 -4 10 -3 0
-8 -4 -11 -10z"/>
<path d="M5900 2120 c-9 -6 -10 -10 -3 -10 6 0 15 5 18 10 8 12 4 12 -15 0z"/>
<path d="M5362 1485 c-7 -8 -9 -15 -4 -15 5 0 15 7 22 15 16 19 -1 19 -18 0z"/>
<path d="M7426 1111 c-3 -5 1 -11 9 -14 9 -4 12 -1 8 9 -6 16 -10 17 -17 5z"/>
<path d="M5253 1085 c0 -8 4 -12 9 -9 5 3 6 10 3 15 -9 13 -12 11 -12 -6z"/>
<path d="M7387 913 c-10 -9 -9 -23 1 -23 5 0 9 7 9 15 0 17 -1 18 -10 8z"/>
<path d="M7076 313 c-6 -14 -5 -15 5 -6 7 7 10 15 7 18 -3 3 -9 -2 -12 -12z"/>
<path d="M6216 82 c-3 -5 1 -9 9 -9 8 0 12 4 9 9 -3 4 -7 8 -9 8 -2 0 -6 -4
-9 -8z"/>
<path d="M6256 78 c3 -5 10 -6 15 -3 13 9 11 12 -6 12 -8 0 -12 -4 -9 -9z"/>
</g>
</svg>
